<?xml version="1.0" encoding="UTF-8"?>
<!DOCTYPE svg PUBLIC "-//W3C//DTD SVG 1.1//EN" "http://www.w3.org/Graphics/SVG/1.1/DTD/svg11.dtd">
<!-- Creator: CorelDRAW -->
<svg xmlns="http://www.w3.org/2000/svg" xml:space="preserve" width="6.82666in" height="6.82666in" style="shape-rendering:geometricPrecision; text-rendering:geometricPrecision; image-rendering:optimizeQuality; fill-rule:evenodd; clip-rule:evenodd"
viewBox="0 0 6.82666 6.82666"
 xmlns:xlink="http://www.w3.org/1999/xlink">
 <defs>
  <style type="text/css">
   <![CDATA[
    .fil6 {fill:none}
    .fil5 {fill:#202020;fill-rule:nonzero}
    .fil3 {fill:#7E7E7E;fill-rule:nonzero}
    .fil1 {fill:#9D9D9D;fill-rule:nonzero}
    .fil4 {fill:#ACACAC;fill-rule:nonzero}
    .fil0 {fill:#CDCDCD;fill-rule:nonzero}
    .fil2 {fill:#D8D8D8;fill-rule:nonzero}
   ]]>
  </style>
 </defs>
 <g id="Layer_x0020_1">
  <metadata id="CorelCorpID_0Corel-Layer"/>
  <path class="fil0" d="M2.60425 2.14799c-0.301492,0.00246063 -0.376496,-0.0627756 -0.880953,-0.0436024 0,0 -0.301067,-0.0157008 -0.525287,0.0299449 -0.145992,0.000244094 -0.204047,-0.0130394 -0.46611,0.112335 -0.0398307,0.0806496 0.280925,-0.0347559 0.31611,0.00570079 0.1705,0.0503071 0.614906,0.0348307 0.805071,0.0270118 0.188677,0.090563 0.631299,0.106504 0.752705,0.141346 0,0 -0.00356693,-0.173689 -0.00153543,-0.272736z"/>
  <path class="fil0" d="M4.22241 2.1542c0.301492,0.00246063 0.376496,-0.0627756 0.880953,-0.0436024 0,0 0.301067,-0.0157008 0.525287,0.0299449 0.145992,0.000244094 0.204047,-0.0130394 0.46611,0.112335 0.0398307,0.0806496 -0.280925,-0.0347559 -0.31611,0.00570079 -0.1705,0.0503071 -0.614906,0.0348307 -0.805071,0.0270118 -0.188677,0.090563 -0.631299,0.106504 -0.752705,0.141346 0,0 0.00356693,-0.173689 0.00153543,-0.272736z"/>
  <path class="fil1" d="M3.7645 3.48026c0,0 -0.348941,0.14902 -0.806957,0.0254409l-0.119921 0.199882c0,0 -0.319886,0.138118 -0.41074,0.149059l0.113929 0.461677c0,0 0.553134,-0.10911 0.837512,-0.243575 0,0 0.273386,0.152583 0.509701,0.29802l0.327815 -0.261744c0,0 -0.422126,-0.56322 -0.451339,-0.62876z"/>
  <path class="fil2" d="M3.7645 3.48026c0,0 -0.0676811,-0.154717 -0.0788937,-0.217161l-0.728646 0.060563c0,0 0.00312598,0.135012 0.000582677,0.182039 0,0 0.365114,0.125512 0.806957,-0.0254409z"/>
  <path class="fil2" d="M2.43507 3.88813c0,0 -0.40574,0.0697205 -0.648087,0.192783 0,0 -0.176047,0.0177008 -0.145764,0.338295 0,0 0.0795354,0.562831 0.0530236,0.868346 -0.193087,0.167744 -0.520579,0.112835 -0.550272,0.217043 0,0 -0.0271181,0.0377953 0.128091,0.0340315 0,0 0.248008,-0.00376772 0.340791,-0.0283937 0,0 0.166591,0.040189 0.312374,0.0285906 0,0 0.0813622,-0.0589055 -0.0170394,-0.248209 -0.0378819,-0.407039 0.134402,-0.471008 0.0662362,-0.919858 0,0 0.0313425,-0.0624449 0.14635,-0.060122 0,0 0.268114,0.027563 0.411724,-0.0278819l-0.0974291 -0.394626z"/>
  <path class="fil2" d="M4.1898 4.1298c0,0 0.265846,0.279248 0.331441,0.344906 0,0 0.628516,0.158563 1.02736,0.80272 0,0 0.215787,0.141933 0.215787,0.215768 0,0 -0.238531,0.267843 -0.499736,0.136307 0,0 -0.0454213,-0.0397992 0.0776024,-0.0530472 0,0 0.106,-0.0757205 0.111669,-0.196846 0,0 -0.711783,-0.507409 -0.829165,-0.56413 0,0 -0.288685,-0.0598819 -0.7085,-0.467311l0.273539 -0.218366z"/>
  <path class="fil3" d="M4.26068 2.14804c0,0 -0.264504,-0.0447953 -0.669665,0.00824409 0,0 -0.122449,0.11122 -0.330661,0.0241457 0,0 -0.415209,-0.0544173 -0.67265,-0.0323898l-0.0493228 0.266004 0.193394 0.0257717c0.23335,0.0310748 0.132228,0.244622 0.159413,0.518894 0.0183543,0.185217 0.0183858,0.547079 0.0174173,0.559598 0,0 0.681272,0.231965 0.957618,0.000992126 -0.0307441,-0.142083 -0.108449,-0.463823 -0.0668425,-0.720307 0.0249055,-0.153555 0.0307402,-0.279969 0.192882,-0.331l0.268417 -0.0378346 0 -0.282118z"/>
  <path class="fil4" d="M5.54861 5.27743c0,0 0.0384724,0.0526024 0.0412598,0.0945433 0,0 0.0250591,-0.0424016 -0.0412598,-0.0945433z"/>
  <path class="fil5" d="M3.16639 4.77028c0.00577953,-0.00441339 0.00739764,-0.00566142 -3.14961e-005,-3.93701e-005l3.14961e-005 3.93701e-005z"/>
  <path class="fil5" d="M3.16639 4.77028l-3.14961e-005 -3.93701e-005 -0.0414843 0.0314685 -0.000122047 0.000350394c0.00940551,-0.00720866 0.0316693,-0.0241693 0.0416378,-0.0317795z"/>
  <path class="fil5" d="M4.19716 3.73241l0.00109055 0.00115748c0.000948819,0.00080315 -0.00023622,-0.000338583 -0.00109055,-0.00115748z"/>
  <path class="fil0" d="M3.59314 2.15804c-0.0281811,0.0237795 -0.181921,0.433157 -0.257531,0.433268 -0.0667402,9.84252e-005 -0.214882,-0.341917 -0.106626,-0.415469l0.0433504 -0.138579c-0.119283,0.0202756 -0.230661,-0.0119094 -0.230661,-0.0119094 -0.179126,-0.118165 -0.0400591,-0.597465 -0.0400591,-0.597465l0.000334646 -0.000181102c0.0722087,0.0376654 0.149673,0.0155 0.149673,0.0155 -0.00767717,0.146858 0.0293504,0.255398 0.0293504,0.255398 0.0838465,-0.277748 0.173087,-0.0849134 0.173087,-0.0849134 0.145925,0.0994449 0.201835,0.303941 0.210791,0.263169 -0.137303,0.0215787 -0.0609606,0.0592402 -0.0789488,0.0766142l0.10724 0.204567z"/>
  <path class="fil5" d="M3.7312 1.41618c0.0554843,0.106189 0.0621024,0.276177 -0.122059,0.442693 0,0 -0.140421,0.138201 -0.236583,0.0187598 0.0610157,-0.0969291 0.0147441,-0.158791 -0.0185079,-0.263941 0,0 -0.0892402,-0.192835 -0.173087,0.0849134 0,0 -0.0370276,-0.108539 -0.0293504,-0.255398 0,0 -0.0936417,0.0276024 -0.17102,-0.0278661 0.0860906,-0.127689 0.179669,-0.230728 0.307386,-0.250315 0.169591,-0.0259961 0.348461,0.0698071 0.44322,0.251154z"/>
  <rect class="fil6" width="6.82666" height="6.82666"/>
 </g>
</svg>
