<!-- icon666.com - MILLIONS OF FREE VECTOR ICONS --><svg id="Capa_1" enable-background="new 0 0 512 512" viewBox="0 0 512 512" xmlns="http://www.w3.org/2000/svg"><g><path d="m512 256c0 91.9-48.43 172.5-121.17 217.65-43.143-20.736-197.02 31.25-212.12 26.47-14.455-4.572-28.355-10.392-41.573-17.334-9.629-5.057 13.334-46.589 4.477-52.787-12.362-8.652-56.156 17.511-66.786 6.863-46.237-46.315-74.828-110.252-74.828-180.862 0-141.38 114.62-256 256-256s256 114.62 256 256z" fill="#8379c1"></path><g><path d="m395.678 217.777h-218.349c-14.53 0-26.308-11.779-26.308-26.308 0-14.53 11.779-26.308 26.308-26.308h218.348c14.53 0 26.308 11.779 26.308 26.308.001 14.53-11.777 26.308-26.307 26.308z" fill="#554e56"></path><path d="m336.902 26.442h-104.781c-7.302 0-13.221-5.919-13.221-13.221 0-7.302 5.92-13.221 13.221-13.221h104.781c7.302 0 13.221 5.919 13.221 13.221 0 7.302-5.919 13.221-13.221 13.221z" fill="#fef056"></path><path d="m267.034 26.44h-34.91c-7.3 0-13.22-5.92-13.22-13.22 0-3.65 1.48-6.96 3.87-9.35s5.7-3.87 9.35-3.87h34.91c-3.65 0-6.95 1.48-9.35 3.87-2.39 2.39-3.87 5.7-3.87 9.35 0 7.3 5.92 13.22 13.22 13.22z" fill="#fedf30"></path><path d="m424.757 357.057c4.146-5.043 6.637-11.5 6.637-18.538 0-14.402-10.424-26.36-24.137-28.764v-81.635h-241.506v81.635c-13.713 2.404-24.137 14.363-24.137 28.764 0 7.039 2.49 13.495 6.637 18.538-15.192 1.037-27.197 13.681-27.197 29.136 0 14.589 10.696 26.679 24.673 28.86-2.61 4.373-4.113 9.483-4.113 14.945 0 16.134 13.079 29.213 29.213 29.213h231.355c16.134 0 29.213-13.079 29.213-29.213 0-5.463-1.503-10.572-4.113-14.945 13.977-2.181 24.673-14.271 24.673-28.86-.001-15.455-12.005-28.099-27.198-29.136z" fill="#554e56"></path><path d="m390.83 473.65c-39.15 24.31-85.35 38.35-134.83 38.35-26.94 0-52.9-4.16-77.29-11.88l7.73-59.11c3.32-25.39 23.76-44.78 48.78-47.18 1.73-.17 3.48 10.62 5.25 10.62l92.06 1.55c1.77 0 3.52-12.34 5.25-12.17 25.02 2.4 45.46 21.79 48.78 47.18z" fill="#fe646f"></path><path d="m240.47 399.08 35.93-4.09c-21.7 5.04-38.67 23.08-41.67 46.02l-9.05 69.21c-16.17-1.91-31.87-5.32-46.97-10.1l7.73-59.11c3.32-25.39 23.76-44.78 48.78-47.18 1.73-.17 3.48 5.25 5.25 5.25z" fill="#fd4755"></path><path d="m288.76 393.58-12.36 1.41c2.32-.54 4.69-.93 7.11-1.16 1.73-.17 3.48-.25 5.25-.25z" fill="#fd4755"></path><path d="m337.784 393.83v24.69c0 28.32-22.97 51.29-51.27 51.29-6.96 0-13.59-1.38-19.63-3.88-18.58-7.72-31.66-26.03-31.66-47.41v-24.69c1.73-.17 3.48-.25 5.25-.25h92.06c1.77 0 3.52.08 5.25.25z" fill="#fef056"></path><path d="m320.464 326.617v60.87c0 18.754-15.214 33.968-33.955 33.968-4.608 0-8.997-.914-13-2.574-12.305-5.11-20.968-17.235-20.968-31.394v-60.87z" fill="#ffbd86"></path><path d="m273.507 365.923v52.952c-12.303-5.106-20.962-17.235-20.962-31.383v-37.85z" fill="#f6a96c"></path><path d="m374.897 289.501h-176.787c-28.21 0-51.079-22.869-51.079-51.079 0-17.641 14.301-31.942 31.942-31.942h215.063c17.641 0 31.942 14.301 31.942 31.942-.001 28.21-22.87 51.079-51.081 51.079z" fill="#f6a96c"></path><g><path d="m400.03 275.881c-14.561 0-26.365 11.804-26.365 26.365v27.132c0 14.561 11.804 26.365 26.365 26.365 14.561 0 26.365-11.804 26.365-26.365v-27.132c-.001-14.561-11.804-26.365-26.365-26.365z" fill="#fef056"></path><path d="m400.03 338.426c-4.989 0-9.047-4.059-9.047-9.047v-27.133c0-4.99 4.059-9.048 9.047-9.048s9.047 4.059 9.047 9.048v27.133c0 4.988-4.058 9.047-9.047 9.047z" fill="#fe646f"></path></g><g><path d="m172.978 275.881c-14.561 0-26.365 11.804-26.365 26.365v27.132c0 14.561 11.804 26.365 26.365 26.365 14.561 0 26.365-11.804 26.365-26.365v-27.132c-.001-14.561-11.805-26.365-26.365-26.365z" fill="#fef056"></path><path d="m172.978 338.426c-4.989 0-9.047-4.059-9.047-9.047v-27.133c0-4.99 4.059-9.048 9.047-9.048s9.047 4.059 9.047 9.048v27.133c0 4.988-4.059 9.047-9.047 9.047z" fill="#fe646f"></path></g><path d="m198.11 272.281c-18.67 0-33.859-15.189-33.859-33.859 0-8.117 6.604-14.721 14.721-14.721h215.063c8.117 0 14.721 6.604 14.721 14.721 0 18.67-15.189 33.859-33.859 33.859z" fill="#d88a55"></path><path d="m286.504 86.663c-54.695 0-99.034 44.339-99.034 99.034v94.126c0 54.695 44.339 99.034 99.034 99.034 54.695 0 99.034-44.339 99.034-99.034v-94.126c-.001-54.695-44.339-99.034-99.034-99.034z" fill="#ffbd86"></path><path d="m364.708 148.605c-9.703 9.703-9.703 25.436 0 35.139s25.436 9.703 35.139 0z" fill="#554e56"></path><path d="m313.199 375.206c-8.492 2.38-17.448 3.647-26.699 3.647-54.698 0-99.03-44.341-99.03-99.03v-94.126c0-54.698 44.332-99.039 99.03-99.039 9.251 0 18.207 1.266 26.699 3.647-41.732 11.64-72.348 49.946-72.348 95.392v94.126c0 45.437 30.616 83.743 72.348 95.383z" fill="#f6a96c"></path><g fill="#554e56"><path d="m208.117 148.605c9.703 9.703 9.703 25.436 0 35.139s-25.436 9.703-35.139 0z"></path><path d="m242.785 205.067c-6.227 0-12.015 1.9-16.835 5.154l-.626-.626c-2.26-2.26-5.925-2.26-8.186 0-1.426 1.426-1.948 3.41-1.574 5.249l-2.547-2.547c-2.26-2.26-5.925-2.26-8.186 0-2.26 2.26-2.26 5.925 0 8.186l4.341 4.341-1.568.66c-4.173 1.756-6.887 5.842-6.887 10.37s2.714 8.614 6.887 10.37l7.972 3.355c4.982 10.113 15.291 17.062 27.207 17.062 16.787 0 30.395-13.784 30.395-30.787.002-17.003-13.607-30.787-30.393-30.787z"></path><path d="m365.402 225.484-1.568-.66 4.341-4.341c2.26-2.26 2.26-5.925 0-8.186-2.26-2.26-5.925-2.26-8.186 0l-2.547 2.547c.373-1.839-.148-3.823-1.574-5.249-2.26-2.26-5.925-2.26-8.186 0l-.626.626c-4.82-3.254-10.607-5.154-16.835-5.154-16.787 0-30.395 13.784-30.395 30.787s13.608 30.787 30.395 30.787c11.917 0 22.225-6.95 27.207-17.062l7.972-3.355c4.173-1.756 6.887-5.842 6.887-10.37s-2.712-8.614-6.885-10.37z"></path></g><ellipse cx="242.785" cy="235.854" fill="#f9f7f8" rx="30.395" ry="23.142"></ellipse><path d="m250.414 258.259c-2.446.479-4.994.734-7.633.734-16.789 0-30.391-10.356-30.391-23.139s13.602-23.139 30.391-23.139c2.639 0 5.187.255 7.633.734-13.104 2.574-22.778 11.624-22.778 22.405s9.673 19.831 22.778 22.405z" fill="#dedbee"></path><ellipse cx="330.223" cy="235.854" fill="#f9f7f8" rx="30.395" ry="23.142"></ellipse><path d="m337.852 258.259c-2.446.479-4.994.734-7.633.734-16.789 0-30.391-10.356-30.391-23.139s13.602-23.139 30.391-23.139c2.639 0 5.187.255 7.633.734-13.104 2.574-22.778 11.624-22.778 22.405s9.674 19.831 22.778 22.405z" fill="#dedbee"></path><circle cx="244.135" cy="235.854" fill="#433f43" r="12.136"></circle><circle cx="328.873" cy="235.854" fill="#433f43" r="12.136"></circle><path d="m286.504 281.931c-5.67 0-10.266-4.596-10.266-10.266v-119.198h20.532v119.198c0 5.67-4.597 10.266-10.266 10.266z" fill="#f6a96c"></path><g fill="#554e56"><path d="m307.641 183.425c6.008-2.1 12.277-3.225 18.476-3.349 6.2-.129 12.328.735 18.092 2.493 5.765 1.761 11.164 4.414 15.954 7.786 4.793 3.369 8.971 7.456 12.373 12.009.705.944.511 2.28-.432 2.985-.828.618-1.958.545-2.699-.119l-.013-.012c-7.826-7.008-17.62-11.168-27.387-12.065-9.782-.931-19.426 1.388-27.232 6.117-4.133 2.504-9.513 1.183-12.017-2.95s-1.183-9.513 2.95-12.017c.517-.313 1.053-.566 1.601-.762z"></path><path d="m265.366 183.425c-6.008-2.1-12.277-3.225-18.476-3.349-6.2-.129-12.328.735-18.092 2.493-5.765 1.761-11.164 4.414-15.954 7.786-4.793 3.369-8.971 7.456-12.373 12.009-.705.944-.511 2.28.432 2.985.828.618 1.958.545 2.699-.119l.013-.012c7.826-7.008 17.62-11.168 27.387-12.065 9.782-.931 19.426 1.388 27.232 6.117 4.133 2.504 9.513 1.183 12.017-2.95s1.183-9.513-2.95-12.017c-.517-.313-1.053-.566-1.601-.762z"></path></g><path d="m286.504 323.56c-10.769 0-20.894-4.194-28.509-11.809-3.554-3.554-3.554-9.316 0-12.87s9.316-3.554 12.869 0c4.177 4.178 9.732 6.478 15.64 6.478s11.462-2.301 15.64-6.478c3.554-3.554 9.316-3.554 12.869 0 3.554 3.554 3.554 9.316 0 12.87-7.615 7.616-17.74 11.809-28.509 11.809z" fill="#fe646f"></path><path d="m377.205 156.592 6.109-10.742c12.809-22.523 9.74-50.72-7.616-69.959l-16.01-17.747h-150.353l-16.01 17.747c-17.356 19.239-20.426 47.436-7.616 69.959l6.109 10.742" fill="#fef056"></path><path d="m247.029 75.89c-17.36 19.24-20.43 47.44-7.62 69.96l6.11 10.74h-53.7l-6.11-10.74c-12.81-22.52-9.74-50.72 7.62-69.96l16.01-17.75h53.7z" fill="#fedf30"></path><g><path d="m344.437 92.026c-10.09 0-18.27 8.18-18.27 18.27v18.802c0 10.09 8.18 18.27 18.27 18.27 10.09 0 18.27-8.18 18.27-18.27v-18.802c0-10.09-8.18-18.27-18.27-18.27z" fill="#fe9738"></path><path d="m344.437 135.367c-3.457 0-6.27-2.812-6.27-6.27v-18.802c0-3.458 2.812-6.27 6.27-6.27s6.27 2.812 6.27 6.27v18.802c0 3.458-2.813 6.27-6.27 6.27z" fill="#fe646f"></path></g><g><path d="m224.587 92.026c-10.09 0-18.27 8.18-18.27 18.27v18.802c0 10.09 8.18 18.27 18.27 18.27 10.09 0 18.27-8.18 18.27-18.27v-18.802c-.001-10.09-8.18-18.27-18.27-18.27z" fill="#fe9738"></path><path d="m224.587 135.367c-3.457 0-6.27-2.812-6.27-6.27v-18.802c0-3.458 2.812-6.27 6.27-6.27s6.27 2.812 6.27 6.27v18.802c-.001 3.458-2.813 6.27-6.27 6.27z" fill="#fe646f"></path></g><circle cx="286.504" cy="189.682" fill="#fe646f" r="10.266"></circle><circle cx="299.828" cy="272.281" fill="#fef056" r="7.373"></circle><path d="m386.809 169.813h-200.61c-7.302 0-13.221-5.919-13.221-13.221 0-7.302 5.919-13.221 13.221-13.221h200.61c7.302 0 13.221 5.919 13.221 13.221 0 7.302-5.919 13.221-13.221 13.221z" fill="#fef056"></path><path d="m240.768 169.813h-54.57c-7.3 0-13.22-5.92-13.22-13.22 0-3.65 1.48-6.95 3.87-9.35 2.4-2.39 5.7-3.87 9.35-3.87h54.57c-3.65 0-6.96 1.48-9.35 3.87-2.39 2.4-3.87 5.7-3.87 9.35 0 7.299 5.92 13.22 13.22 13.22z" fill="#fedf30"></path><path d="m353.859 50.337h-138.694c-7.302 0-13.221-5.919-13.221-13.221 0-7.302 5.919-13.221 13.221-13.221h138.694c7.302 0 13.221 5.919 13.221 13.221 0 7.302-5.919 13.221-13.221 13.221z" fill="#fef056"></path><path d="m253.224 50.336h-38.06c-7.3 0-13.22-5.92-13.22-13.22 0-3.66 1.48-6.96 3.87-9.35 2.4-2.39 5.7-3.87 9.35-3.87h38.06c-3.65 0-6.95 1.48-9.35 3.87-2.39 2.39-3.87 5.69-3.87 9.35 0 7.3 5.92 13.22 13.22 13.22z" fill="#fedf30"></path><path d="m370.626 75.085h-172.228c-7.302 0-13.221-5.919-13.221-13.221 0-7.302 5.919-13.221 13.221-13.221h172.228c7.302 0 13.221 5.919 13.221 13.221 0 7.302-5.919 13.221-13.221 13.221z" fill="#fef056"></path><path d="m248.747 75.084h-50.35c-7.3 0-13.22-5.91-13.22-13.22 0-3.65 1.48-6.96 3.87-9.35s5.7-3.87 9.35-3.87h50.35c-3.65 0-6.96 1.48-9.35 3.87s-3.87 5.7-3.87 9.35c0 7.31 5.91 13.22 13.22 13.22z" fill="#fedf30"></path><g><circle cx="286.504" cy="152.467" fill="#fe9738" r="21.102"></circle><circle cx="286.504" cy="152.467" fill="#6fd7a3" r="12.693"></circle><path d="m289.585 164.784c-.987.245-2.017.375-3.083.375-7.008 0-12.691-5.683-12.691-12.691s5.683-12.691 12.691-12.691c1.066 0 2.096.13 3.083.375-5.517 1.383-9.608 6.374-9.608 12.317s4.09 10.932 9.608 12.315z" fill="#3ec3a4"></path></g><g><circle cx="286.504" cy="459.212" fill="#fe9738" r="30.904"></circle><circle cx="286.504" cy="459.212" fill="#6fd7a3" r="18.589"></circle><path d="m291.016 477.249c-1.445.359-2.954.549-4.515.549-10.264 0-18.586-8.323-18.586-18.586s8.323-18.586 18.586-18.586c1.561 0 3.07.19 4.515.549-8.08 2.025-14.072 9.335-14.072 18.038s5.992 16.011 14.072 18.036z" fill="#3ec3a4"></path></g><g><circle cx="286.504" cy="98.107" fill="#fe9738" r="30.363"></circle><circle cx="286.504" cy="98.107" fill="#fe646f" r="18.264"></circle><path d="m290.937 115.829c-1.42.352-2.902.539-4.436.539-10.084 0-18.261-8.177-18.261-18.261s8.177-18.261 18.261-18.261c1.534 0 3.016.187 4.436.539-7.939 1.99-13.825 9.172-13.825 17.722s5.886 15.732 13.825 17.722z" fill="#fd4755"></path></g><g><g><circle cx="228.386" cy="50.337" fill="#f9f7f8" r="13.593"></circle><path d="m232.742 63.223c-1.373.466-2.832.711-4.365.711-7.503 0-13.584-6.093-13.584-13.596s6.081-13.596 13.584-13.596c1.533 0 2.991.245 4.365.711-5.382 1.814-9.244 6.902-9.244 12.885s3.862 11.07 9.244 12.885z" fill="#dedbee"></path></g><g><circle cx="265.803" cy="50.337" fill="#f9f7f8" r="13.593"></circle><path d="m270.159 63.223c-1.373.466-2.832.711-4.365.711-7.503 0-13.584-6.093-13.584-13.596s6.081-13.596 13.584-13.596c1.533 0 2.991.245 4.365.711-5.382 1.814-9.244 6.902-9.244 12.885s3.862 11.07 9.244 12.885z" fill="#dedbee"></path></g><g><circle cx="303.22" cy="50.337" fill="#f9f7f8" r="13.593"></circle><path d="m307.576 63.223c-1.373.466-2.832.711-4.365.711-7.503 0-13.584-6.093-13.584-13.596s6.081-13.596 13.584-13.596c1.533 0 2.991.245 4.365.711-5.382 1.814-9.244 6.902-9.244 12.885s3.862 11.07 9.244 12.885z" fill="#dedbee"></path></g><g><circle cx="340.637" cy="50.337" fill="#f9f7f8" r="13.593"></circle><path d="m344.993 63.223c-1.373.466-2.832.711-4.365.711-7.503 0-13.584-6.093-13.584-13.596s6.081-13.596 13.584-13.596c1.533 0 2.991.245 4.365.711-5.382 1.814-9.244 6.902-9.244 12.885s3.862 11.07 9.244 12.885z" fill="#dedbee"></path></g></g></g><g><path d="m179.07 67.72c-66.09 77.84-80.31 188.56-35.14 280.85 10.48 21.4 6.91 46.54-8.16 63.93-2.71 3.14-5.8 6.02-9.25 8.59l-5.43 4.04c-85.33-114.68-61.53-276.82 53.14-362.15.09-.06.17-.12.25-.18 2.19-1.62 4.72-.18 5.3 1.87.28.97.12 2.07-.71 3.05z" fill="#f9f7f8"></path><path d="m96 235.85c0 85.08 24.9 147.16 39.77 176.65-2.71 3.14-5.8 6.02-9.25 8.59l-5.43 4.04c-85.33-114.68-61.53-276.82 53.14-362.15.09-.06.17-.12.25-.18 2.19-1.62 4.72-.18 5.3 1.87-23.54 18-83.78 73.58-83.78 171.18z" fill="#dedbee"></path><path d="m157.267 424.227v38.426c0 11.116-9.011 20.127-20.127 20.127-23.07-12.11-44.06-27.64-62.31-45.92v-5c0-15.331 12.429-27.76 27.76-27.76h34.55c11.116 0 20.127 9.011 20.127 20.127z" fill="#ffbd86"></path><path d="m137.13 404.1v.02c-14.88.5-26.79 12.72-26.79 27.74v32.65c0 .7.03 1.4.08 2.08-12.75-8.82-24.66-18.78-35.59-29.73v-5c0-15.34 12.42-27.76 27.76-27.76z" fill="#f6a96c"></path><path d="m169.177 384.259h-88.85c-7.096 0-12.848 5.752-12.848 12.848 0 7.096 5.752 12.848 12.848 12.848h88.85c7.096 0 12.848-5.752 12.848-12.848 0-7.096-5.752-12.848-12.848-12.848z" fill="#fef056"></path><path d="m104.559 406.187c2.32 2.32 5.54 3.76 9.08 3.76h-33.31c-3.55 0-6.76-1.44-9.09-3.76-2.32-2.33-3.76-5.53-3.76-9.08 0-7.1 5.75-12.85 12.85-12.85h33.31c-7.09 0-12.84 5.75-12.84 12.85 0 3.55 1.44 6.75 3.76 9.08z" fill="#fedf30"></path></g></g></svg>