<!-- icon666.com - MILLIONS OF FREE VECTOR ICONS --><svg id="Layer_1" viewBox="0 0 291.7746 356.0813" xmlns="http://www.w3.org/2000/svg"><g><path d="m200.6956 250.9819c.3181 5.8408.1663 15.4143-1.1365 30.303-1.7529 20.0322-4.8213 40.4746-7.4619 49.7129-.0967.3398-.5693 1.2441-2.8486 2.291-.3006.1382-.6388.2672-.9749.3967 5.4528-18.307 8.7081-59.1177 8.8499-60.9265l-2.293-.1797c-.0355.4529-3.5707 44.7882-9.2308 61.9528-.7123.1873-1.4567.3609-2.2389.5169 2.4514-9.3664 3.8987-27.5017 3.9648-28.3403l-2.293-.1802c-.0168.2118-1.6154 20.2409-4.178 28.9543-7.1265 1.0361-15.791.8203-20.4304-1.3132-1.5244-.7007-3.0908-1.52-4.6562-2.4351-2.1261-1.2432-3.902-2.6878-5.3954-4.3465 14.2632-10.9055 37.3014-33.5804 44.5439-70.0834-1.1784 1.0632-2.4324 2.0717-3.7472 3.0358-10.4092 44.5541-44.8997 66.9359-52.5253 71.3942-1.5586.9126-3.125 1.7314-4.6553 2.4351-5.1752 2.3809-15.3596 2.3713-22.8302.9012-2.2332-20.6061-3.6331-45.6832-3.6473-45.9417l-2.2969.127c.014.2556 1.3825 24.7556 3.5732 45.2687-.8273-.2181-1.6168-.4503-2.323-.7073-4.6323-25.4875-7.0631-69.7723-7.0871-70.225l-2.2969.124c.0244.4446 2.3638 43.0649 6.8366 68.9064-1.2094-.751-1.5259-1.3604-1.6013-1.6252-2.6406-9.2383-5.709-29.6807-7.4619-49.7129-1.3033-14.8941-1.4547-24.469-1.1362-30.3092-.9442-1.264-1.8166-2.5787-2.6183-3.9429-2.4633 18.3159 4.108 70.0127 8.3316 84.7892.4658 1.6304 1.9736 3.041 4.4805 4.1929 1.7697.8127 4.0602 1.4911 6.6218 2.0049l.4446 4.62c-.657 6.5609 5.3809 12.538 13.4849 13.3496 8.107.8119 15.2132-3.8489 15.8702-10.4098l1.2104-12.0867c1.6031-.9852 3.7925-2.4086 6.3789-4.282 1.4 1.5711 3.0302 2.9852 4.9438 4.2487l1.2138 12.1201c.657 6.5609 7.7632 11.2217 15.8702 10.4098 8.1039-.8116 14.1419-6.7887 13.4849-13.3496l.4446-4.6201c2.5613-.5139 4.8515-1.1921 6.6206-2.0049 2.5078-1.1519 4.0156-2.5625 4.4814-4.1929 4.225-14.7811 10.7991-66.5062 8.3294-84.8069-.8042 1.3697-1.6677 2.698-2.6155 3.9668zm-19.1403 86.0907c.0001.0001 0 .0001 0 .0001zm-75.9634-1.6514v.0001s0 0 0-.0001z"></path><path d="m100.6292 138.8196c-19.8075 4.6043-35.394 12.6036-43.5087 17.3847-5.5869-3.9829-15.0273-12.7588-21.3213-29.5288-.7526-2.0051-2.0344-3.6517-3.6193-4.8624l4.0732-12.4279c.5775 1.1285 1.4338 2.1178 2.5374 2.8464l1.2676-1.9199c-1.6201-1.0688-2.5039-2.9312-2.3018-4.9136.1055-.9336.5928-1.7622 1.374-2.333.8086-.5918 1.8291-.8208 2.8096-.626.4834.0962.9814.1455 1.4785.146h.0137c3.2391 0 6.1088-2.1304 7.0942-5.1637 1.0382.2395 2.1035.3698 3.1782.3698 2.1396 0 4.3096-.4883 6.3457-1.519 5.6611-2.8662 7.9355-9.8042 5.0693-15.4658-2.3506-4.6426-8.04-6.5088-12.6826-4.1562-1.8535.939-3.2314 2.5435-3.8789 4.5176-.6465 1.9746-.4863 4.083.4521 5.937 1.6074 3.1743 5.4971 4.4507 8.6729 2.8423 1.5654-.792 2.6504-2.3022 2.9014-4.0396l-2.2754-.3301c-.1445.9971-.7666 1.8633-1.665 2.3179-.9883.501-2.1133.5874-3.1699.2412-1.0537-.3452-1.9102-1.0811-2.4111-2.0708-.6621-1.3057-.7744-2.7905-.3193-4.1816.4561-1.3906 1.4268-2.5205 2.7324-3.1821 1.7002-.8604 3.6348-1.0093 5.4463-.4146 1.8115.5938 3.2842 1.8574 4.1445 3.5581 2.2939 4.5298.4746 10.0815-4.0557 12.375-2.6082 1.321-5.4785 1.5693-8.1178.9244.0087-1.59-.4828-3.1549-1.4271-4.4527-1.252-1.7207-3.1826-2.8311-5.2969-3.0464-.2621-.0272-.523-.0231-.7839-.0226l2.0477-6.2479 7.2513-14.1791c.3447-.6741.6364-1.374.8721-2.0935.5458-1.6653.7863-3.4156.7098-5.1665l-.4937-11.3038-7.0887 8.8186c-1.098 1.366-1.9401 2.919-2.4859 4.5844-.2358.7195-.4151 1.4562-.5363 2.2036l-2.548 15.7205-.2431.7418c-10.0532-5.3423-15.9673-16.1579-15.1374-27.3945-10.9061 1.14-20.6633 8.5073-24.2996 19.6022-3.6362 11.0949-.1324 22.8078 7.9832 30.1826 5.982-9.5481 17.1508-14.7654 28.4159-13.1208l-9.7887 29.8671c-2.0574-.4906-4.2783-.3947-6.4089.4046-5.6875 2.1343-8.5684 8.4756-6.4336 14.1636 1.4186 3.7799 2.9838 7.2523 4.6371 10.4678l-5.0304 15.3488-.8099-.2654c-.6125-.2007-1.2778.1362-1.4786.7486-.2007.6125.1362 1.2778.7487 1.4786l.0768.0252-2.1086 14.0782c-.0486.3245.144.6367.4558.7388.3118.1022.6518-.0355.8046-.3257l6.6335-12.5953.0768.0252c.6125.2007 1.2778-.1362 1.4786-.7487.2007-.6124-.1362-1.2778-.7486-1.4785l-.8099-.2654 3.7216-11.3552c12.9164 21.4415 29.4082 28.5829 30.2489 28.935 1.3594.5693 2.7988.8481 4.2324.8481 2.2461 0 4.4775-.6851 6.3652-2.0137.1025-.072 5.426-3.7693 14.2982-8.0237 5.9744-15.503 14.4901-25.1786 22.6354-31.2092zm-57.1991-38.5342c-.0029 0-.0059 0-.0088 0-.3477-.0005-.6953-.0347-1.0322-.1021-1.0789-.2144-2.1916-.1091-3.2098.2737l2.8801-8.7878c1.5864 2.3148 3.7832 4.0334 6.2596 5.0508-.6876 2.0622-2.6889 3.5654-4.8889 3.5654zm4.1758-8.2402c.494.6784.8011 1.4436.9255 2.2445-1.949-.9446-3.6526-2.4219-4.8597-4.363.0883.0045.1758-.0017.2642.0072 1.4649.1494 2.8028.9189 3.67 2.1113zm-38.4845 7.9724c-6.5574-7.0728-8.844-17.2292-5.808-26.4925 3.0363-9.2641 10.8914-16.0967 20.3624-17.9158.0064 1.363.1125 2.7083.2939 4.0338-7.776 1.767-14.1765 7.4894-16.6969 15.1796-2.5202 7.6897-.7488 16.0903 4.4731 22.1176-.9308.961-1.8125 1.9826-2.6245 3.0773z"></path><path d="m17.8302 208.6426c-3.0137 5.2749-1.1816 11.9941 4.0938 15.0083 5.46 3.1201 13.0596 4.4727 21.2646 4.4731 12.793.0005 27.0645-3.2871 37.0303-8.2915 1.5336-.7701 2.92-1.5639 4.1806-2.3727.313-10.688 2.9016-21.6093 7.4156-31.8109h3.3107c-4.8958 10.6331-7.7591 22.3781-7.7591 34 0 36.7539 28.5742 49.8055 59.8399 49.8055 31.2656 0 59.8398-13.0516 59.8398-49.8055 0-11.6219-2.8633-23.3669-7.7591-34h3.3105c4.514 10.2015 7.1027 21.1225 7.4156 31.8106 1.2607.8088 2.6472 1.6027 4.1809 2.3729 9.9658 5.0044 24.2373 8.292 37.0303 8.2915 8.2051-.0005 15.8047-1.353 21.2646-4.4731 2.5962-1.4833 4.3531-3.8657 5.1143-6.53-3.9296 1.1227-8.5087 1.6951-13.7316 1.6951-11.2119 0-19.4971-2.603-24.625-7.7373-2.3325-2.3356-3.6815-4.8389-4.4712-7.1235-8.4514-2.087-13.2957-4.936-14.7328-6.3819-2.7467-21.3951-9.4072-35.8311-17.032-45.5698 1.5876-.2468 2.5882-.4615 2.8156-.512.1537-.0343.2925-.0995.423-.1755 6.3096 8.4229 11.8728 19.9973 15.121 35.9055l1.3652-.8335c.4707-.2871 11.6504-7.1313 23.2393-15.8433 16.0859-12.0922 22.9376-20.281 25.9116-26.2238 2.0795 5.1981 3.0933 10.2931 3.0063 15.2409l2.2988.041c.1052-5.9272-1.2607-12.0273-4.0597-18.2343.4791-1.4084.7434-2.6737.8986-3.8282.6758-5.0317-.8203-9.7861-4.2119-13.3867-2.4421-2.5921-5.8436-3.7239-9.1323-3.3877-4.4585-8.6292-5.2444-15.3154-5.3186-18.5074.0836-.0229.1687-.038.2515-.0649.2412.5092.5953 1.0078 1.0676 1.4698 1.2061 1.1792 3.0498 2.0708 5.333 2.5786.8203.1826 1.6758.2588 2.5332.2588 4.2197 0 8.4785-1.8433 8.6924-1.9375l.749-.3291-.5391-.6157c-.1157-.1318-1.8744-2.1193-4.3589-3.8596 3.4738-3.3171 4.6182-9.7298 4.6675-10.0154l.1143-.666-.6758-.0347c-.1934-.0104-3.2322-.1451-6.4163.5864-.0376-4.5387-1.5223-8.8471-1.6121-9.1l-.2246-.6377-.6055.2988c-.2014.0989-3.0845 1.5455-5.8953 3.895-2.1302-3.7582-4.8931-6.585-5.0764-6.7705l-.4746-.481-.4219.5293c-.1621.2036-2.6073 3.3087-4.3245 7.2726-3.0454-2.0362-6.0664-3.1668-6.2771-3.2438l-.6348-.2324-.1553.6582c-.0614.2609-1.0779 4.7031-.6311 9.22-3.2428-.3874-6.2488.0705-6.4421.1013l-.667.106.1846.6504c.0789.2786 1.9005 6.5317 5.7083 9.4601-2.2848 1.9956-3.822 4.1599-3.9231 4.3036l-.4707.6694.7803.2471c.1924.061 3.4971 1.0894 7.0869 1.0894 1.4326 0 2.9102-.1636 4.2549-.6177 3.4182-1.1547 5.3359-2.9845 5.9376-4.7151.0488.0103.0978.0189.1469.0278.0643 3.4323.8752 10.191 5.2932 18.9081-1.4734.4889-2.8692 1.2874-4.074 2.4218-3.3633 3.1689-4.2891 7.9556-2.7051 12.0112-3.3486 5.2954-15.7539 15.6709-30.2119 25.4282-7.298-11.1976-17.1387-17.3087-25.4251-20.6448 2.6239 2.1419 5.2598 4.6776 7.812 7.6787-1.74-.3378-3.4283-.6994-5.0397-1.0947-3.4503-3.5367-6.9797-6.2517-10.3432-8.3371-.0206 1.7294-.056 3.4333-.1097 5.1056-1.2664-.4807-2.4873-.9749-3.65-1.4854 1.677-1.4652 3.2781-3.1298 4.9091-4.8321.3142-.3279.6306-.6573.9478-.9864 2.7305-2.8329 5.6033-5.6656 9.145-7.7553 7.2533-4.2808 11.8957-9.1857 14.1231-11.8824.1835.2065.3765.4081.5546.6173.5928.6973 1.4365 1.0557 2.2852 1.0557.6875 0 1.3789-.2349 1.9434-.7153 1.2617-1.0737 1.4141-2.9673.3398-4.229-6.3049-7.4079-15.4574-13.1423-21.4818-16.525-.301-.1949-.6018-.3885-.896-.5584-.5505-.3179-1.0455-.5806-1.5157-.8184.0468.0415.0933.0833.14.1253-.6319-.3407-1.1942-.6394-1.6908-.902.0558-.116.1046-.2359.1595-.3524.6776-1.4357 1.2936-2.9057 1.8378-4.4103.9692-2.6792 1.7101-5.4647 2.223-8.3289.2791-1.5585.488-3.1399.6222-4.7433.119-1.4213.1945-2.8549.1945-4.3065 0-1.4517-.0756-2.8854-.1945-4.3068-.1342-1.6034-.3431-3.1849-.6222-4.7433-.5129-2.8642-1.2539-5.6497-2.2231-8.3289-.5443-1.5046-1.1602-2.9745-1.8378-4.4102-1.2345-2.6157-2.6863-5.1074-4.3279-7.4589-.9109-1.3049-1.879-2.566-2.9043-3.7786-1.858-2.1974-3.8965-4.236-6.0939-6.0941-1.2126-1.0253-2.4737-1.9935-3.7786-2.9044-2.3515-1.6415-4.8431-3.0933-7.4588-4.3279-1.4357-.6776-2.9056-1.2936-4.4103-1.8379-2.6792-.9692-5.4647-1.7102-8.3289-2.2231-1.5585-.2791-3.1401-.488-4.7435-.6223-1.4214-.119-2.855-.1945-4.3067-.1945-1.4515 0-2.8851.0756-4.3065.1945-1.6035.1342-3.1851.3431-4.7436.6222-2.8641.5129-5.6496 1.2539-8.3288 2.2231-1.5046.5443-2.9745 1.1602-4.4103 1.8379-2.6156 1.2345-5.1073 2.6863-7.4588 4.3278-1.3049.911-2.566 1.8792-3.7787 2.9045-2.1974 1.858-4.2358 3.8965-6.0939 6.0939-1.0253 1.2126-1.9935 2.4738-2.9044 3.7787-1.6415 2.3515-3.0934 4.8432-4.3279 7.4589-.6776 1.4357-1.2935 2.9057-1.8378 4.4103-.9691 2.6792-1.7101 5.4647-2.2231 8.3289-.2791 1.5585-.488 3.14-.6223 4.7435-.119 1.4214-.1945 2.8551-.1945 4.3068 0 1.4515.0756 2.8851.1945 4.3064.1342 1.6035.3431 3.1851.6222 4.7435.5129 2.8642 1.2539 5.6496 2.2231 8.3288.5443 1.5046 1.1602 2.9746 1.8378 4.4103.0549.1165.1037.2363.1595.3522-.4965.2625-1.0585.561-1.6901.9016.0467-.0419.093-.0835.1397-.1249-.4703.2379-.9653.5006-1.5159.8185-.2935.1694-.5936.3626-.8938.557-6.0243 3.3826-15.1785 9.1175-21.4843 16.5264-1.0742 1.2617-.9219 3.1553.3398 4.229.5645.4805 1.2559.7153 1.9434.7153.8486 0 1.6924-.3584 2.2852-1.0557.1781-.2093.3712-.4108.5547-.6174 2.2275 2.6967 6.8704 7.6017 14.123 11.8826 3.5417 2.0898 6.4145 4.9225 9.1451 7.7554.3172.3291.6335.6583.9476.9863 2.3794 2.4835 4.6932 4.893 7.2775 6.7049.5782 16.3527 2.8177 29.9156 6.6913 40.383 5.9385 16.0493 15.2061 23.8511 28.3301 23.8511 11.1446 0 19.4985-5.649 25.4043-17.1736-.5667-.0219-1.1364-.039-1.7002-.0539l-.4385-.0122c-2.3135-.0635-4.9365-.1357-7.7129-.4707-3.5215-.4243-6.6035-1.2095-9.4209-2.4014-3.1816-1.3262-6.1963-3.3101-8.71-5.7334-1.2568-1.1514-2.2861-2.4067-3.3154-3.6963l-1.3857-1.9375c-.3203-.4707-.5684-.8931-.8174-1.3174-.1133-.1938-.2275-.3887-.3477-.5854l-1.2949-2.2031c-.3066-.52-.623-1.0571-.8896-1.7065-.1416-.3179-.3018-.6719-.4629-1.0259-.4453-.9824-.9062-1.9985-1.3115-3.0645-.0127-.0332-.0234-.0664-.0342-.1001l-.3291-1.0708c-.3447-1.1108-.7012-2.2593-.9727-3.4531l-.46-2.8213c-.1074-.6943-.2188-1.4116-.2148-2.1753l-.0293-.8521c-.0479-1.3018-.0967-2.6484.0537-3.9395l.1787-2.1992c.0029-.0347.0068-.0693.0117-.1035l.3184-2.0918c.3301-2.1001.7246-3.9312 1.1064-5.7017.1367-.6387.2715-1.2637.3984-1.8823.1003-.4648.1893-.9093.2768-1.3515-2.3828 2.1576-5.1071 3.9806-8.132 5.485-.0704-3.5941-1.7672-5.9646-2.908-7.1584 6.0704-4.5103 9.6163-8.9958 11.5508-12.0645-.3629-2.2319-.9556-4.6894-1.814-7.5166l2.8711-.8711c1.3984 4.6084 2.1396 8.3286 2.333 11.709.1914 3.7031-.1914 7.521-1.2422 12.3867-.126.6128-.2617 1.2476-.4014 1.8955-.373 1.73-.7588 3.5186-1.0742 5.5278l-.3086 2.0332-.1797 2.1992c-.1299 1.1152-.085 2.3452-.041 3.5347l.0303.9268c-.002.5742.0869 1.1455.1807 1.75l.4385 2.7065c.2275.9902.5518 2.0332.8945 3.1372l.3193 1.04c.3672.9614.7832 1.8774 1.2227 2.8457.1641.3623.3281.7241.4893 1.0879.2012.4893.4512.9131.7158 1.3618l1.2832 2.1831c.1172.1919.2402.4019.3633.6113.2158.3687.4307.7368.6904 1.1206l1.3174 1.8438c.9043 1.1299 1.8516 2.2866 2.9766 3.3174 2.2754 2.1934 4.9688 3.9663 7.8164 5.1538 2.5625 1.0835 5.3789 1.7983 8.6191 2.1885 2.6387.3184 5.0781.3853 7.4365.4502l.4375.0122c2.2881.0605 4.6895.1489 6.6758.4971 2.0029.3433 3.4199.9355 4.7305 1.9785 1.2324 1.0205 2.2764 2.6904 3.042 4.8472.4834 1.3774.8027 2.875 1.0469 4.3735 1.1279-.3374 2.4502-.3813 3.6562.3589.5811.3569 1.3604.4072 2.0098.354-.0322-2.0542-.1504-4.2168-.6182-6.4531-.7188-3.27-1.8838-5.7578-3.665-7.8145-1.8789-2.1768-4.8594-4.0063-7.9746-4.8955-2.7568-.8296-5.251-1.1919-7.6631-1.5425l-.4355-.063c-5.5439-.7324-9.5908-1.5488-12.5654-3.3442-1.5234-.8901-2.832-2.0283-3.9805-3.4683-.4902-.5586-.9141-1.2451-1.3242-1.9087l-.1846-.2979c-.0176-.0288-.0342-.0576-.0498-.0874l-.6211-1.1646c-.1582-.3071-.2988-.6401-.4375-.9741-.0684-.1626-.1357-.3257-.2051-.4805l-.7334-1.6851c-.1797-.3999-.3828-.8535-.4902-1.3564-.082-.2925-.1973-.665-.3115-1.0347-.1641-.5308-.3262-1.0576-.4531-1.5771-.0146-.0596-.0254-.1196-.0322-.1807-.0439-.3701-.1074-.7378-.1689-1.1025-.084-.4917-.165-.979-.2119-1.4609-.0039-.0425-.0059-.0854-.0068-.1279l-.0234-1.4707c-.0156-.354-.0361-.7939.0635-1.2891.0254-.1807.0479-.4331.0713-.6855.0527-.563.1123-1.2017.3125-1.9155l.2471-1.1938c.0078-.0381.0176-.0757.0283-.1133l.4111-1.4067c.4023-1.4102.9521-2.9912 1.5352-4.666l.6016-1.7378c1.9961-5.6768 3.1826-10.9683 3.5293-15.7402.2881-3.8687.1328-7.9712-.4756-12.5435l2.9746-.3955c.5158 3.8779.703 7.434.5992 10.8173 4.5394 6.4117 14.8943 16.7357 36.7026 22.3643-10.1114.6658-26.9611-.2185-38.2258-11.2028-.2602 1.0928-.5438 2.1974-.8698 3.3224.748.671 1.5141 1.3041 2.2966 1.9003-1.0986.5862-2.2283 1.0929-3.3826 1.5257-.1057.312-.2042.6208-.3146.9349l-.6025 1.7412c-.5684 1.6328-1.1045 3.1753-1.4863 4.5122l-.3975 1.3599-.2588 1.2334c-.1504.5503-.1904.9824-.2373 1.4824-.0283.3062-.0576.6113-.1045.9238-.04.21-.0312.4062-.0205.6338l.0254 1.5088c.041.3921.1094.7876.1768 1.187.0654.3818.1299.7671.1787 1.1553.1104.4355.2471.877.3848 1.3218.124.4019.249.8066.3594 1.2124.0605.2734.1895.5601.3135.8374l.7412 1.7021c.0732.1626.1504.3491.2285.5361.1074.2578.2129.5161.3262.7368l.751 1.3643c.3623.5864.7041 1.1406 1.0742 1.564.9688 1.2119 1.9756 2.0889 3.21 2.8105 2.5381 1.5317 6.4092 2.2866 11.4463 2.9517l.4531.0659c1.5479.2249 3.2406.4839 5.0292.8664 2.0159-7.3542 3.3851-15.9042 4.1007-25.5758 2.0519.285 4.0608.4624 5.9871.5546-.7424 10.1533-2.1716 19.0992-4.2761 26.7973 2.6043 1.1634 4.9408 2.8385 6.6357 4.8024 2.1191 2.4473 3.4961 5.3545 4.3291 9.1479.623 2.9834.6855 5.7432.6963 8.3154.0029.6543-.4189 1.2349-1.042 1.4346-.3223.1025-3.2139.9683-5.5498-.4658-.8711-.5366-2.3516.5229-2.3662.5342-.2656.2002-.5859.3037-.9092.3037-.1963 0-.3926-.0381-.5781-.1162-.4922-.207-.8418-.6567-.9102-1.186-.2598-1.9927-.584-4.0776-1.1973-5.8262-.5752-1.6187-1.3232-2.8691-2.1045-3.5171-.4627-.3677-.9594-.6483-1.5388-.8723-6.9177 14.7131-17.577 22.2947-31.7629 22.2947-26.3675 0-40.5593-26.1754-41.1495-75.7269-12.4667 7.7297-27.2294 24.1219-31.6868 58.8419-1.6689 1.6792-7.9199 5.2534-19.0967 7.3252-3.3798.6264-6.4391.9694-9.1607 1.1201-.6882-1.3981-1.8446-2.3652-2.8536-2.9109-.2299-.1243-.4536-.2313-.6602-.312-.1182-.0464-.2422-.0776-.3691-.0928-11.4756-1.3613-23.6768-5.7314-36.2646-12.9878-.6201-.3584-1.4053-.2275-1.8779.311-.4707.5386-.4961 1.3354-.0605 1.9028.3302.4286 5.0745 6.517 12.9112 12.8553.7624.6166 1.5547 1.2344 2.3745 1.8507-.5557.6012-1.0589 1.2663-1.4824 2.0075zm218.9876-102.9812c.6611-.8349 1.9169-2.2902 3.4807-3.6147 1.6465.9636 3.2915 1.4868 4.8113 1.4868.1738 0 .3457-.0063.5156-.0195 1.2194-.0936 2.2891-.5331 3.0645-1.2372.4246.0886.8466.1391 1.2588.1391.6152 0 1.2084-.1038 1.7627-.3016-.5491 1.3309-2.2246 2.8143-5.1309 3.7962-3.3916 1.1459-7.9189.2191-9.7627-.2491zm5.294-22.8823c1.082.4523 3.3525 1.4871 5.5758 3.0013-.7808 2.0656-1.3064 4.299-1.192 6.4421.1719 3.1973 1.0908 5.875 2.6582 7.7437.3955.4716.8304.8739 1.2878 1.2183-.8755.1002-1.8379-.0663-2.7869-.5044-1.2471-.5752-3.0674-1.8818-4.6631-4.8442-2.2812-4.236-1.2841-10.9133-.8798-13.0568zm25.6855 16.5351c-3.3838 2.7065-6.5615 2.4795-7.8301.8901-.2891-.361-.4717-.8042-.5681-1.2885.724-1.252 1.1963-2.7446 1.4039-4.4225.4419-.5546 1.0094-1.1388 1.7521-1.7324 2.8828-2.3066 8.0166-2.5312 9.8828-2.5322-.4111 1.8213-1.7578 6.7798-4.6406 9.0855zm-5.5176 5.7568c-2.6074-.5806-4.0244-1.5527-4.7529-2.2656-.3673-.3591-.63-.7368-.8103-1.1125.6638-.3825 1.2815-.8981 1.8237-1.5386.1335.2854.2939.5554.4895.8.8164 1.02 2.1387 1.6455 3.7461 1.6455 1.5767 0 3.4297-.6128 5.3486-2.033 1.6903 1.1483 3.0902 2.4569 3.8359 3.2146-1.7831.6627-6.1894 2.0645-9.6806 1.2896zm-.4746-13.2475c-.3121.2497-.5991.5082-.8744.7702.0026-.3742-.0052-.7547-.026-1.1423-.115-2.1429-.8759-4.3073-1.8726-6.2778 2.0491-1.7427 4.1962-3.014 5.2231-3.5792.4282 1.4172 1.3485 4.8827 1.3291 8.356-1.3666.4157-2.6987 1.009-3.7792 1.8731zm-2.0996-.3076c.1992 3.709-.7676 5.9897-1.6133 7.25-1.0078 1.5005-2.4248 2.4062-3.8887 2.4844-1.4736.0811-2.9697-.6714-4.1309-2.0557-.9756-1.1626-2.1797-3.3271-2.3779-7.0366-.2861-5.3535 3.9336-11.6118 5.3008-13.4888 1.5596 1.7207 6.4239 7.4927 6.71 12.8467zm-17.7705 4.8891c1.3877 2.5752 3.1914 4.4302 5.2168 5.3647.0389.0179.0782.0299.1172.0471-.4948.2734-1.0822.4504-1.7354.5007-1.083.0811-2.8203-.1187-5.0527-1.542-3.1123-1.9858-4.9795-6.7725-5.583-8.5396 1.1113-.1187 3.3949-.2795 5.7178.0346.238 1.4555.6443 2.8812 1.3193 4.1345zm-73.4429 35.8159c5.3854-7.138 8.7146-16.9673 8.7146-27.8215 0-21.8056-60-21.8056-60 0 0 10.8716 3.3394 20.7159 8.74 27.8567-1.8088 1.627-3.9352 3.3062-6.4726 4.9619-.0781.0508-.1504.1084-.2178.1729-.1096.1047-2.4349 2.4106-1.3323 6.4121-4.0431-1.2557-7.2466-4.5979-10.8494-8.3589-3.1592-3.2979-6.4258-6.7075-10.7344-9.2505-7.5576-4.46-12.1787-9.7324-13.9189-11.9429 3.0967-2.6411 12.4736-10.3931 19.7256-13.8179 3.4606-1.6347 7.8781-1.6574 11.8829-1.123.018.2774.0409.5496.0664.819-12.0856 1.4177-22.7571 9.6959-28.213 14.7025l1.5547 1.6943c5.2436-4.811 15.475-12.7672 26.9119-14.1105 1.6191-11.9141 17.7782-17.3698 32.8566-17.3698s31.2375 5.4557 32.8566 17.3697c11.4365 1.3429 21.6683 9.2993 26.912 14.1105l1.5547-1.6943c-5.456-5.0068-16.1277-13.285-28.2128-14.7026.0255-.2693.0484-.5415.0664-.8188 4.0046-.5341 8.4219-.5112 11.8828 1.1229 7.252 3.4248 16.6299 11.1768 19.7256 13.8179-1.7393 2.21-6.3604 7.4824-13.9189 11.9429-4.3086 2.543-7.5752 5.9526-10.7344 9.2505-1.9636 2.0499-3.809 3.9734-5.7359 5.5048-5.6103-2.7799-9.8968-5.841-13.1104-8.7279zm-18.142-30.1933.0127-.1147c.0371-.3242.0762-.6479.1553-.9648l1.2715-5.0825 1.9395.4854-1.2705 5.082c-.0576.231-.0811.4678-.1084.7051l-.0137.1216c-.3057 2.603-2.5107 4.5649-5.1299 4.5649-2.6201 0-4.8252-1.9619-5.1289-4.564l-.0176-.1475c-.0254-.2285-.0488-.457-.1055-.6807l-1.2695-5.0815 1.9395-.4854 1.2705 5.082c.0771.3086.1162.6226.1523.9375l.0166.1411c.1459 1.2484 1.0076 2.2463 2.1426 2.6261v-12.2037h2v12.2038c1.1349-.3797 1.9968-1.3775 2.1435-2.6247zm-29.0821 37.6016c.1088-.0714.2042-.1436.3116-.2151.7535.6768 2.7874 2.9067 2.3193 6.791-.0748.0298-.1445.0651-.2197.0945-.4033-.0078-1.6436-.2251-2.585-2.4673-1.0361-2.4722-.1035-3.8653.1738-4.2031zm59.2012-46.1617c.0216-9.4527-.4902-19.0096-10.4691-31.5764 1.6772-1.5178 2.2115-3.6912 1.1614-4.9752-1.0764-1.316-3.4009-1.1927-5.2442.2482-1.0003-1.0749-2.0704-2.1721-3.2125-3.2922 1.2606-1.9764 1.1584-4.3073-.2581-5.2519-1.3295-.8867-3.3368-.2277-4.6875 1.4453-1.3845-.7529-2.8547-1.3548-4.388-1.7805-.0061-5.2817-2.7635-9.5606-6.1646-9.5606s-6.1584 4.2789-6.1646 9.5606c-1.5333.4257-3.0036 1.0276-4.3881 1.7805-1.3507-1.673-3.358-2.332-4.6875-1.4453-1.4164.9446-1.5187 3.2755-.2581 5.2519-1.1422 1.1201-2.2122 2.2173-3.2125 3.2922-1.8433-1.4409-4.1678-1.5642-5.2441-.2482-1.0502 1.284-.5156 3.4573 1.1614 4.9752-9.979 12.5671-10.4907 22.1241-10.4691 31.577-1.3496-.116-2.5807-.1922-3.709-.2339-3.3618-6.0593-5.2833-13.0233-5.2833-20.4301 0-23.2993 18.9551-42.2549 42.2549-42.2549s42.2549 18.9556 42.2549 42.2549c0 7.4065-1.9213 14.3702-5.2829 20.4294-1.1285.0417-2.3597.1179-3.7094.234zm-14.2511-14.037c0 2.2003-1.7837 3.9839-3.9839 3.9839s-3.9839-1.7837-3.9839-3.9839c0-2.2003 1.7837-3.9839 3.9839-3.9839s3.9839 1.7836 3.9839 3.9839zm-19.0115-22.4312c8.0306 0 14.924 2.8264 17.9529 6.8678-4.5444-2.1502-10.9059-3.4887-17.9529-3.4887s-13.4085 1.3385-17.9529 3.4887c3.029-4.0414 9.9223-6.8678 17.9529-6.8678zm0 24.4129c-3.0325 0-5.4908-2.4583-5.4908-5.4908s2.4583-5.4908 5.4908-5.4908 5.4908 2.4583 5.4908 5.4908c.0001 3.0325-2.4582 5.4908-5.4908 5.4908zm-15.0275-5.9656c2.2003 0 3.9839 1.7836 3.9839 3.9839s-1.7836 3.9839-3.9839 3.9839-3.9839-1.7837-3.9839-3.9839c-.0001-2.2003 1.7836-3.9839 3.9839-3.9839zm-33.4654 5.7905c-.23-1.326-.4092-2.6685-.5305-4.0283-.1295-1.4523-.2072-2.9194-.2072-4.4048 0-1.4855.0778-2.9527.2073-4.4052.1213-1.3598.3004-2.7023.5304-4.0283.5086-2.9326 1.2644-5.7816 2.269-8.5131.4695-1.2767 1.0002-2.5233 1.5702-3.7482 1.2471-2.6802 2.7291-5.2277 4.4185-7.621.7814-1.1071 1.6011-2.1845 2.4689-3.2219 1.8875-2.2565 3.9723-4.3414 6.2288-6.2289 1.0374-.8678 2.115-1.6875 3.222-2.4689 2.3933-1.6893 4.9407-3.1713 7.6209-4.4185 1.2249-.5699 2.4715-1.1006 3.7482-1.5702 2.7316-1.0046 5.5805-1.7604 8.5131-2.269 1.326-.23 2.6685-.4092 4.0283-.5305 1.4523-.1295 2.9194-.2072 4.4048-.2072 1.4855 0 2.9526.0778 4.4051.2073 1.3597.1212 2.7023.3005 4.0283.5305 2.9326.5087 5.7815 1.2645 8.5131 2.2691 1.2767.4695 2.5233 1.0002 3.7482 1.5702 2.6802 1.2472 5.2276 2.7291 7.621 4.4185 1.107.7814 2.1846 1.6012 3.2219 2.4689 2.2565 1.8875 4.3413 3.9724 6.2288 6.2289.8677 1.0374 1.6874 2.1149 2.4689 3.2219 1.6893 2.3934 3.1712 4.9408 4.4184 7.621.5699 1.2248 1.1006 2.4714 1.5702 3.7481 1.0046 2.7316 1.7604 5.5805 2.269 8.5131.23 1.326.4091 2.6685.5304 4.0283.1295 1.4525.2073 2.9196.2073 4.4052 0 1.4854-.0778 2.9525-.2072 4.4048-.1212 1.3597-.3004 2.7022-.5304 4.0283-.5086 2.9326-1.2643 5.7816-2.2689 8.5131-.4695 1.2767-1.0002 2.5233-1.5702 3.7482-.0782.1682-.1496.3401-.2297.5072-1.0403-.5242-2.8632-.7928-5.4528-.8062-.2725-.0014-.5521-.0005-.8415.0038 3.2666-6.0811 5.1251-13.0264 5.1251-20.3992 0-23.8506-19.4043-43.2549-43.2549-43.2549s-43.2549 19.4043-43.2549 43.2549c0 7.373 1.8586 14.3186 5.1254 20.3999-.2892-.0043-.5686-.0052-.8409-.0038-2.5901.0133-4.4133.2819-5.4537.8055-.0801-.1671-.1514-.339-.2297-.5071-.5699-1.2249-1.1006-2.4715-1.5702-3.7482-1.0045-2.7318-1.7602-5.5807-2.2688-8.5133zm48.4929 168.2026c-2.1888 0-3.9633-1.6266-3.9633-3.6331s1.7745-3.633 3.9633-3.633c2.1889 0 3.9633 1.6265 3.9633 3.633s-1.7744 3.6331-3.9633 3.6331zm-105.5519-43.7842c.7139.3369 2.6865 1.5415 1.8496 4.2773-.9082 2.9678-3.9756 3.7065-4.9443 3.8682-11.415-3.9805-20.7822-11.812-26.4043-17.3823 10.1602 4.9868 20.0518 8.0859 29.499 9.2368z"></path><path d="m264.2949 187.2573c.0388.0001.0781.0003.1169.0004 1.116-1.1555 2.5984-1.9485 4.259-2.2.2482-.6061.3901-1.2673.3901-1.9628 0-2.8657-2.3231-5.1888-5.1888-5.1888s-5.1888 2.3231-5.1888 5.1888c0 .6636.1362 1.2927.3632 1.876 2.0585.0365 3.9146.9054 5.2484 2.2864z"></path><path d="m280.002 183.6771c.0219-.1935.0587-.3828.0587-.5822 0-2.8657-2.3232-5.1888-5.1888-5.1888-2.8657 0-5.1888 2.3231-5.1888 5.1888 0 .6658.1366 1.2972.365 1.8821 1.7397.0588 3.3306.7083 4.5747 1.7614 1.2385-1.701 3.1696-2.8636 5.3792-3.0613z"></path><path d="m254.0844 186.7384c1.0027-.8488 2.2309-1.4337 3.5808-1.6616.2529-.6111.396-1.2794.396-1.9819 0-2.8657-2.3231-5.1888-5.1888-5.1888s-5.1888 2.3231-5.1888 5.1888c0 .1929.0363.3755.0568.5629.098-.0038.1941-.0148.293-.0148 2.4868 0 4.6882 1.2237 6.051 3.0954z"></path><path d="m288.033 192.4872c-.1401.7621-.3927 1.4847-.7455 2.1478 1.3223.4899 2.0742.9669 2.1842 1.3552-.4121 1.4512-9.5137 4.1343-25.5996 4.1343-16.1377 0-25.2461-2.7007-25.6035-4.1201.1149-.4657 1.1465-1.0607 3.0138-1.6539-.326-.6808-.5515-1.4167-.6584-2.1917-2.822.9431-4.6542 2.1924-4.6542 3.8314 0 .1128.0186.2212.0361.3306-.0176.1089-.0361.2173-.0361.3301v.103c-.002 1.9243-.0088 7.7798 4.9043 12.6992 4.6807 4.6865 12.4189 7.063 22.998 7.063s18.3164-2.3765 22.998-7.063c4.9131-4.9199 4.9062-10.7754 4.9043-12.6992v-.103c0-.1128-.0186-.2212-.0361-.3301.0176-.1094.0361-.2178.0361-.3306.0001-1.4551-1.4437-2.6034-3.7414-3.503z"></path><circle cx="248.033" cy="191.132" r="5.189"></circle><circle cx="269.794" cy="192.453" r="5.189"></circle><path d="m275.4852 191.1316c0 2.8657 2.3231 5.1888 5.1888 5.1888s5.1887-2.3231 5.1887-5.1888-2.323-5.1888-5.1887-5.1888-5.1888 2.3231-5.1888 5.1888z"></path><circle cx="258.914" cy="192.453" r="5.189"></circle><path d="m151.2309 19.9972c.0291-.5262.0491-1.0862.0491-1.7219 0-6.9923-4.0734-18.2753-4.0734-18.2753s-4.0734 11.283-4.0734 18.2753c0 .6356.02 1.1955.0491 1.7216 1.0803-5.2869 4.0243-11.3435 4.0243-11.3435s2.9441 6.0568 4.0243 11.3438z"></path><path d="m130.6033 10.8392s4.4113 5.0883 6.8231 9.9156c-.1081-.5157-.2337-1.0618-.3982-1.6758-1.8098-6.754-8.6646-16.5982-8.6646-16.5982s-1.0143 11.9528.7953 18.7068c.1641.6123.3279 1.1467.4917 1.6463-.3238-5.3855.9527-11.9947.9527-11.9947z"></path><path d="m124.2885 25.0598c-.2379-.4702-.5005-.9652-.8184-1.5157-3.4962-6.0555-12.6653-13.7902-12.6653-13.7902s2.1138 11.8081 5.6099 17.8635c.317.5491.6136 1.0229.9012 1.4632-1.7067-5.1182-2.1844-11.8326-2.1844-11.8326s5.578 3.7732 9.157 7.8118z"></path><path d="m112.7122 32.6181c-.3514-.3926-.7332-.8027-1.1827-1.2521-4.9443-4.9443-15.8029-10.0422-15.8029-10.0422s5.098 10.8586 10.0422 15.8029c.4495.4495.8597.8315 1.2524 1.183-2.9746-4.5023-5.1757-10.867-5.1757-10.867s6.3644 2.2009 10.8667 5.1754z"></path><path d="m91.6508 40.7286s6.7142.4777 11.8325 2.1843c-.4402-.2875-.9139-.5841-1.463-.9011-6.0555-3.4961-17.8635-5.6099-17.8635-5.6099s7.7347 9.1691 13.7901 12.6653c.5506.3179 1.0456.5806 1.5159.8185-4.0387-3.579-7.812-9.1571-7.812-9.1571z"></path><path d="m97.2366 55.2478c-.4996-.1638-1.034-.3276-1.6462-.4916-6.754-1.8098-18.7068-.7954-18.7068-.7954s9.8442 6.8549 16.5983 8.6646c.614.1645 1.1601.2901 1.6758.3982-4.8272-2.4118-9.9156-6.8231-9.9156-6.8231s6.6091-1.2765 11.9945-.9527z"></path><path d="m197.1764 90.3596c.4996.1638 1.0341.3277 1.6464.4918 6.754 1.8098 18.7068.7954 18.7068.7954s-9.8442-6.8549-16.5982-8.6646c-.614-.1645-1.1601-.2901-1.6758-.3982 4.8273 2.4118 9.9156 6.8231 9.9156 6.8231s-6.6092 1.2764-11.9948.9525z"></path><path d="m94.4 68.7795c-.5262-.0291-1.0862-.0491-1.7219-.0491-6.9922 0-18.2752 4.0734-18.2752 4.0734s11.283 4.0734 18.2752 4.0734c.6356 0 1.1956-.02 1.7217-.0491-5.2869-1.0803-11.3436-4.0243-11.3436-4.0243s6.0568-2.9441 11.3438-4.0243z"></path><path d="m200.0135 76.8281c.5261.0291 1.086.0491 1.7216.0491 6.9922 0 18.2753-4.0734 18.2753-4.0734s-11.2831-4.0734-18.2753-4.0734c-.6357 0-1.1957.02-1.7219.0491 5.287 1.0803 11.3438 4.0243 11.3438 4.0243s-6.0566 2.944-11.3435 4.0243z"></path><path d="m85.2421 89.4071s5.0884-4.4113 9.9156-6.8231c-.5157.1081-1.0618.2337-1.6758.3982-6.754 1.8098-16.5983 8.6646-16.5983 8.6646s11.9528 1.0143 18.7068-.7954c.6124-.1641 1.1468-.3279 1.6464-.4917-5.3854.3239-11.9947-.9526-11.9947-.9526z"></path><path d="m209.1712 56.2004s-5.0883 4.4113-9.9156 6.8231c.5157-.1081 1.0618-.2337 1.6758-.3982 6.754-1.8098 16.5982-8.6646 16.5982-8.6646s-11.9528-1.0143-18.7068.7954c-.6122.1641-1.1467.3278-1.6462.4916 5.3855-.3237 11.9946.9527 11.9946.9527z"></path><path d="m194.9506 49.8856c.4702-.2379.9652-.5005 1.5157-.8184 6.0555-3.4962 13.7902-12.6653 13.7902-12.6653s-11.8081 2.1138-17.8635 5.6099c-.549.317-1.0228.6135-1.463.9011 5.1181-1.7067 11.8325-2.1843 11.8325-2.1843s-3.7733 5.578-7.8119 9.157z"></path><path d="m187.3922 38.3094c.3926-.3515.8027-.7333 1.2522-1.1828 4.9443-4.9442 10.0422-15.8029 10.0422-15.8029s-10.8586 5.098-15.8029 10.0422c-.4495.4495-.8313.8596-1.1828 1.2522 4.5023-2.9746 10.8668-5.1756 10.8668-5.1756s-2.2009 6.3646-5.1755 10.8669z"></path><path d="m179.2818 17.2479s-.4777 6.7144-2.1843 11.8325c.2875-.4402.5841-.914.9011-1.463 3.4961-6.0554 5.6099-17.8635 5.6099-17.8635s-9.1691 7.7347-12.6652 13.7902c-.3178.5505-.5805 1.0454-.8184 1.5156 3.579-4.0386 9.1569-7.8118 9.1569-7.8118z"></path><path d="m164.7626 22.8338c.1638-.4996.3276-1.034.4916-1.6462 1.8098-6.754.7954-18.7068.7954-18.7068s-6.8549 9.8442-8.6646 16.5982c-.1645.614-.2901 1.1601-.3982 1.6758 2.4118-4.8273 6.8231-9.9156 6.8231-9.9156s1.2765 6.6092.9527 11.9946z"></path><path d="m114.2381 106.005c-.0118-.4078-.0214-.8164-.0242-1.2271-10.0405 2.5985-18.6772 9.3821-23.3902 13.7062l.8105.8838c4.5797-4.2017 12.9319-10.7804 22.6039-13.3629z"></path><path d="m180.199 104.7779c-.0028.4107-.0123.8192-.0242 1.2271 9.6721 2.5825 18.0242 9.1612 22.6039 13.363l.8105-.8838c-4.713-4.3242-13.3498-11.1078-23.3902-13.7063z"></path><path d="m147.207 78.4133c1.374 0 2.492-1.118 2.492-2.492s-1.118-2.4919-2.492-2.4919c-1.3739 0-2.4919 1.118-2.4919 2.4919s1.118 2.492 2.4919 2.492z"></path><path d="m132.1795 81.2385c.9969 0 1.808-.8112 1.808-1.808s-.8112-1.8081-1.808-1.8081c-.9969 0-1.8081.8112-1.8081 1.8081s.8111 1.808 1.8081 1.808z"></path><path d="m162.2345 77.6224c-.9969 0-1.808.8112-1.808 1.8081s.8112 1.808 1.808 1.808c.9969 0 1.8081-.8112 1.8081-1.808s-.8112-1.8081-1.8081-1.8081z"></path></g></svg>