<!-- icon666.com - MILLIONS OF FREE VECTOR ICONS --><svg id="Capa_1" enable-background="new 0 0 512 512" viewBox="0 0 512 512" xmlns="http://www.w3.org/2000/svg"><g id="XMLID_308_"><path id="XMLID_77_" d="m69.667 351.96h372.666v105.66h-372.666z" fill="#5b5555"></path><path id="XMLID_3423_" d="m256 351.96h186.333v105.66h-186.333z" fill="#463f3f"></path><path id="XMLID_279_" d="m404.182 300.583c11.131-14.067 17.776-31.846 17.776-51.178 0-45.587-82.543-129.372-82.543-129.372s-6.7 6.803-16.278 17.578c-23.885-41.54-67.137-85.447-67.137-85.447s-43.252 43.907-67.137 85.446c-9.577-10.775-16.278-17.578-16.278-17.578s-82.543 83.785-82.543 129.372c0 19.33 6.644 37.107 17.773 51.174z" fill="#ffe666"></path><path id="XMLID_3424_" d="m339.415 120.033s-6.7 6.803-16.278 17.578c-23.885-41.54-67.137-85.447-67.137-85.447v248.417l148.182.002c11.131-14.067 17.776-31.846 17.776-51.178 0-45.587-82.543-129.372-82.543-129.372z" fill="#ffc34d"></path><path id="XMLID_350_" d="m225.396 300.582c-12.669-9.379-20.883-24.434-20.883-41.408 0-28.435 51.487-85.66 51.487-85.66s51.487 57.225 51.487 85.66c0 16.977-8.217 32.034-20.89 41.413z" fill="#ffc34d"></path><path id="XMLID_3426_" d="m256 173.514v127.071l30.597.003c12.673-9.379 20.89-24.437 20.89-41.413 0-28.436-51.487-85.661-51.487-85.661z" fill="#f93"></path><path id="XMLID_74_" d="m256 369.054h-215.414v-71.474h430.828z" fill="#766e6e"></path><path id="XMLID_76_" d="m471.414 512h-430.828v-71.473h215.414z" fill="#766e6e"></path><path id="XMLID_3420_" d="m179.829 53.394h-30v-7.312c0-8.868-7.215-16.082-16.083-16.082v-30c25.41 0 46.083 20.672 46.083 46.082z" fill="#ffc34d"></path><path id="XMLID_3422_" d="m362.171 53.394h-30v-7.312c0-25.41 20.672-46.082 46.082-46.082v30c-8.868 0-16.082 7.214-16.082 16.082z" fill="#f93"></path><path id="XMLID_3419_" d="m93.989 146.01h-30v-7.311c0-8.868-7.214-16.083-16.082-16.083v-30c25.41 0 46.082 20.672 46.082 46.083z" fill="#ffc34d"></path><path id="XMLID_3421_" d="m448.01 146.01h-30v-7.311c0-25.41 20.673-46.083 46.083-46.083v30c-8.868 0-16.083 7.214-16.083 16.083z" fill="#f93"></path><g fill="#5b5555"><path id="XMLID_3430_" d="m256 440.527h215.414v71.473h-215.414z"></path><path id="XMLID_3432_" d="m256 297.58h215.414v71.473h-215.414z"></path></g></g></svg>