<!-- icon666.com - MILLIONS vector ICONS FREE --><svg id="Capa_1" enable-background="new 0 0 512 512" viewBox="0 0 512 512" xmlns="http://www.w3.org/2000/svg"><g><path d="m512 256c0 9.94-.57 19.75-1.67 29.39-5.34 46.68-23.23 89.55-50.23 125.14-1.3 1.71-48.234-12.697-49.585-11.017-14.13 17.73 15.015 49.627-3.286 63.047-12.47 9.15-25.8 17.19-39.84 23.99-6.25 3.031-23.845-3.428-30.366-.909-6.971 2.693-2.885 14.327-10.134 16.409-22.51 6.48-46.3 9.95-70.89 9.95-27.32 0-53.64-4.28-78.32-12.21-13.97-4.48-27.41-10.13-40.22-16.83-4.43-2.33-8.79-4.78-13.07-7.35-2.2-1.32-4.37-2.67-6.52-4.06-15.58-9.99-29.99-21.63-43.01-34.67-9.89-9.89-18.97-20.6-27.14-32-5.02-7.02-9.7-14.29-14-21.81-10.27-17.92-18.43-37.19-24.15-57.49-1.9-6.76 8.57-11.77 7.22-18.74-1.3-6.74-6.33-13.25-7.1-20.17-.85-7.7-9.49-17.72-9.64-25.61-.029-1.68-.049-3.37-.049-5.06 0-2.32.03-4.63.09-6.93.11-3.79.29-7.56.56-11.3 9.34-132.87 120.1-237.77 255.35-237.77 135.42 0 246.29 105.16 255.39 238.27.25 3.51.42 7.03.5 10.58.03.77.05 1.54.06 2.32v.01c.04 1.6.05 3.21.05 4.82z" fill="#381a5e" style="fill: rgb(238, 224, 255);"></path><g><path d="m66.376 380.506c31.009 3.954 99.047 12.971 99.047 12.971l-10.656 48.364" fill="#6857a3"></path><path d="m406.839 380.506c-31.009 3.954-99.047 12.971-99.047 12.971l10.656 48.364" fill="#6857a3"></path><path d="m305.124 74.286v56.654c0 19.819-7.24 38.383-19.624 52.717-8.837 10.251-20.295 18.332-33.605 23.147l-13.018 4.705-1.865.67-19.953 7.228-95.597 59.421-.804-3.913c-1.439-7.081-2.145-14.224-2.145-21.318 0-25.292 8.959-50.035 25.694-69.598 16.589-19.393 25.694-44.075 25.694-69.586v-40.127c0-18.673 7.569-35.579 19.807-47.805 12.225-12.237 29.131-19.807 47.805-19.807 4.4 0 8.703.415 12.859 1.231 31.191 5.998 54.752 33.435 54.752 66.381z" fill="#6857a3"></path><path d="m285.5 183.657c-8.837 10.251-20.295 18.332-33.605 23.147l-13.018 4.705-1.865.67v-87.955l30.801 3.242c-3.473 17.381-9.336 47.854 17.687 56.191z" fill="#594b94"></path><path d="m229.907 158.804c7.399 16.162 9.483 34.921 8.971 52.705l-21.818 7.898-95.597 59.421-.804-3.913c-1.439-7.081-2.145-14.224-2.145-21.318 0-25.292 8.959-50.035 25.694-69.598 16.589-19.393 25.694-44.075 25.694-69.586v-40.127c0-18.673 7.569-35.579 19.807-47.805 12.225-12.237 29.131-19.807 47.805-19.807 4.4 0 8.703.415 12.859 1.231-41.736.001-42.455 102.911-20.466 150.899z" fill="#594b94"></path><path d="m276.49 205.41c-21.2-15.55-22.419-36.434-23.116-46.601h-32.843c-.697 10.167-1.916 31.051-23.116 46.601" fill="#7b66b7"></path><path d="m229.905 158.809c-.293 10.178-.817 31.057-9.91 46.61h-22.586c21.209-15.553 22.428-36.433 23.122-46.61z" fill="#6857a3"></path><path d="m288.972 72.54v8.715c0 32.413-12.043 63.673-33.785 87.72-4.727 5.232-11.201 7.834-17.676 7.834s-12.95-2.603-17.676-7.834c-10.865-12.017-19.321-25.847-25.045-40.727-2.007-5.192-3.678-10.515-4.986-15.928 50.957-18.842 59.568-73.774 60.992-89.521 8.884 2.357 16.796 7.032 23.102 13.338 9.312 9.326 15.074 22.198 15.074 36.403z" fill="#7b66b7"></path><path d="m237.511 176.81c-6.475 0-12.937-2.616-17.676-7.834-10.878-12.03-19.321-25.847-25.045-40.727-1.994-5.192-3.665-10.515-4.986-15.941 12.768-4.701 22.869-11.681 30.872-19.761.35 12.289 1.269 24.306 2.72 35.702 1.891 14.879 4.675 28.696 8.275 40.727 1.566 5.219 3.703 7.834 5.84 7.834z" fill="#6857a3"></path><path d="m351.722 444.676h-230.223l11.055-17.869 18.137-29.314c15.163-24.512 21.233-53.57 17.15-82.104l-5.814-40.601-5.266-36.835h159.699l-11.08 77.436c-4.083 28.534 1.987 57.592 17.15 82.104z" fill="#7b66b7"></path><path d="m287.275 422.785c-49.007 4.295-74.783-3.858-85.55-15.157-5.041-5.29-6.774-12.84-5.266-19.99.129-.611.248-1.224.356-1.838.007-.019.013-.038.02-.057l-.01.001c2.134-12.125.409-25.031-3.517-38.486 11.046-21.848 65.984-8.158 63.161-25.804-2.26-14.123-37.382-10.227-61.643-14.35-13.75-2.337-23.575-14.63-22.809-28.556 1.003-18.221 7.229-36.483 7.426-37.315l-17.418 33.556 5.814 40.601c4.083 28.534-1.987 57.592-17.15 82.104l-18.137 29.314c4.956 3.334 10.296 5.447 15.966 5.783l-1.084 1.949 155.647 14.997c.002-.001 62.828-33.643-15.806-26.752z" fill="#6857a3"></path><path d="m265.183 449.875-198.807-69.369c-23.749-8.287-49.258 6.72-53.552 31.503-3.841 22.165 11.014 43.247 33.179 47.088l172.68 29.922z" fill="#7b66b7"></path><path d="m367.39 486.55c-12.93 6.27-26.47 11.47-40.5 15.5l-44.94-3.23c-7.65-.55-15.27-1.48-22.82-2.79l-141.26-24.48-71.87-12.45c-19.81-3.44-33.78-20.64-33.78-40.09 0-2.31.2-4.65.6-7 2.25-12.98 10.31-23.27 20.9-28.94 5.15-2.77 10.9-4.43 16.87-4.78-1.44 3.14-2.52 6.53-3.14 10.14-.45 2.53-.65 5.04-.65 7.53 0 3.04.32 6.02.92 8.92 2.99 14.33 13.05 26.56 27.14 32 1.65.65 3.37 1.19 5.13 1.64l182.88 46.12 2.31-34.77 8.69-6.85c9.47-7.48 23.31-5.15 29.82 5l10.97 17.12 34.13 10.46c7.08 2.16 13.43 5.95 18.6 10.95z" fill="#6857a3"></path><g><path d="m460.1 410.53c-15 19.8-32.83 37.34-52.87 52.03l-188.64 32.69c-10.56 1.83-21.18 3.12-31.86 3.89l-9.05.65-59.61 4.29-11.308.816c-6.236.45-10.279-6.557-6.675-11.667 5.852-8.298 14.345-14.562 24.303-17.619.01 0 .03-.01.04-.01l34.13-10.46 10.97-17.12c6.51-10.15 20.36-12.47 29.81-5.01l8.69 6.86 198.81-69.37c23.27-8.11 48.23 6.12 53.26 30.03z" fill="#7b66b7"></path><path d="m460.1 410.53c-1.3 1.71-2.62 3.41-3.97 5.09-9.13-10.77-23.98-15.82-38.42-11.81-72.06 20-232.57 64.42-254.94 69.64-10.65 2.49-18.8 5.57-25.31 9.51-8.73 5.27-14.5 12.09-19.39 21.12l-11.308.816c-6.236.45-10.279-6.557-6.675-11.667 5.852-8.298 14.345-14.562 24.303-17.619.01 0 .03-.01.04-.01l34.13-10.46 10.97-17.12c6.51-10.15 20.36-12.47 29.81-5.01l8.69 6.86 198.81-69.37c23.27-8.11 48.23 6.12 53.26 30.03z" fill="#6857a3"></path></g><path d="m511.95 251.17v.01c-.11.98-.37 1.95-.81 2.88l-20.34 43.51c-4.01 8.57-10.29 15.89-18.15 21.16l-50.46 33.82-25.88 17.34c-14.32 9.61-33.7 5.74-43.26-8.59l-42.2-63.3-13.44-20.16h-122.82l-55.64 83.46c-9.55 14.33-28.93 18.2-43.26 8.59l-66.12-44.31c-3.74-13.28-6.44-27.01-8-41.08 0-.02 0-.03-.01-.05-.85-7.7-1.36-15.5-1.51-23.39 7.07 1.78 12.91 7.06 15.24 14.21l3.63 11.11 71.77 38.89 37.67-93.27c4.16-10.3 10.86-19.14 19.27-25.84 8.41-6.69 18.52-11.27 29.49-13.02 12.02-1.93 24.13-3.17 36.28-3.72 4.98-.24 9.96-.35 14.93-.35h15.34c8.57 0 17.15.34 25.69 1.02 8.55.67 17.05 1.7 25.53 3.05 21.94 3.51 40.44 18.26 48.75 38.86l37.68 93.27 71.76-38.89 3.64-11.11c2.89-8.86 11.16-14.86 20.49-14.86h8.68l8.98-14.74c2.74-4.48 8.73-6.04 13.08-3.09 2.23 1.51 3.59 3.82 3.94 6.27.12.76.14 1.54.06 2.32z" fill="#7b66b7"></path><g fill="#6857a3"><path d="m118.86 361.43c-9.59 14.22-28.9 18.02-43.17 8.46l-66.12-44.31c-1.9-6.76-3.54-13.63-4.89-20.6 1.65 1.44 3.39 2.77 5.22 4l76.33 51.17c10.11 6.77 22.72 6.85 32.63 1.28z" fill="#6857a3"></path><path d="m213.427 189.434c-36.311 3.705-78.959 55.167-106.933 146.364l-15.809-10.531 37.676-93.269c4.157-10.3 10.86-19.136 19.271-25.84 8.41-6.692 18.515-11.262 29.485-13.018 12.018-1.926 24.134-3.169 36.286-3.718z" fill="#6857a3"></path><path d="m422.186 352.546-25.877 17.345c-14.322 9.605-33.702 5.741-43.258-8.593l-44.48-66.702 6.411-30.289 53.902 79.805c11.092 16.431 33.215 21.087 49.999 10.519z" fill="#6857a3"></path><path d="m464.81 292.028-77.216 47.427-6.278-14.188 71.768-38.882 3.632-11.116c2.889-8.861 11.165-14.858 20.489-14.858h8.679c-25.254 6.349-21.074 31.617-21.074 31.617z" fill="#6857a3"></path><ellipse cx="236.611" cy="376.503" rx="5.748" ry="12.574" fill="#6857a3"></ellipse><g><ellipse cx="200.256" cy="208.267" rx="5.748" ry="25.866" transform="matrix(.291 -.957 .957 .291 -57.327 339.143)" fill="#000000"></ellipse><ellipse cx="271.746" cy="208.267" rx="25.866" ry="5.748" transform="matrix(.957 -.291 .291 .957 -48.896 88.226)" fill="#000000"></ellipse></g><path d="m237.496 262.251c-2.435-4.176-5.689-8.201-8.769-7.061-5.986 2.217 2.66 25.495 11.706 25.495 7.981 2.697 11.306-31.924 11.306-31.924-7.47 0-12.172 6.402-14.243 13.49z" fill="#6857a3"></path></g></g><g><g><path d="m258.172 40.877-4.049-2.338 4.049-2.338c4.334-2.502 5.819-8.044 3.317-12.377-2.502-4.334-8.044-5.819-12.377-3.316l-4.049 2.338v-4.675c0-5.004-4.057-9.061-9.061-9.061-5.004 0-9.061 4.057-9.061 9.061v4.675l-4.049-2.338c-4.334-2.502-9.875-1.017-12.377 3.316-2.502 4.334-1.017 9.875 3.316 12.377l4.049 2.338-4.049 2.338c-4.334 2.502-5.818 8.044-3.316 12.377 2.502 4.334 8.044 5.818 12.377 3.316l4.049-2.338v4.675c0 5.004 4.057 9.061 9.061 9.061 5.004 0 9.061-4.057 9.061-9.061v-4.675l4.049 2.338c4.334 2.502 9.875 1.017 12.377-3.316 2.501-4.333 1.016-9.875-3.317-12.377z" fill="#cc7afa"></path><circle cx="236.001" cy="38.54" fill="#a633df" r="19.454"></circle></g><g><path d="m258.172 110.274-4.049-2.338 4.049-2.338c4.334-2.502 5.819-8.044 3.317-12.377-2.502-4.334-8.044-5.819-12.377-3.316l-4.049 2.338v-4.675c0-5.004-4.057-9.061-9.061-9.061-5.004 0-9.061 4.057-9.061 9.061v4.675l-4.049-2.338c-4.334-2.502-9.875-1.017-12.377 3.316-2.502 4.334-1.017 9.875 3.316 12.377l4.049 2.338-4.049 2.338c-4.334 2.502-5.818 8.044-3.316 12.377 2.502 4.334 8.044 5.818 12.377 3.316l4.049-2.338v4.675c0 5.004 4.057 9.061 9.061 9.061 5.004 0 9.061-4.057 9.061-9.061v-4.675l4.049 2.338c4.334 2.502 9.875 1.017 12.377-3.316 2.501-4.333 1.016-9.875-3.317-12.377z" fill="#577dfa"></path><circle cx="236.001" cy="107.936" fill="#4169d3" r="19.454"></circle></g><g><path d="m258.172 179.671-4.049-2.338 4.049-2.338c4.334-2.502 5.819-8.044 3.317-12.377-2.502-4.334-8.044-5.819-12.377-3.316l-4.049 2.338v-4.675c0-5.004-4.057-9.061-9.061-9.061-5.004 0-9.061 4.057-9.061 9.061v4.675l-4.049-2.338c-4.334-2.502-9.875-1.017-12.377 3.316-2.502 4.334-1.017 9.875 3.316 12.377l4.049 2.338-4.049 2.338c-4.334 2.502-5.818 8.044-3.316 12.377 2.502 4.334 8.044 5.818 12.377 3.316l4.049-2.338v4.675c0 5.004 4.057 9.061 9.061 9.061 5.004 0 9.061-4.057 9.061-9.061v-4.675l4.049 2.338c4.334 2.502 9.875 1.017 12.377-3.316 2.501-4.334 1.016-9.875-3.317-12.377z" fill="#9df2f6"></path><circle cx="236.001" cy="177.333" fill="#72bab3" r="19.454"></circle></g><g><path d="m258.172 249.067-4.049-2.338 4.049-2.338c4.334-2.502 5.819-8.044 3.317-12.377-2.502-4.334-8.044-5.819-12.377-3.316l-4.049 2.338v-4.675c0-5.004-4.057-9.061-9.061-9.061-5.004 0-9.061 4.057-9.061 9.061v4.675l-4.049-2.338c-4.334-2.502-9.875-1.017-12.377 3.316-2.502 4.334-1.017 9.875 3.316 12.377l4.049 2.338-4.049 2.338c-4.334 2.502-5.818 8.044-3.316 12.377 2.502 4.334 8.044 5.818 12.377 3.316l4.049-2.338v4.675c0 5.004 4.057 9.061 9.061 9.061 5.004 0 9.061-4.057 9.061-9.061v-4.675l4.049 2.338c4.334 2.502 9.875 1.017 12.377-3.316 2.501-4.333 1.016-9.874-3.317-12.377z" fill="#81e0b4"></path><circle cx="236.001" cy="246.73" fill="#69b888" r="19.454"></circle></g><g><path d="m258.172 318.464-4.049-2.338 4.049-2.338c4.334-2.502 5.819-8.044 3.317-12.377-2.502-4.334-8.044-5.819-12.377-3.316l-4.049 2.338v-4.675c0-5.004-4.057-9.061-9.061-9.061-5.004 0-9.061 4.057-9.061 9.061v4.675l-4.049-2.338c-4.334-2.502-9.875-1.017-12.377 3.316-2.502 4.334-1.017 9.875 3.316 12.377l4.049 2.338-4.049 2.338c-4.334 2.502-5.818 8.044-3.316 12.377 2.502 4.334 8.044 5.818 12.377 3.316l4.049-2.338v4.675c0 5.004 4.057 9.061 9.061 9.061 5.004 0 9.061-4.057 9.061-9.061v-4.675l4.049 2.338c4.334 2.502 9.875 1.017 12.377-3.316 2.501-4.333 1.016-9.875-3.317-12.377z" fill="#f6e06e"></path><circle cx="236.001" cy="316.126" fill="#f0c66c" r="19.454"></circle></g><g><path d="m258.172 387.861-4.049-2.338 4.049-2.338c4.334-2.502 5.819-8.044 3.317-12.377-2.502-4.334-8.044-5.819-12.377-3.316l-4.049 2.338v-4.675c0-5.004-4.057-9.061-9.061-9.061-5.004 0-9.061 4.057-9.061 9.061v4.675l-4.049-2.338c-4.334-2.502-9.875-1.017-12.377 3.316-2.502 4.334-1.017 9.875 3.316 12.377l4.049 2.338-4.049 2.338c-4.334 2.502-5.818 8.044-3.316 12.377 2.502 4.334 8.044 5.818 12.377 3.316l4.049-2.338v4.675c0 5.004 4.057 9.061 9.061 9.061 5.004 0 9.061-4.057 9.061-9.061v-4.675l4.049 2.338c4.334 2.502 9.875 1.017 12.377-3.316 2.501-4.334 1.016-9.875-3.317-12.377z" fill="#df622d" style="fill: rgb(251, 239, 234);"></path><circle cx="236.001" cy="385.523" fill="#cd4d1f" r="19.454"></circle></g><g><path d="m258.172 457.257-4.049-2.338 4.049-2.338c4.334-2.502 5.819-8.044 3.317-12.377-2.502-4.334-8.044-5.819-12.377-3.316l-4.049 2.338v-4.675c0-5.004-4.057-9.061-9.061-9.061-5.004 0-9.061 4.057-9.061 9.061v4.675l-4.049-2.338c-4.334-2.502-9.875-1.017-12.377 3.316-2.502 4.334-1.017 9.875 3.316 12.377l4.049 2.338-4.049 2.338c-4.334 2.502-5.818 8.044-3.316 12.377 2.502 4.334 8.044 5.818 12.377 3.316l4.049-2.338v4.675c0 5.004 4.057 9.061 9.061 9.061 5.004 0 9.061-4.057 9.061-9.061v-4.675l4.049 2.338c4.334 2.502 9.875 1.017 12.377-3.316 2.501-4.333 1.016-9.874-3.317-12.377z" fill="#dc4040"></path><circle cx="236.001" cy="454.92" fill="#cc2525" r="19.454"></circle></g></g></g></svg>