<!-- icon666.com - MILLIONS OF FREE VECTOR ICONS --><svg id="Capa_1" enable-background="new 0 0 512 512" viewBox="0 0 512 512" xmlns="http://www.w3.org/2000/svg"><g><path d="m403.797 446.116h-295.594l60.892-211.96h173.81z" fill="#335e80"></path><path d="m342.905 234.156h-30.446l60.892 211.96h30.446z" fill="#235170"></path><g><circle cx="347.338" cy="289.471" fill="#ffe179" r="22.054"></circle><path d="m347.338 267.417c-3.781 0-7.339.953-10.449 2.63 6.909 3.724 11.605 11.025 11.605 19.424s-4.696 15.7-11.605 19.424c3.11 1.677 6.668 2.63 10.449 2.63 12.18 0 22.054-9.874 22.054-22.054s-9.874-22.054-22.054-22.054z" fill="#fbd268"></path><circle cx="164.662" cy="289.471" fill="#ffe179" r="22.054"></circle></g><path d="m343.617 276.148h-25.1v-41.139h25.1c11.36 0 20.569 9.209 20.569 20.569 0 11.361-9.209 20.57-20.569 20.57z" fill="#ffb09e"></path><path d="m168.383 276.148h25.1v-41.139h-25.1c-11.36 0-20.569 9.209-20.569 20.569 0 11.361 9.209 20.57 20.569 20.57z" fill="#ffb09e"></path><path d="m256 0c-76.351 0-138.246 61.895-138.246 138.246s61.895 138.246 138.246 138.246 138.246-61.895 138.246-138.246-61.895-138.246-138.246-138.246zm0 240.355c-56.393 0-102.109-45.716-102.109-102.109s45.716-102.109 102.109-102.109 102.109 45.716 102.109 102.109-45.716 102.109-102.109 102.109z" fill="#ffe179"></path><g><path d="m256 0c-5.146 0-10.223.29-15.223.838 69.187 7.58 123.023 66.203 123.023 137.408s-53.836 129.828-123.023 137.408c5 .548 10.077.838 15.223.838 76.351 0 138.246-61.895 138.246-138.246s-61.895-138.246-138.246-138.246z" fill="#fbd268"></path></g><path d="m448.825 501.851v-34.307c0-25.44-15.816-48.199-39.659-57.07l-91.16-27.207-7.673-2.855c-7.948-2.957-13.22-10.543-13.22-19.023l-5.333-49.571-78.833-5.607v49.191c0 8.48-5.272 16.066-13.22 19.023l-7.673 2.855-11.73 7.745-16.817 2.876-60.672 22.573c-23.844 8.871-39.659 31.63-39.659 57.07v34.307c0 5.605 4.544 10.149 10.149 10.149h365.352c5.604 0 10.148-4.544 10.148-10.149z" fill="#95d6a4"></path><g><path d="m409.165 410.474-60.672-22.573-40.261-8.727c-7.948-2.957-13.22-10.543-13.22-19.023v-49.191l-26.404-4.748v64.414c0 8.48 5.272 16.066 13.22 19.023l96.891 36.048c23.844 8.871 39.659 31.63 39.659 57.07v29.233h20.297c5.605 0 10.149-4.544 10.149-10.149v-34.307c.001-25.44-15.815-48.199-39.659-57.07z" fill="#78c2a4"></path></g><path d="m334.636 382.746-25.07-5.751c-7.948-2.957-13.22-10.543-13.22-19.023v-49.192l-83.4-2.569v49.191c0 8.48-5.272 16.066-13.22 19.023l-23.541 8.758c13.195 34.435 46.787 56.644 82.834 55.082 33.654-1.457 63.568-23.379 75.617-55.519z" fill="#ffcebf"></path><path d="m281.828 389.649 40.645 15.122c5.023-6.597 9.151-13.992 12.163-22.025l-22.362-8.32c-7.948-2.957-13.22-10.543-13.22-19.023v-49.191h-30.446v64.414c0 8.48 5.272 16.066 13.22 19.023z" fill="#ffb09e"></path><path d="m256 453.645c42.729 0 79.148-27.509 92.493-65.744l-28.547-10.621c-9.001 26.69-34.22 45.918-63.947 45.918s-54.946-19.228-63.947-45.918l-28.547 10.621c13.347 38.236 49.766 65.744 92.495 65.744z" fill="#ffe179"></path><path d="m337.265 410.274c4.642-6.892 8.444-14.394 11.229-22.373l-22.544-8.387-6.003-2.233c-2.737 8.116-6.981 15.536-12.388 21.941z" fill="#fbd268"></path><path d="m256 342.887s-30.73.057-43.056-8.158c-20.909-13.934-34.684-37.727-34.684-64.738v-65.429l84.621-30.446 70.859 30.446-3.349 62.854c0 2.065 3.269 6.687 3.11 8.712-1.896 24.282-14.949 45.431-34.036 58.326-12.407 8.384-27.364 8.433-43.465 8.433z" fill="#ffcebf"></path><path d="m262.881 174.117-16.57 5.962 56.984 24.484v65.429c.236 4.861.981 30.142-17.892 49.612-17.884 18.451-46.293 24.368-72.456 15.122 8.321 5.315 20.31 11.101 35.335 12.623 2.68.271 5.258.387 7.719.383 42.935 0 77.74-34.805 77.74-77.74v-65.429z" fill="#ffb09e"></path><path d="m256 120.126c-42.935 0-77.74 34.805-77.74 77.74v21.92l18.947-7.421c37.798-14.803 79.788-14.803 117.586 0l18.947 7.421v-21.92c0-42.934-34.805-77.74-77.74-77.74z" fill="#ffe179"></path><g><path d="m256 120.126c-5.211 0-10.299.522-15.223 1.5 35.645 7.078 62.517 38.516 62.517 76.24v10.497c3.869 1.187 7.706 2.516 11.499 4.002l18.947 7.421v-21.92c0-42.934-34.805-77.74-77.74-77.74z" fill="#fbd268"></path></g><path d="m303.191 141.439h-94.383c-10.089 0-18.268-8.179-18.268-18.268 0-10.089 8.179-18.268 18.268-18.268h94.383c10.089 0 18.268 8.179 18.268 18.268 0 10.089-8.179 18.268-18.268 18.268z" fill="#fff8bf"></path><path d="m303.191 104.903h-30.446c10.089 0 18.268 8.179 18.268 18.268s-8.179 18.268-18.268 18.268h30.446c10.089 0 18.268-8.179 18.268-18.268s-8.179-18.268-18.268-18.268z" fill="#fcea9d"></path><path d="m287.968 104.903h-63.937c-10.089 0-18.268-8.179-18.268-18.268 0-10.089 8.179-18.268 18.268-18.268h63.937c10.089 0 18.268 8.179 18.268 18.268 0 10.09-8.179 18.268-18.268 18.268z" fill="#ffe179"></path><path d="m287.968 68.368h-30.446c10.089 0 18.268 8.179 18.268 18.268s-8.179 18.268-18.268 18.268h30.446c10.089 0 18.268-8.179 18.268-18.268s-8.179-18.268-18.268-18.268z" fill="#fbd268"></path><path d="m277.769 68.368h-43.538v-21.419c0-5.301 2.588-10.269 6.932-13.307l12.51-8.748c1.397-.977 3.256-.977 4.653 0l12.51 8.748c4.344 3.038 6.932 8.006 6.932 13.307v21.419z" fill="#fff8bf"></path><path d="m270.837 33.642-12.51-8.748c-1.397-.977-3.256-.977-4.653 0l-9.969 6.971 2.541 1.777c4.344 3.038 6.932 8.006 6.932 13.307v21.419h24.591v-21.419c0-5.301-2.588-10.269-6.932-13.307z" fill="#fcea9d"></path><circle cx="256" cy="143.671" fill="#f58a97" r="18.268"></circle><path d="m256 125.404c-3.608 0-6.961 1.06-9.794 2.865 5.089 3.243 8.474 8.922 8.474 15.403s-3.385 12.16-8.474 15.403c2.833 1.805 6.186 2.865 9.794 2.865 10.089 0 18.268-8.179 18.268-18.268 0-10.09-8.179-18.268-18.268-18.268z" fill="#f07281"></path><circle cx="256" cy="223.091" fill="#f07281" r="7.611"></circle><g><path d="m256.019 317.147c-6.708 0-12.099-2.077-15.577-3.932-3.709-1.979-5.111-6.59-3.133-10.298 1.979-3.71 6.59-5.111 10.298-3.133 2.111 1.126 5.511 2.404 9.704 2.092 2.462-.183 4.834-.881 7.051-2.076 3.698-1.995 8.316-.613 10.312 3.087 1.995 3.7.613 8.317-3.087 10.312-4.819 2.598-10.158 3.948-15.568 3.948z" fill="#ffb09e"></path></g><g><g><path d="m225.573 256.066c-6.708 0-12.099-2.077-15.577-3.932-3.709-1.979-5.111-6.59-3.133-10.298 1.979-3.71 6.59-5.111 10.298-3.133 2.111 1.126 5.508 2.405 9.704 2.092 2.462-.183 4.834-.881 7.051-2.076 3.7-1.996 8.318-.612 10.312 3.087 1.995 3.7.613 8.317-3.087 10.312-4.113 2.218-8.538 3.516-13.149 3.858-.824.061-1.63.09-2.419.09z" fill="#3d6d93"></path></g><g><path d="m286.465 256.066c-6.708 0-12.099-2.077-15.577-3.932-3.709-1.979-5.111-6.59-3.133-10.298 1.979-3.71 6.59-5.111 10.298-3.133 2.111 1.126 5.509 2.405 9.704 2.092 2.462-.183 4.834-.881 7.051-2.076 3.7-1.996 8.317-.612 10.312 3.087 1.995 3.7.613 8.317-3.087 10.312-4.113 2.218-8.538 3.516-13.149 3.858-.824.061-1.63.09-2.419.09z" fill="#3d6d93"></path></g></g><circle cx="256" cy="438.815" fill="#f58a97" r="29.344"></circle><path d="m256 409.471c-5.574 0-10.785 1.554-15.223 4.253 8.466 5.147 14.121 14.459 14.121 25.092s-5.655 19.944-14.121 25.092c4.438 2.698 9.649 4.253 15.223 4.253 16.206 0 29.344-13.138 29.344-29.344 0-16.208-13.138-29.346-29.344-29.346z" fill="#f07281"></path><g><path d="m139.29 512c-4.204 0-7.611-3.408-7.611-7.612v-28.77c0-4.204 3.408-7.611 7.611-7.611 4.204 0 7.611 3.408 7.611 7.611v28.77c.001 4.204-3.407 7.612-7.611 7.612z" fill="#78c2a4"></path></g><path d="m448.825 501.851v-34.307c0-25.44-15.816-48.199-39.659-57.07l-19.034-7.081-95.83 108.607h144.374c5.605 0 10.149-4.544 10.149-10.149z" fill="#f58a97"></path><path d="m409.165 410.474-19.034-7.081-17.637 19.989 6.224 2.316c23.844 8.871 39.659 31.63 39.659 57.07v29.232h20.297c5.605 0 10.149-4.544 10.149-10.149v-34.307c.002-25.44-15.814-48.199-39.658-57.07z" fill="#f07281"></path></g></svg>