<!-- icon666.com - MILLIONS vector ICONS FREE --><svg viewBox="-11 0 512 512" xmlns="http://www.w3.org/2000/svg"><path d="m5.121094 70.488281h478.980468v362.394531h-478.980468zm0 0" fill="#ecf4f7" style="fill: rgb(224, 240, 245);"></path><path d="m5.121094 432.882812v54.585938c0 10.71875 8.691406 19.410156 19.410156 19.410156h440.160156c10.71875 0 19.410156-8.691406 19.410156-19.410156v-54.585938zm0 0" fill="#aab1ba" style="fill: rgb(239, 240, 241);"></path><path d="m5.121094 396.460938h478.980468v36.421874h-478.980468zm0 0" fill="#83e1e5" style="fill: rgb(135, 133, 229);"></path><path d="m106.269531 469.972656c0 8.542969-6.921875 15.464844-15.464843 15.464844-8.539063 0-15.460938-6.921875-15.460938-15.464844 0-8.539062 6.921875-15.464844 15.460938-15.464844 8.542968 0 15.464843 6.925782 15.464843 15.464844zm0 0" fill="#83e1e5" style="fill: rgb(135, 133, 229);"></path><path d="m464.691406 5.121094h-440.160156c-10.71875 0-19.410156 8.691406-19.410156 19.410156v45.957031h478.980468v-45.957031c0-10.71875-8.691406-19.410156-19.410156-19.410156zm0 0" fill="#83e1e5" style="fill: rgb(135, 133, 229);"></path><g fill="#ecf4f7"><path d="m61.859375 37.804688c0 6.246093-5.0625 11.308593-11.308594 11.308593-6.246093 0-11.308593-5.0625-11.308593-11.308593 0-6.246094 5.0625-11.308594 11.308593-11.308594 6.246094 0 11.308594 5.0625 11.308594 11.308594zm0 0" fill="#ecf4f7" style="fill: rgb(224, 240, 245);"></path><path d="m106.574219 37.804688c0 6.246093-5.0625 11.308593-11.308594 11.308593s-11.308594-5.0625-11.308594-11.308593c0-6.246094 5.0625-11.308594 11.308594-11.308594s11.308594 5.0625 11.308594 11.308594zm0 0" fill="#ecf4f7" style="fill: rgb(224, 240, 245);"></path><path d="m151.289062 37.804688c0 6.246093-5.0625 11.308593-11.308593 11.308593-6.246094 0-11.308594-5.0625-11.308594-11.308593 0-6.246094 5.0625-11.308594 11.308594-11.308594 6.246093 0 11.308593 5.0625 11.308593 11.308594zm0 0" fill="#ecf4f7" style="fill: rgb(224, 240, 245);"></path></g><path d="m156.097656 269.574219h-42.824218c-4.972657 0-9.003907 4.03125-9.003907 9.003906 0 4.945313 3.988281 8.96875 8.9375 9.003906l29.828125.109375c4.394532.015625 8.769532.445313 13.0625 1.273438zm0 0" fill="#fddf7f" style="fill: rgb(245, 239, 219);"></path><path d="m295.777344 154.949219c0 28.257812-22.910156 51.164062-51.167969 51.164062s-51.164063-22.90625-51.164063-51.164062c0-28.257813 22.90625-51.167969 51.164063-51.167969s51.167969 22.910156 51.167969 51.167969zm0 0" fill="#fddf7f" style="fill: rgb(245, 239, 219);"></path><path d="m332.214844 396.460938h-175.207032c-13.882812 0-25.132812-11.253907-25.132812-25.132813v-3.609375c0-13.878906 11.25-25.132812 25.132812-25.132812h175.207032c13.878906 0 25.132812 11.253906 25.132812 25.132812v3.609375c0 13.878906-11.253906 25.132813-25.132812 25.132813zm0 0" fill="#aab1ba" style="fill: rgb(239, 240, 241);"></path><path d="m212.242188 342.585938h64.738281v53.875h-64.738281zm0 0" fill="#fddf7f" style="fill: rgb(245, 239, 219);"></path><path d="m333.121094 269.574219h42.824218c4.972657 0 9.007813 4.03125 9.007813 9.003906 0 4.945313-3.992187 8.96875-8.9375 9.003906l-29.832031.109375c-4.394532.015625-8.765625.445313-13.0625 1.273438zm0 0" fill="#fddf7f" style="fill: rgb(245, 239, 219);"></path><path d="m50.550781 21.375c-9.058593 0-16.429687 7.371094-16.429687 16.429688 0 9.058593 7.371094 16.429687 16.429687 16.429687 9.058594 0 16.429688-7.371094 16.429688-16.429687 0-9.058594-7.371094-16.429688-16.429688-16.429688zm0 22.617188c-3.414062 0-6.1875-2.773438-6.1875-6.1875 0-3.414063 2.773438-6.1875 6.1875-6.1875 3.414063 0 6.1875 2.777343 6.1875 6.1875 0 3.414062-2.773437 6.1875-6.1875 6.1875zm44.714844-22.617188c-9.058594 0-16.429687 7.371094-16.429687 16.429688 0 9.058593 7.371093 16.429687 16.429687 16.429687s16.429687-7.371094 16.429687-16.429687c0-9.058594-7.371093-16.429688-16.429687-16.429688zm0 22.617188c-3.414063 0-6.1875-2.773438-6.1875-6.1875 0-3.414063 2.773437-6.1875 6.1875-6.1875s6.1875 2.777343 6.1875 6.1875c0 3.414062-2.773437 6.1875-6.1875 6.1875zm44.714844-22.617188c-9.058594 0-16.425781 7.371094-16.425781 16.429688 0 9.058593 7.367187 16.429687 16.425781 16.429687 9.058593 0 16.429687-7.371094 16.429687-16.429687 0-9.058594-7.371094-16.429688-16.429687-16.429688zm0 22.617188c-3.410157 0-6.1875-2.773438-6.1875-6.1875 0-3.414063 2.777343-6.1875 6.1875-6.1875 3.414062 0 6.1875 2.777343 6.1875 6.1875 0 3.414062-2.773438 6.1875-6.1875 6.1875zm-139.980469 182.105468v-5.621094c0-2.824218 2.292969-5.117187 5.121094-5.117187s5.117187 2.292969 5.117187 5.117187v5.621094c0 2.828125-2.289062 5.121094-5.117187 5.121094s-5.121094-2.292969-5.121094-5.121094zm464.691406-226.097656h-440.160156c-13.527344 0-24.53125 11.003906-24.53125 24.53125v177.746094c0 2.824218 2.292969 5.117187 5.121094 5.117187s5.117187-2.292969 5.117187-5.117187v-126.667969h468.742188v352.152344h-468.742188v-177.335938c0-2.828125-2.289062-5.121093-5.117187-5.121093s-5.121094 2.292968-5.121094 5.121093v237.042969c0 13.527344 11.003906 24.53125 24.53125 24.53125h440.160156c13.527344 0 24.53125-11.003906 24.53125-24.53125v-462.9375c0-13.527344-11.003906-24.53125-24.53125-24.53125zm14.289063 487.46875c0 7.878906-6.410157 14.292969-14.289063 14.292969h-440.160156c-7.878906 0-14.292969-6.414063-14.292969-14.292969v-49.464844h468.742188zm0-422.097656h-468.742188v-40.839844c0-7.878906 6.414063-14.292969 14.292969-14.292969h440.160156c7.878906 0 14.289063 6.414063 14.289063 14.292969zm-379.796875 212.226562c-.269532 3.9375 1.054687 7.695313 3.730468 10.578125 2.636719 2.847657 6.375 4.496094 10.273438 4.527344l29.832031.105469c4.042969.015625 8.046875.402344 11.980469 1.152344.042969.007812.082031.019531.125.027343 3.839844.738281 7.613281 1.824219 11.292969 3.253907l28.136719 10.941406v20.851562c0 2.828125 2.292968 5.121094 5.121093 5.121094s5.121094-2.292969 5.121094-5.121094v-81.378906c0-2.828125-2.292969-5.121094-5.121094-5.121094s-5.121093 2.292969-5.121093 5.121094v49.542969l-24.421876-9.5c-2.925781-1.136719-5.898437-2.070313-8.914062-2.828125v-10.175782h12.167969c6.648437 0 12.054687-5.40625 12.054687-12.054687v-22.472656c0-15.953125 12.980469-28.933594 28.9375-28.933594h60.464844c15.957031 0 28.9375 12.980469 28.9375 28.933594v22.472656c0 6.648437 5.40625 12.054687 12.054688 12.054687h12.164062v10.175782c-3.011719.757812-5.988281 1.691406-8.910156 2.828125l-24.421875 9.496093v-49.539062c0-2.828125-2.292969-5.121094-5.121094-5.121094s-5.121094 2.292969-5.121094 5.121094v57.011719.015625 24.355468c0 2.824219 2.292969 5.117188 5.121094 5.117188s5.121094-2.292969 5.121094-5.117188v-20.855468l28.132812-10.941406c3.683594-1.429688 7.457031-2.511719 11.292969-3.253907.042969-.007812.085938-.015625.125-.027343 3.9375-.75 7.9375-1.136719 11.984375-1.152344l29.851563-.105469c3.878906-.03125 7.617187-1.679687 10.253906-4.523437 2.671875-2.886719 4-6.644532 3.730468-10.582032-.503906-7.371094-6.828124-13.140625-14.398437-13.140625h-2.609375c.710938-1.8125 1.113281-3.78125 1.113281-5.839843 0-8.867188-7.210937-16.082032-16.078125-16.082032-8.867187 0-16.078125 7.214844-16.078125 16.082032 0 2.058593.402344 4.027343 1.113281 5.839843h-27.265624c-1.003907 0-1.816407-.8125-1.816407-1.8125v-22.476562c0-20.925781-16.496093-38.078125-37.167969-39.125 14.523438-10.1875 24.046876-27.046875 24.046876-46.09375 0-31.039063-25.25-56.285157-56.285157-56.285157-31.039062 0-56.285156 25.25-56.285156 56.285157 0 19.046875 9.519531 35.90625 24.042969 46.09375-20.671875 1.046875-37.167969 18.199219-37.167969 39.125v22.472656c0 1-.816406 1.816406-1.8125 1.816406h-27.269531c.710937-1.816406 1.113281-3.78125 1.113281-5.84375 0-8.867187-7.210937-16.078125-16.078125-16.078125-8.863281 0-16.078125 7.210938-16.078125 16.078125 0 2.0625.40625 4.027344 1.113281 5.84375h-2.609375c-7.570312 0-13.894531 5.769531-14.398437 13.140625zm258.882812-24.820312c3.21875 0 5.839844 2.617187 5.839844 5.839844 0 3.21875-2.621094 5.839843-5.839844 5.839843s-5.839844-2.621093-5.839844-5.839843c0-3.222657 2.617188-5.839844 5.839844-5.839844zm-19.824218 21.917968h37.398437c2.167969 0 4.042969 1.613282 4.179687 3.601563.074219 1.089844-.289062 2.128906-1.023437 2.921875s-1.738281 1.234375-2.796875 1.246094l-29.835938.105468c-2.65625.011719-5.300781.175782-7.921874.460938zm-139.675782-119.746093c0-25.390625 20.65625-46.046875 46.042969-46.046875 25.390625 0 46.046875 20.65625 46.046875 46.046875 0 25.386719-20.65625 46.042969-46.046875 46.042969-25.386719 0-46.042969-20.65625-46.042969-46.042969zm-67.410156 97.828125c3.21875 0 5.835938 2.617187 5.835938 5.839844 0 3.21875-2.617188 5.839843-5.835938 5.839843-3.222656 0-5.839844-2.621093-5.839844-5.839843 0-3.222657 2.617188-5.839844 5.839844-5.839844zm19.824219 21.917968v8.335938c-2.625-.289062-5.265625-.453125-7.925781-.460938l-29.808594-.109374c-1.085938-.007813-2.085938-.449219-2.820313-1.242188-.738281-.792969-1.101562-1.832031-1.027343-2.925781.136718-1.984375 2.011718-3.597657 4.179687-3.597657zm284.148437 195.277344c0-2.828125 2.289063-5.121094 5.117188-5.121094h6.421875c2.828125 0 5.121093 2.292969 5.121093 5.121094s-2.292968 5.121094-5.121093 5.121094h-6.421875c-2.828125 0-5.117188-2.292969-5.117188-5.121094zm-392.574218 5.121094h28.335937c2.285156 8.875 10.335937 15.464844 19.914063 15.464844 9.582031 0 17.628906-6.589844 19.917968-15.464844h309.589844c2.828125 0 5.117188-2.292969 5.117188-5.121094s-2.289063-5.121094-5.117188-5.121094h-309.589844c-2.285156-8.875-10.335937-15.464843-19.917968-15.464843-9.578126 0-17.625 6.589843-19.914063 15.464843h-28.335937c-2.828126 0-5.121094 2.292969-5.121094 5.121094s2.292968 5.121094 5.121094 5.121094zm48.25-15.464844c5.707031 0 10.347656 4.640625 10.347656 10.34375s-4.640625 10.34375-10.347656 10.34375c-5.703126 0-10.34375-4.640625-10.34375-10.34375 0-5.707031 4.640624-10.34375 10.34375-10.34375zm-30.839844-63.167968c0 2.828124 2.292968 5.121093 5.121094 5.121093h359.054687c2.828125 0 5.117187-2.292969 5.117187-5.121093 0-2.828126-2.289062-5.121094-5.117187-5.121094h-69.265625c4.722656-5.335938 7.59375-12.34375 7.59375-20.011719v-3.609375c0-16.679688-13.570312-30.253906-30.253906-30.253906h-175.207032c-16.679687 0-30.253906 13.574218-30.253906 30.253906v3.609375c0 7.667969 2.875 14.675781 7.59375 20.011719h-69.261718c-2.828126 0-5.121094 2.292968-5.121094 5.121094zm217.015625-9.878907c2.828125 0 5.121093-2.292969 5.121093-5.121093v-33.753907h50.113282c11.035156 0 20.011718 8.976563 20.011718 20.011719v3.609375c0 11.035156-8.976562 20.015625-20.011718 20.015625h-114.851563v-16.699219h54.5v6.816407c-.003906 2.828124 2.289063 5.121093 5.117188 5.121093zm-139.988281-18.863281c0-11.035156 8.980468-20.011719 20.015624-20.011719h114.851563v16.695313h-54.5v-7.214844c0-2.828125-2.289063-5.121094-5.117187-5.121094-2.832032 0-5.121094 2.292969-5.121094 5.121094v34.15625h-50.113282c-11.035156 0-20.015624-8.980469-20.015624-20.015625zm-100.765626 33.863281c-2.828124 0-5.121093-2.292969-5.121093-5.121093 0-2.828126 2.292969-5.121094 5.121093-5.121094h5.347657c2.828125 0 5.121093 2.292968 5.121093 5.121094 0 2.828124-2.292968 5.121093-5.121093 5.121093zm411.421876 0c-2.828126 0-5.121094-2.292969-5.121094-5.121093 0-2.828126 2.292968-5.121094 5.121094-5.121094h5.347656c2.828125 0 5.117187 2.292968 5.117187 5.121094 0 2.828124-2.289062 5.121093-5.117187 5.121093zm-312.109376-225.375v6.117188h6.117188c2.828125 0 5.121094 2.292969 5.121094 5.121093 0 2.828126-2.292969 5.117188-5.121094 5.117188h-6.117188v6.121094c0 2.828125-2.292968 5.117187-5.121093 5.117187s-5.121094-2.289062-5.121094-5.117187v-6.121094h-6.117187c-2.828126 0-5.121094-2.289062-5.121094-5.117188 0-2.828124 2.292968-5.121093 5.121094-5.121093h6.117187v-6.117188c0-2.828125 2.292969-5.121093 5.121094-5.121093s5.121093 2.292968 5.121093 5.121093zm228.382813 0v6.117188h6.121094c2.828125 0 5.117187 2.292969 5.117187 5.121093 0 2.828126-2.289062 5.117188-5.117187 5.117188h-6.121094v6.121094c0 2.828125-2.289063 5.117187-5.117187 5.117187-2.828126 0-5.121094-2.289062-5.121094-5.117187v-6.121094h-6.117188c-2.828125 0-5.121094-2.289062-5.121094-5.117188 0-2.828124 2.292969-5.121093 5.121094-5.121093h6.117188v-6.117188c0-2.828125 2.292968-5.121093 5.121094-5.121093 2.828124 0 5.117187 2.292968 5.117187 5.121093zm0 0" fill="#1c1d21"></path></svg>