<!-- icon666.com - MILLIONS vector ICONS FREE --><svg id="Capa_1" enable-background="new 0 0 512 512" viewBox="0 0 512 512" xmlns="http://www.w3.org/2000/svg"><g><g><path d="m455.982 415.81c35.047-43.8 56.018-99.352 56.018-159.81 0-141.385-114.615-256-256-256s-256 114.615-256 256c0 60.458 20.971 116.01 56.018 159.81z" fill="#3e4a68"></path></g><g><path d="m456 80v335.81c-46.91 58.63-119.07 96.19-200 96.19s-153.09-37.56-200-96.19v-335.81l17.47-3.49 182.53-36.51 182.53 36.51z" fill="#ebf0f3"></path></g><g><path d="m116 68.003-42.53 8.507-17.47 3.49v335.81c46.91 58.63 119.07 96.19 200 96.19s153.09-37.56 200-96.19h-260c-44.183 0-80-35.817-80-80z" fill="#ceddf7"></path></g><g><ellipse cx="256" cy="448.943" fill="#8fb1db" rx="130" ry="30"></ellipse></g><g><path d="m456 80h-400v-60c0-11.046 8.954-20 20-20h360c11.046 0 20 8.954 20 20z" fill="#9c68e1"></path></g><g><path d="m136 0h-60c-11.046 0-20 8.954-20 20v60h60v-60c0-11.046 8.954-20 20-20z" fill="#8c4cd1"></path></g><g><circle cx="361.333" cy="40" fill="#ffe854" r="15"></circle></g><g><circle cx="416" cy="40" fill="#ff3345" r="15"></circle></g><g><circle cx="96" cy="40" fill="#fff" r="15"></circle><path d="m96 55.5c-8.547 0-15.5-6.953-15.5-15.5s6.953-15.5 15.5-15.5 15.5 6.953 15.5 15.5-6.953 15.5-15.5 15.5zm0-30c-7.995 0-14.5 6.505-14.5 14.5s6.505 14.5 14.5 14.5 14.5-6.505 14.5-14.5-6.505-14.5-14.5-14.5z" fill="#000000"></path></g><g><path d="m96 55h210.667c8.284 0 15-6.716 15-15 0-8.284-6.716-15-15-15h-210.667c-8.284 0-15 6.716-15 15 0 8.284 6.716 15 15 15z" fill="#ebf0f3"></path></g><g><path d="m150 40c0-8.284 6.716-15 15-15h-69c-8.284 0-15 6.716-15 15s6.716 15 15 15h69c-8.284 0-15-6.716-15-15z" fill="#ceddf7"></path></g><g><g><path d="m298.227 383.742-42.227-13.717-42.227 13.717s-128.371-.365-103.636 51.441h115.658c20.246 3.827 52.62 9.168 86.675 11.66 39.52 2.892 64.25 1.056 77.843-3.87 8.668-3.142 14.791-11.237 14.713-20.456-.329-39.077-106.799-38.775-106.799-38.775z" fill="#066ae7" style="fill: rgb(69, 23, 196);"></path></g><g><path d="m110.137 435.183c4.388 7.978 22.177 19.433 76.589 10.517 54.413-8.916 151.125-30.35 151.354-34.236.229-3.887-8.921-11.26-20.809-11.26s-13.717 3.458-20.576 3.458-15.547-10.774-22.862-9.288c-7.316 1.486-11.66 16.347-11.66 16.347s-69.273-4.573-106.082-2.286-50.983 17.603-45.954 26.748z" fill="#0c99e6" style="fill: rgb(102, 18, 226);"></path></g><g><path d="m414.649 381.942c-.514-1.457-2.744-.857-4.458 1.029-.36.396-1.026 1.052-1.858 1.845 0-2.652 0-6.272 0-7.589 0-1.649-1.843-2.174-3.131-1.283-.584-1.385-3.928-.431-3.928-.431l-24.491 7.545-37.654-50.755s-2.286-73.16-11.431-80.705-56.608-15.547-56.608-15.547v-16.461h-15.09-15.089v16.461s-47.463 8.002-56.608 15.547-11.431 80.705-11.431 80.705l-37.654 50.755-24.491-7.545s-3.343-.954-3.928.431c-1.289-.891-3.131-.365-3.131 1.283v7.589c-.831-.792-1.497-1.449-1.858-1.845-1.715-1.886-3.944-2.486-4.458-1.029s7.116 12.431 8.916 14.918c1.8 2.486 9.688 7.63 14.575 6.687s21.919-10.202 21.919-10.202 48.926-36.809 53.498-49.84 8.23-56.994 8.23-56.996l7.983 27.287c.863 2.951 1.301 6.009 1.301 9.084v60.863h84.449v-60.863c0-3.074.438-6.133 1.302-9.084l7.983-27.288s3.658 43.965 8.23 56.996c4.573 13.032 53.498 49.84 53.498 49.84s17.033 9.259 21.919 10.202c4.887.943 12.774-4.201 14.575-6.687 1.803-2.485 9.433-13.459 8.919-14.917zm-299.046 9.239c-1.481 1.251-3.654 1.22-5.096-.075-.238-.214-.489-.44-.745-.671-.981-1.717-1.096-6.733-1.45-10.231 1.621 1.599 4.3 3.289 6.694 4.632 2.359 1.324 2.664 4.599.597 6.345zm280.794 0c-2.067-1.746-1.762-5.021.597-6.345 2.394-1.343 5.073-3.033 6.694-4.632-.354 3.498-.469 8.514-1.45 10.231-.256.231-.507.457-.745.671-1.441 1.295-3.615 1.326-5.096.075z" fill="#0c99e6" style="fill: rgb(102, 18, 226);"></path></g><g><path d="m240.911 236.051s23.091 1.829 25.377-16.461h-25.377z" fill="#066ae7" style="fill: rgb(69, 23, 196);"></path></g><g><g><path d="m283.169 187.322c0 20.007-12.164 43.47-27.169 43.47s-27.169-23.464-27.169-43.47 12.164-34.392 27.169-34.392 27.169 14.386 27.169 34.392z" fill="#0c99e6" style="fill: rgb(102, 18, 226);"></path></g></g><g><path d="m227 383.742v-56.486c0-4.514-1.334-8.928-3.835-12.686l-18.674-28.062 7.983 27.287c.863 2.951 1.302 6.009 1.302 9.084v60.863z" fill="#066ae7" style="fill: rgb(69, 23, 196);"></path></g></g><g><g><path d="m421 167.5h-103c-4.143 0-7.5-3.357-7.5-7.5s3.357-7.5 7.5-7.5h103c4.143 0 7.5 3.357 7.5 7.5s-3.357 7.5-7.5 7.5z" fill="#aac5ee"></path></g><g><path d="m391 127.5h-73c-4.143 0-7.5-3.357-7.5-7.5s3.357-7.5 7.5-7.5h73c4.143 0 7.5 3.357 7.5 7.5s-3.357 7.5-7.5 7.5z" fill="#aac5ee"></path></g><g><path d="m391 207.5h-73c-4.143 0-7.5-3.357-7.5-7.5s3.357-7.5 7.5-7.5h73c4.143 0 7.5 3.357 7.5 7.5s-3.357 7.5-7.5 7.5z" fill="#aac5ee"></path></g></g></g></svg>