<!-- icon666.com - MILLIONS OF FREE VECTOR ICONS --><svg viewBox="1 1 511.99925 511" xmlns="http://www.w3.org/2000/svg"><path d="m290.792969 292.332031c10.359375-3.648437 18.859375-10.003906 23.929687-17.894531 2.515625-3.917969 4.101563-7.96875 5.632813-11.886719 1.101562-2.824219 2.144531-5.488281 3.449219-7.847656 5.042968-9.128906 15.542968-15.234375 26.171874-15.234375h.1875c4.410157.027344 8.109376 1.785156 11.308594 5.371094 7.324219 8.214844 10.085938 23.703125 8.964844 34.109375-1.074219 9.964843-5.09375 18.816406-11.625 25.597656-2.875 2.980469-2.785156 7.730469.195312 10.605469 2.984376 2.875 7.734376 2.78125 10.609376-.199219 8.859374-9.199219 14.300781-21.09375 15.734374-34.398437 1.457032-13.527344-1.890624-33.597657-12.683593-45.699219-6.011719-6.738281-13.757813-10.328125-22.402344-10.386719-.101563 0-.195313-.003906-.296875-.003906-16.167969 0-31.570312 9-39.296875 22.988281-1.78125 3.222656-3.054687 6.480469-4.289063 9.632813-1.320312 3.386718-2.574218 6.582031-4.28125 9.246093-3.277343 5.097657-9.058593 9.304688-16.285156 11.847657-7.710937 2.710937-16.53125 4.066406-24.191406 3.71875-2.636719-.125-5.175781 1.171874-6.628906 3.398437-1.449219 2.226563-1.613282 5.054687-.429688 7.433594 10.222656 20.542969 11.886719 44.019531 4.457032 62.804687-5.894532 14.886719-17.246094 25.816406-32.832032 31.601563-19.65625 7.296875-44.046875 4.429687-63.652344-7.492188-18.148437-11.035156-32.671874-29.433593-40.894531-51.808593-5.496093-14.960938-8.589843-31.546876-8.972656-47.101563 5.746094 26.597656 20.660156 69.097656 57.988281 78.421875 30.5 7.617188 49-.777344 59.140625-9.160156 14.351563-11.855469 18.765625-28.761719 18.109375-40.632813-1.046875-18.984375-15.207031-27.347656-26.902344-31.019531-11.496093-3.613281-24.015624-3.828125-31.082031-3.5625l-8.789062-17.023438c36.171875-.921874 57.078125-12.816406 58.96875-33.644531.929687-10.269531-3.347657-18.511719-12.042969-23.207031-18.445312-9.964844-53.746094-1.089844-72.34375 13.25l-18.542969-26.367188c4.746094-2.03125 11.882813-4.847656 20.285157-7.386718 3.964843-1.195313 6.210937-5.382813 5.011718-9.347656-1.195312-3.96875-5.382812-6.210938-9.347656-5.011719-9.613281 2.902343-17.691406 6.140625-22.777344 8.351562-3.941406 1.710938-6.871094 5.066407-8.035156 9.207031-1.164062 4.144532-.414062 8.539063 2.0625 12.0625l19.527344 27.765626c2.246094 3.195312 5.75 5.347656 9.613281 5.90625 3.867187.558593 7.847656-.515626 10.910156-2.949219 15.597657-12.378907 44.644531-18.691407 56.507813-12.285157 3.351562 1.808594 4.617187 4.398438 4.230468 8.65625-1.648437 18.183594-36.328124 19.941407-46.917968 20.046876-4.648438.046874-8.855469 2.453124-11.253906 6.4375-2.402344 3.992187-2.5625 8.847656-.425782 12.988281l10.519532 20.386719c2.382812 4.613281 7.253906 7.4375 12.457031 7.195312 4.691406-.222656 16.699219-.382812 26.96875 2.84375 14.09375 4.425781 16.121093 12.125 16.417969 17.535156.433593 7.835938-2.628907 19.933594-12.683594 28.238282-10.726563 8.867187-26.621094 10.996093-45.953125 6.167968-40.871094-10.207031-49.078125-77.265625-49.878907-84.878906-.425781-4.054688-3.238281-7.375-7.164062-8.460938-1.742188-.480468-4.25-1.140624-6.300781-1.535156-5.496094-1.058594-11.0625 2.785156-11.921875 8.417969-3.535156 23.191406-.421875 50.480469 8.539062 74.867187 9.386719 25.546876 26.140625 46.664063 47.179688 59.453126 14.921875 9.074218 31.757812 13.738281 48.214844 13.738281 9.777343 0 19.425781-1.648438 28.453124-5 19.6875-7.308594 34.054688-21.191407 41.558594-40.144531 7.710938-19.492188 7.421875-42.941407-.484375-64.570313 6.175781-.679687 12.429688-2.085937 18.304688-4.152344zm0 0"></path><path d="m382.210938 210.824219c-21.707032-20.703125-53.4375-24.515625-80.839844-9.710938-14.730469 7.957031-20.414063 19.734375-25.914063 31.121094-4.25 8.808594-8.644531 17.914063-17.546875 27.175781-3.144531 3.265625-8.503906 4.140625-13.042968 2.121094l-2.882813-1.28125c26.074219-29.738281 29.699219-57.601562 9.988281-79.175781-14.769531-16.160157-35.886718-23.519531-62.757812-21.859375-4.136719.253906-7.28125 3.816406-7.023438 7.949218.253906 4.132813 3.8125 7.28125 7.945313 7.027344 22.121093-1.367187 39.203125 4.355469 50.761719 17.003906 8.710937 9.53125 10.800781 20.285157 6.386718 32.867188-3.640625 10.371094-11.476562 21.625-23.292968 33.449219-1.746094 1.746093-2.519532 4.242187-2.070313 6.671875.453125 2.429687 2.070313 4.480468 4.328125 5.484375l12.519531 5.570312c10.363281 4.609375 22.398438 2.425781 29.953125-5.433593 10.5625-10.984376 15.707032-21.644532 20.246094-31.046876 5.265625-10.910156 9.070312-18.796874 19.53125-24.449218 21.902344-11.832032 46.179688-9.007813 63.359375 7.371094 31.003906 29.566406 29.261719 63.578124 25.464844 81.222656-5.765625 26.78125-23.5625 51-42.316407 57.585937-13.183593 4.625-27.558593 3.1875-38.457031-3.847656-9.765625-6.300781-16.433593-16.875-19.597656-30.914063 8.707031 5.464844 21.222656 10.03125 37.167969 7.421876 4.085937-.671876 6.855468-4.527344 6.1875-8.617188-.671875-4.085938-4.527344-6.855469-8.613282-6.1875-16.007812 2.621094-27.273437-4.496094-33.90625-10.929688-3.128906-3.035156-7.699218-3.785156-11.636718-1.910156-3.941406 1.871094-6.246094 5.890625-5.867188 10.234375 2.695313 30.957031 16.785156 46.183594 28.128906 53.507813 9.117188 5.886718 19.957032 8.90625 31.042969 8.90625 6.859375 0 13.820313-1.160156 20.519531-3.511719 23.722657-8.328125 45.113282-36.53125 52.011719-68.582031 4.460938-20.710938 6.519531-60.625-29.777343-95.234375zm0 0"></path><path d="m274.796875 183.136719c6.746094 1.839843 13.203125 2.621093 19.316406 2.621093 26.660157 0 46.675781-14.9375 55.0625-22.460937 6.246094-5.605469 7.039063-15.128906 1.804688-21.683594l-9.828125-12.308593c-2.84375-3.558594-7.082032-5.726563-11.632813-5.945313-4.53125-.222656-8.9375 1.523437-12.089843 4.773437-6.242188 6.441407-18.898438 16.929688-33.476563 14.8125-14.667969-2.136718-26.394531-9.027343-34.855469-20.492187-3.179687-4.308594-8.820312-5.816406-13.71875-3.667969-4.917968 2.15625-7.640625 7.347656-6.621094 12.625 5.160157 26.671875 21.507813 45.042969 46.039063 51.726563zm6.996094-25.347657c2.066406.300782 4.089843.441407 6.074219.441407 18.34375-.003907 32.902343-11.984375 40.335937-19.65625.058594-.0625.230469-.246094.597656-.230469.257813.011719.46875.121094.628907.320312l9.828124 12.308594c.277344.347656.234376.855469-.101562 1.15625-10.53125 9.453125-32.386719 24.171875-60.417969 16.535156-16.453125-4.484374-25.582031-14.773437-30.609375-25.53125 7.96875 6.617188 18.925782 12.511719 33.664063 14.65625zm0 0"></path><path d="m274.929688 134.695312c4.835937 6.335938 15.675781 5.113282 20.789062 0 .003906 0 10.46875-10.46875 10.476562-10.472656 5.671876-5.667968 5.664063-15.132812 0-20.792968 0 0-10.464843-10.464844-10.472656-10.476563-5.644531-5.644531-15.167968-5.628906-20.792968 0 0 0-10.464844 10.464844-10.476563 10.472656-5.65625 5.660157-5.644531 15.152344 0 20.792969 0 .003906 10.472656 10.472656 10.476563 10.476562zm10.394531-30.921874 10.050781 10.050781-10.050781 10.050781-10.050781-10.050781zm0 0"></path><path d="m505.792969 240.691406c-8.472657-9.066406-19.175781-19.59375-30.585938-28.515625 7.449219-13.390625 13.320313-27.800781 17.117188-38.117187 4.183593-11.382813-1.207031-24.179688-12.277344-29.132813-9.535156-4.261719-23.257813-9.867187-37.496094-13.882812 1.558594-13.824219 1.660157-28.109375 1.253907-39.996094-.414063-12.121094-10.234376-21.941406-22.355469-22.351563-12.402344-.425781-27.410157-.296874-41.789063 1.460938-4.199218-14.734375-10.234375-29.078125-14.847656-39.058594-5.089844-11.007812-17.953125-16.242187-29.28125-11.917968-9.753906 3.726562-23.421875 9.46875-36.328125 16.695312-8.675781-10.878906-18.707031-21.046875-27.398437-29.167969-8.863282-8.277343-22.75-8.277343-31.613282 0-9.066406 8.46875-19.59375 19.175781-28.515625 30.585938-13.390625-7.449219-27.800781-13.324219-38.117187-17.117188-11.378906-4.183593-24.179688 1.207031-29.132813 12.277344-4.261719 9.535156-9.867187 23.257813-13.882812 37.492187-13.824219-1.558593-28.109375-1.65625-39.996094-1.25-12.121094.414063-21.941406 10.230469-22.355469 22.351563-.421875 12.402344-.296875 27.414063 1.464844 41.792969-14.738281 4.199218-29.078125 10.234375-39.058594 14.847656-11.007812 5.089844-16.242187 17.949219-11.917968 29.28125 3.726562 9.753906 9.46875 23.421875 16.695312 36.328125-10.878906 8.671875-21.050781 18.703125-29.167969 27.398437-8.277343 8.859376-8.277343 22.746094 0 31.609376 8.46875 9.070312 19.175781 19.597656 30.585938 28.519531-7.449219 13.386719-13.324219 27.796875-17.117188 38.117187-4.1875 11.382813 1.207031 24.175782 12.277344 29.128906 9.535156 4.265626 23.257813 9.871094 37.492187 13.882813-1.558593 13.828125-1.65625 28.113281-1.25 40 .414063 12.121094 10.230469 21.9375 22.351563 22.351563 3.695313.128906 7.621094.207031 11.691406.207031 9.597657 0 20.003907-.429688 30.101563-1.667969 4.199218 14.738281 10.234375 29.078125 14.847656 39.058594 3.878906 8.394531 12.28125 13.433594 21.074219 13.433594 2.738281 0 5.515625-.488282 8.203125-1.515626 9.757812-3.726562 23.425781-9.46875 36.332031-16.695312 8.671875 10.878906 18.703125 21.050781 27.398437 29.167969 4.429688 4.136719 10.117188 6.207031 15.804688 6.207031s11.375-2.070312 15.804688-6.210938c9.070312-8.46875 19.59375-19.171874 28.519531-30.585937 13.386719 7.449219 27.796875 13.324219 38.113281 17.121094 2.609375.960937 5.292969 1.414062 7.941406 1.414062 8.894532 0 17.375-5.160156 21.191406-13.691406 4.265626-9.53125 9.871094-23.257813 13.882813-37.492187 9.53125 1.074218 19.277344 1.453124 28.308594 1.453124 4.070312 0 7.996093-.078124 11.691406-.203124 12.121094-.414063 21.9375-10.234376 22.351563-22.355469.425781-12.402344.296874-27.410157-1.460938-41.789063 14.734375-4.199218 29.078125-10.234375 39.054688-14.847656 11.011718-5.089844 16.246093-17.949219 11.921874-29.28125-3.730468-9.757812-9.472656-23.429688-16.699218-36.328125 10.882812-8.675781 21.050781-18.707031 29.171875-27.398437 8.277343-8.863282 8.277343-22.75 0-31.613282zm-31.875-82.070312c3.902343 1.742187 5.800781 6.25 4.328125 10.257812-3.46875 9.425782-8.746094 22.425782-15.355469 34.5625-4.199219-2.65625-8.421875-4.964844-12.59375-6.789062-3.785156-12.253906-8.695313-24.019532-14.617187-35.167969 1.871093-4.761719 3.355468-10.003906 4.515624-15.511719 12.753907 3.726563 25.050782 8.765625 33.722657 12.648438zm-217.917969 286.160156c-103.820312 0-188.285156-84.464844-188.285156-188.285156 0-103.820313 84.464844-188.28125 188.285156-188.28125s188.28125 84.464844 188.28125 188.285156-84.460938 188.28125-188.28125 188.28125zm164.941406-361.097656c4.265625.148437 7.726563 3.605468 7.871094 7.875.449219 13.132812.378906 34.742187-3.542969 52.476562-14.988281-22.480468-34.328125-41.820312-56.808593-56.808594 17.734374-3.921874 39.34375-3.988281 52.480468-3.542968zm-80.058594-50.488282c3.988282-1.523437 8.519532.316407 10.3125 4.195313 4.214844 9.121094 9.671876 22.042969 13.582032 35.292969-4.871094 1.101562-9.507813 2.460937-13.765625 4.132812-11.148438-5.917968-22.914063-10.832031-35.167969-14.613281-2.039062-4.671875-4.691406-9.40625-7.753906-14.101563 11.65625-6.386718 23.917968-11.519531 32.792968-14.90625zm-90.449218-15.523437c3.121094-2.917969 8.011718-2.917969 11.132812 0 9.582032 8.949219 24.769532 24.234375 34.542969 39.515625-12.972656-2.605469-26.386719-3.972656-40.109375-3.972656-13.726562 0-27.136719 1.367187-40.109375 3.972656 9.773437-15.285156 24.957031-30.566406 34.542969-39.515625zm-92.3125 20.90625c1.746094-3.898437 6.25-5.796875 10.261718-4.324219 9.425782 3.464844 22.421876 8.742188 34.558594 15.351563-2.65625 4.203125-4.964844 8.425781-6.789062 12.597656-12.253906 3.78125-24.015625 8.695313-35.164063 14.613281-4.765625-1.871094-10.007812-3.351562-15.515625-4.511718 3.726563-12.753907 8.769532-25.054688 12.648438-33.726563zm-74.933594 52.980469c.144531-4.269532 3.601562-7.726563 7.871094-7.875 13.136718-.445313 34.742187-.375 52.480468 3.546875-22.480468 14.984375-41.824218 34.324219-56.808593 56.808593-3.921875-17.738281-3.992188-39.347656-3.542969-52.480468zm-50.492188 80.054687c-1.523437-3.988281.320313-8.519531 4.199219-10.3125 9.113281-4.210937 22.035157-9.671875 35.292969-13.578125 1.097656 4.867188 2.457031 9.507813 4.128906 13.761719-5.917968 11.152344-10.832031 22.914063-14.613281 35.167969-4.671875 2.042968-9.40625 4.691406-14.101563 7.753906-6.386718-11.652344-11.515624-23.914062-14.90625-32.792969zm-15.523437 90.453125c-2.914063-3.121094-2.914063-8.011718 0-11.136718 8.949219-9.582032 24.234375-24.769532 39.515625-34.539063-2.605469 12.96875-3.972656 26.382813-3.972656 40.109375 0 13.722656 1.367187 27.136719 3.972656 40.105469-15.28125-9.769531-30.566406-24.957031-39.515625-34.539063zm20.90625 92.308594c-3.898437-1.742188-5.796875-6.25-4.324219-10.257812 3.46875-9.425782 8.746094-22.425782 15.355469-34.558594 4.199219 2.652344 8.421875 4.960937 12.59375 6.785156 3.78125 12.253906 8.695313 24.019531 14.613281 35.167969-1.871094 4.761719-3.351562 10.003906-4.511718 15.511719-12.753907-3.726563-25.054688-8.765626-33.726563-12.648438zm52.980469 74.9375c-4.269532-.148438-7.726563-3.605469-7.871094-7.875-.449219-13.132812-.378906-34.742188 3.542969-52.476562 14.984375 22.480468 34.324219 41.820312 56.808593 56.808593-17.738281 3.921875-39.34375 3.988281-52.480468 3.542969zm80.058594 50.488281c-3.992188 1.523438-8.523438-.316406-10.3125-4.195312-4.214844-9.117188-9.675782-22.039063-13.582032-35.292969 4.867188-1.097656 9.507813-2.460938 13.765625-4.132812 11.148438 5.921874 22.910157 10.832031 35.167969 14.617187 2.039062 4.671875 4.691406 9.40625 7.75 14.101563-11.652344 6.382812-23.914062 11.515624-32.789062 14.902343zm90.449218 15.527344c-3.121094 2.914063-8.011718 2.914063-11.132812 0-9.585938-8.953125-24.769532-24.234375-34.542969-39.519531 12.972656 2.605468 26.382813 3.972656 40.109375 3.972656s27.136719-1.367188 40.109375-3.972656c-9.773437 15.285156-24.960937 30.566406-34.542969 39.519531zm92.3125-20.910156c-1.746094 3.902343-6.253906 5.800781-10.261718 4.324219-9.425782-3.464844-22.425782-8.742188-34.558594-15.351563 2.652344-4.199219 4.964844-8.421875 6.785156-12.597656 12.253906-3.78125 24.019531-8.691407 35.167969-14.613281 4.761719 1.871093 10.003906 3.351562 15.511719 4.515624-3.722657 12.753907-8.765626 25.050782-12.644532 33.722657zm74.933594-52.980469c-.144531 4.269531-3.605469 7.726562-7.871094 7.875-13.136718.445312-34.742187.378906-52.480468-3.546875 22.480468-14.984375 41.824218-34.324219 56.808593-56.804687 3.921875 17.734374 3.992188 39.34375 3.542969 52.476562zm50.492188-80.054688c1.523437 3.988282-.320313 8.519532-4.199219 10.3125-9.117188 4.214844-22.039063 9.671876-35.292969 13.582032-1.097656-4.871094-2.460938-9.511719-4.132812-13.765625 5.921874-11.148438 10.832031-22.914063 14.617187-35.167969 4.671875-2.042969 9.40625-4.691406 14.101563-7.753906 6.382812 11.652344 11.515624 23.914062 14.90625 32.792968zm15.523437-79.316406c-8.949219 9.582032-24.234375 24.769532-39.519531 34.539063 2.609375-12.96875 3.976562-26.382813 3.976562-40.105469 0-13.726562-1.371094-27.140625-3.976562-40.109375 15.285156 9.773437 30.570312 24.957031 39.519531 34.539063 2.914063 3.121093 2.914063 8.015624 0 11.136718zm0 0"></path></svg>