<!-- icon666.com - MILLIONS OF FREE VECTOR ICONS --><svg id="Capa_1" enable-background="new 0 0 356.843 356.843" viewBox="0 0 356.843 356.843" xmlns="http://www.w3.org/2000/svg"><g><circle cx="178.163" cy="19.382" fill="#474c5b" r="15.938"></circle><path d="m232.806 295.566-49.504 1.33 6.109 37.204s45.163 5.489 52.399 5.24c7.236-.25 55.393-13.474 55.393-13.474l16.219-13.474.998-10.729z" fill="#2f4859"></path><path d="m328.911 293.611c-15.81-4.373-96.097 1.963-96.097 1.963l-81.594-.009 32.915 34.78s-.186-11.399 21.662-7.65c21.849 3.749 46.42-7.556 64.585-12.938 18.164-5.382 39.356-1.009 39.356-1.009s-33.638 2.018-64.248 11.773c-30.611 9.755-51.466 7.4-51.466 7.4-4.372-3.364-10.091-13.119-19.846-10.428s-8.073 8.073-16.483 13.455c-8.409 5.382-14.128-.337-23.21 0-9.082.336-11.773-.337-21.192 8.073-9.418 8.409-1.009 13.119 9.418 10.764 10.428-2.355 16.483 2.354 40.029 3.027s86.449.673 122.778 0 55.502-23.546 59.875-33.638c4.374-10.089-.672-21.19-16.482-25.563z" fill="#4d5c7d"></path><path d="m129.736 295.337s-51.428 2.493-64.519 0-38.961 5.61-46.753 17.766 3.74 26.493 17.766 32.727 16.519 4.675 41.454 5.922 41.454 1.885 53.298 1.566 31.758-.505 31.758-.505l31.826-3.243-6.285-27.244-4.98-25.431z" fill="#4d5c7d"></path><path d="m352.374 268.235c-.83 7.021-6.192 7.021-6.192 7.021s0 0-.405-3.723c-.405-3.704-1.658-3.852-2.47-3.852-.829 0-2.119 2.857-2.064 7.022.037 4.165-2.617 7.556-4.405 7.832s-1.105-3.704-1.105-3.704c6.597-7.298 6.376-12.163 6.376-12.163 1.585-8.09-4.183-6.929-4.183-6.929-1.603 8.809-10.118 17.286-10.118 17.286s-11.223 1.806-16.605 1.806c-5.381 0-40.36-26.022-48.874-40.821-8.532-14.798-4.939-69.515-6.284-86.561-1.345-17.047-5.381-16.605-24.216-21.525-5.4-1.419-10.247-2.543-14.448-3.575-4.423-1.087-8.091-2.082-10.929-3.244-3.851-1.567-6.1-3.409-6.468-6.192-.903-6.727 0-21.986 0-21.986l-21.562 1.382-21.562-1.382s.903 15.259 0 21.986c-.368 2.783-2.617 4.626-6.468 6.192-2.838 1.161-6.506 2.156-10.929 3.244-4.201 1.032-9.049 2.156-14.448 3.575-18.835 4.921-22.871 4.478-24.216 21.525s2.248 71.763-6.284 86.561c-8.514 14.799-43.493 40.821-48.874 40.821s-16.605-1.806-16.605-1.806-8.514-8.477-10.118-17.286c0 0-5.769-1.161-4.183 6.929 0 0-.221 4.865 6.376 12.163 0 0 .682 3.981-1.105 3.704-1.788-.276-4.442-3.668-4.405-7.832.055-4.165-1.235-7.022-2.064-7.022-.811 0-2.064.147-2.47 3.852-.405 3.723-.405 3.723-.405 3.723s-5.363 0-6.192-7.021c0 0-6.192-1.659-3.999 7.832 2.211 9.509 7.851 19.277 19.811 21.599 0 0 15.259 3.557 33.08-5.953 17.821-9.509 43.954-20.198 50.772-25.838 6.837-5.639 10.771-3.806 14.246-14.541 2.907-8.981 7.891-50.097 7.502-63.979 2.566 12.743 9.339 48.451 7.647 62.486-2.082 17.231-7.722 24.953-9.491 45.723h54.384 54.384c-1.769-20.77-7.409-28.491-9.491-45.723-1.692-14.035 5.081-49.743 7.647-62.486-.389 13.882 4.595 54.998 7.502 63.979 3.474 10.735 7.409 8.901 14.246 14.541 6.819 5.639 32.951 16.328 50.772 25.838s33.08 5.953 33.08 5.953c11.96-2.322 17.6-12.089 19.811-21.599 2.193-9.49-3.999-7.832-3.999-7.832z" fill="#f7be56"></path><path d="m223.315 249.843c-1.88-15.591 6.69-57.941 8.33-65.829-.018-.829-.037-1.272-.037-1.272s-15.978-33.781-14.227-56.393c-4.423-1.087-8.091-2.082-10.929-3.244-.184 3.428-.719 11.463-1.935 20.806-1.64 12.458-4.092 25.69-23.848 26.464-.829.037-1.548.055-2.248.092-.701-.037-1.419-.055-2.248-.092-19.756-.774-22.207-14.006-23.848-26.464-1.216-9.344-1.751-17.379-1.935-20.806-2.838 1.161-6.506 2.156-10.929 3.244 1.751 22.612-14.227 56.393-14.227 56.393s-.018.442-.037 1.272c1.64 7.888 10.21 50.238 8.33 65.829-2.082 17.231-7.722 24.953-9.491 45.723h54.384 54.384c-1.767-20.77-7.406-28.492-9.489-45.723z" fill="#ebf0f3"></path><path d="m50.155 317.605s41.33-2.952 62.979 8.364c0 0 36.41 3.444 44.774 6.396l8.364-7.554s-16.729-5.239-27.061-5.239-22.141 1.968-22.141 1.968-50.678-9.347-66.915-3.935z" fill="#2f4859"></path><path d="m193.237 327.263c-4.273-3.812-9.878-12.302-19.06-9.769-9.755 2.691-8.073 8.073-16.483 13.455-8.409 5.382-14.128-.337-23.21 0-9.082.336-11.773-.337-21.192 8.073-9.418 8.409-1.009 13.119 9.418 10.764 10.428-2.355 16.483 2.354 40.029 3.027 7.149.204 17.937.346 30.497.427v-25.977z" fill="#fcd462"></path><ellipse cx="178.163" cy="67.803" fill="#474c5b" rx="38.218" ry="46.514"></ellipse><path d="m178.794 36.502c-11.889 41.455-31.66 18.56-31.66 41.455s14.175 41.455 31.66 41.455c17.486 0 31.66-18.56 31.66-41.455s-26.84-58.263-31.66-41.455z" fill="#fcd462"></path></g></svg>