<!-- icon666.com - MILLIONS vector ICONS FREE --><svg id="Capa_1" enable-background="new 0 0 512 512" viewBox="0 0 512 512" xmlns="http://www.w3.org/2000/svg"><g><g><path d="m468.439 228.63h-424.878c-19.916 0-36.061-16.145-36.061-36.061 0-19.916 16.145-36.061 36.061-36.061h424.878c19.916 0 36.061 16.145 36.061 36.061 0 19.916-16.145 36.061-36.061 36.061z" fill="#e8edf2"></path><path d="m468.439 300.751h-424.878c-19.916 0-36.061-16.145-36.061-36.061 0-19.916 16.145-36.061 36.061-36.061h424.878c19.916 0 36.061 16.145 36.061 36.061 0 19.916-16.145 36.061-36.061 36.061z" fill="#d9e7ec"></path><path d="m468.439 372.873h-424.878c-19.916 0-36.061-16.145-36.061-36.061 0-19.916 16.145-36.061 36.061-36.061h424.878c19.916 0 36.061 16.145 36.061 36.061 0 19.916-16.145 36.061-36.061 36.061z" fill="#e8edf2"></path><path d="m319.847 349.177c0 5.475-.056 10.918-.164 16.323-2.27 113.334-125.097 113.334-127.366 0-.108-5.406-.164-10.848-.164-16.323 0-118.153 25.92-220.976 47.059-273.99 7.276-18.248 26.301-18.248 33.577 0 21.138 53.015 47.058 155.837 47.058 273.99z" fill="#fe99a0"></path><path d="m272.788 75.187c-3.341-8.38-9.161-12.9-15.182-13.583 19.301 56.67 39.556 149.128 39.556 253.574 0 5.475-.055 10.917-.164 16.323-1.575 78.627-61.166 102.685-98.28 72.215 25.588 73.213 118.988 60.486 120.964-38.215.108-5.406.164-10.848.164-16.323.001-118.154-25.919-220.976-47.058-273.991z" fill="#fd8087"></path><ellipse cx="256" cy="290.448" fill="#fee97d" rx="25.778" ry="25.758"></ellipse></g><g><path d="m512 264.691c0-14.973-7.6-28.203-19.146-36.047 2.261-1.537 4.397-3.292 6.375-5.266 8.236-8.223 12.771-19.164 12.771-30.808 0-24.019-19.555-43.56-43.59-43.56h-164.942c-8.749-36.019-17.652-61.401-23.712-76.599-4.529-11.354-13.632-18.407-23.756-18.407s-19.227 7.054-23.757 18.41c-6.059 15.196-14.962 40.579-23.711 76.598h-76.672c-4.143 0-7.5 3.358-7.5 7.5s3.357 7.5 7.5 7.5h73.174c-4.14 18.613-7.698 37.763-10.628 57.12h-150.816c-15.765 0-28.59-12.812-28.59-28.56 0-7.633 2.973-14.804 8.37-20.193 5.403-5.396 12.584-8.367 20.22-8.367h52.19c4.143 0 7.5-3.358 7.5-7.5s-3.357-7.5-7.5-7.5h-52.19c-11.639 0-22.583 4.529-30.818 12.752-8.237 8.222-12.772 19.163-12.772 30.807 0 14.973 7.6 28.203 19.146 36.047-2.261 1.537-4.397 3.292-6.375 5.266-8.236 8.222-12.771 19.164-12.771 30.807 0 14.973 7.6 28.203 19.146 36.047-2.261 1.537-4.397 3.292-6.375 5.266-8.236 8.222-12.771 19.164-12.771 30.807 0 24.019 19.555 43.56 43.59 43.56h142.25c2.684 22.718 10.576 41.892 23.049 55.739 12.714 14.113 29.444 21.886 47.111 21.886s34.397-7.773 47.111-21.886c12.475-13.849 20.368-33.025 23.05-55.737h62.345c4.143 0 7.5-3.358 7.5-7.5s-3.357-7.5-7.5-7.5h-61.323c.111-5.483.167-10.929.167-16.191 0-13.551-.361-27.281-1.034-40.93h142.094c15.765 0 28.59 12.812 28.59 28.56 0 7.633-2.973 14.804-8.37 20.193-5.403 5.396-12.584 8.367-20.22 8.367h-42.56c-4.143 0-7.5 3.358-7.5 7.5s3.357 7.5 7.5 7.5h42.561c11.639 0 22.583-4.529 30.818-12.752 8.236-8.223 12.771-19.164 12.771-30.808 0-14.973-7.6-28.203-19.146-36.047 2.261-1.537 4.397-3.292 6.375-5.266 8.236-8.223 12.771-19.164 12.771-30.808zm-15-72.12c0 7.633-2.973 14.804-8.37 20.193-5.403 5.396-12.584 8.367-20.22 8.367h-150.816c-2.93-19.357-6.488-38.507-10.628-57.12h161.444c15.765 0 28.59 12.812 28.59 28.56zm-482 72.12c0-7.633 2.973-14.804 8.37-20.193 5.403-5.396 12.584-8.367 20.22-8.367h148.67c-2.534 18.959-4.447 38.107-5.717 57.12h-142.953c-15.765 0-28.59-12.812-28.59-28.56zm0 72.12c0-7.633 2.973-14.804 8.37-20.193 5.403-5.396 12.584-8.367 20.22-8.367h142.094c-.672 13.65-1.033 27.38-1.033 40.93 0 5.263.056 10.709.166 16.19h-141.227c-15.765 0-28.59-12.812-28.59-28.56zm276.967 89.26c-9.832 10.915-22.605 16.926-35.967 16.926s-26.135-6.011-35.967-16.926c-11.469-12.732-18.351-31.307-19.901-53.729-.161-2.267-.266-4.619-.313-6.993-.111-5.477-.168-10.917-.168-16.167 0-15.887.477-32.033 1.417-47.993 1.389-23.77 3.819-47.822 7.227-71.491 3.488-24.268 8-48.254 13.407-71.295.016-.06.037-.117.051-.177 8.973-38.206 18.234-64.732 24.424-80.256 2.24-5.614 5.912-8.966 9.824-8.966s7.584 3.352 9.823 8.965c6.19 15.525 15.452 42.051 24.425 80.257.009.037.026.07.035.107 5.415 23.062 9.931 47.072 13.423 71.366 3.407 23.667 5.838 47.72 7.227 71.493.94 15.956 1.417 32.102 1.417 47.989 0 5.25-.057 10.69-.168 16.171-.048 2.371-.152 4.722-.314 7.001-1.552 22.411-8.433 40.986-19.902 53.718zm196.663-141.187c-5.403 5.396-12.584 8.367-20.22 8.367h-142.953c-1.27-19.015-3.183-38.163-5.716-57.12h148.67c15.765 0 28.59 12.812 28.59 28.56-.001 7.633-2.974 14.804-8.371 20.193z"></path><path d="m256 257.19c-18.35 0-33.278 14.919-33.278 33.258s14.928 33.258 33.278 33.258 33.278-14.919 33.278-33.258-14.928-33.258-33.278-33.258zm0 51.516c-10.079 0-18.278-8.19-18.278-18.258s8.199-18.258 18.278-18.258 18.278 8.19 18.278 18.258-8.199 18.258-18.278 18.258z"></path></g></g></svg>