<!-- icon666.com - MILLIONS OF FREE VECTOR ICONS --><svg id="Capa_1" enable-background="new 0 0 512 512" viewBox="0 0 512 512" xmlns="http://www.w3.org/2000/svg"><g><g><path d="m503.2 256c0 69.31-28.53 131.96-74.48 176.85-44.57 43.53-105.51 70.35-172.72 70.35-136.52 0-247.2-110.68-247.2-247.2 0-88.52 46.54-166.18 116.48-209.85 37.92-23.67 82.72-37.35 130.72-37.35 136.52 0 247.2 110.68 247.2 247.2z" fill="#c7aef5"></path><path d="m445.029 256 21.132-56.494-69.632-9.856 7.796-46.05-53.54-14.614 7.655-47.221-51.216-6.925-51.224-45.592-51.224 45.592-47.791 12.855 4.23 41.291-55.054 8.685 9.31 51.979-73.686 4.225 25.186 62.125-31.115 57.069 79.615 9.281-16.933 50.803 62.677 9.861-7.655 50.28 51.216 3.866 51.224 52.04 51.224-52.04 51.216-10.643-7.655-43.503 62.011-9.861-16.267-50.803 66.243-9.281z" fill="#a587e8"></path><g fill="#937ae2"><path d="m117.44 189.65-1.13 1.48-.84-1.48z"></path><path d="m190.95 322.35-.06.13-.08-.13z"></path><path d="m321.19 322.35-.08.13-.06-.13z"></path><path d="m396.53 189.65-.84 1.48-1.13-1.48z"></path><path d="m163.59 128.99-1.45 1.9-.93-1.9z"></path><path d="m115.47 189.65h1.97l-1.13 1.48z"></path><path d="m349.86 130.89-1.45-1.9h2.38z"></path><path d="m190.95 189.65h-.14l.08-.13z"></path><path d="m190.95 322.35-.06.13-.08-.13z"></path><path d="m321.19 322.35-.08.13-.06-.13z"></path><path d="m321.19 189.65h-.14l.06-.13z"></path><path d="m396.53 189.65-.84 1.48-1.13-1.48z"></path><path d="m161.21 128.99h2.38l-1.45 1.9z"></path><path d="m350.79 128.99-.93 1.9-1.45-1.9z"></path><path d="m225.26 128.99-34.37 60.53-28.75-58.63 1.45-1.9z"></path><path d="m190.81 189.65-37.67 66.35-36.83-64.87 1.13-1.48z"></path><path d="m116.31 320.87 1.13 1.48h-1.97z"></path><path d="m395.69 320.87.84 1.48h-1.97z"></path><path d="m395.69 191.13-36.83 64.87-37.67-66.35h73.37z"></path><path d="m349.86 130.89-28.75 58.63-34.37-60.53h61.67z"></path><path d="m190.95 189.65h-.14l.08-.13z"></path><path d="m321.19 189.65h-.14l.06-.13z"></path><path d="m286.74 128.99h-61.48l30.74-54.15z"></path><path d="m190.81 322.35h-73.37l-1.13-1.48 36.83-64.87z"></path><path d="m116.31 320.87 1.13 1.48h-1.97z"></path><path d="m162.14 381.11 1.45 1.9h-2.38z"></path><path d="m348.41 383.01 1.45-1.9.93 1.9z"></path><path d="m395.69 320.87-1.13 1.48h-73.37l37.67-66.35z"></path><path d="m256 189.65-32.52 66.34-32.53-66.34z"></path><path d="m190.95 189.65h-.14l.08-.13z"></path><path d="m321.05 189.65-32.53 66.34-32.52-66.34z"></path><path d="m190.95 322.35-.06.13-.08-.13z"></path><path d="m321.19 322.35-.08.13-.06-.13z"></path><path d="m321.19 189.65h-.14l.06-.13z"></path><path d="m396.53 322.35h-1.97l1.13-1.48z"></path></g><g fill="#b295f3"><path d="m494.206 191.351-49.176 64.649-49.34-64.87.84-1.48h96.833c.876 0 1.374 1.004.843 1.701z"></path><path d="m307.22 437.16-49.628 65.247c-.8 1.052-2.383 1.052-3.184 0l-49.628-65.247z"></path><path d="m116.31 191.13-49.34 64.87-49.176-64.649c-.531-.698-.033-1.701.843-1.701h96.833z"></path><path d="m429.274 131.977-32.744 57.673h-1.97l-44.7-58.76.93-1.9h76.745c1.533 0 2.496 1.654 1.739 2.987z"></path><path d="m162.14 130.89-44.7 58.76h-1.97l-32.744-57.673c-.757-1.333.206-2.987 1.739-2.987h76.745z"></path><path d="m375.918 77.72-25.128 51.27h-2.38l-41.19-54.15h66.902c1.48 0 2.448 1.551 1.796 2.88z"></path><path d="m204.78 74.84-41.19 54.15h-2.38l-25.128-51.27c-.651-1.329.316-2.88 1.796-2.88z"></path><path d="m493.363 322.35h-96.833l-.84-1.48 49.34-64.87 49.176 64.649c.531.697.033 1.701-.843 1.701z"></path><path d="m116.31 320.87-.84 1.48h-96.833c-.876 0-1.374-1.003-.843-1.701l49.176-64.649z"></path><path d="m307.22 74.84h-102.44l49.628-65.247c.8-1.052 2.383-1.052 3.184 0z"></path><path d="m427.535 383.01h-76.745l-.93-1.9 44.7-58.76h1.97l32.744 57.673c.757 1.333-.206 2.987-1.739 2.987z"></path><path d="m162.14 381.11-.93 1.9h-76.745c-1.533 0-2.496-1.654-1.739-2.987l32.744-57.673h1.97z"></path><path d="m374.122 437.16h-66.902l41.19-54.15h2.38l25.128 51.27c.652 1.329-.316 2.88-1.796 2.88z"></path><path d="m204.78 437.16h-66.902c-1.48 0-2.447-1.551-1.796-2.88l25.128-51.27h2.38z"></path></g><path d="m225.26 383.01h-61.67l-1.45-1.9 28.75-58.63z" fill="#937ae2"></path><path d="m162.14 381.11 1.45 1.9h-2.38z" fill="#937ae2"></path><path d="m286.74 383.01-30.74 54.15-30.74-54.15z" fill="#937ae2"></path><path d="m349.86 381.11-1.45 1.9h-61.67l34.37-60.53z" fill="#937ae2"></path><path d="m321.05 322.35h-65.05l32.52-66.35z" fill="#937ae2"></path><path d="m256 322.35h-65.05l32.53-66.35z" fill="#937ae2"></path><path d="m350.79 383.01h-2.38l1.45-1.9z" fill="#937ae2"></path></g><path d="m444.309 82.575c-2.807-3.047-7.552-3.24-10.598-.434-3.046 2.807-3.24 7.552-.434 10.598 23.927 25.967 41.58 56.477 52.165 89.411h-76.031l28.082-49.46c1.318-2.322 1.303-5.169-.041-7.477s-3.812-3.727-6.481-3.727h-68.157l21.247-43.345c1.14-2.325 1-5.073-.37-7.27s-3.775-3.532-6.364-3.532h-66.385l-39.431-51.837c50.019 3.245 98.179 22.102 137.043 53.917 3.205 2.624 7.931 2.152 10.554-1.052 2.624-3.205 2.153-7.931-1.052-10.554-45.541-37.281-103.094-57.813-162.056-57.813-68.38 0-132.667 26.628-181.02 74.981-48.352 48.352-74.98 112.639-74.98 181.019 0 40.104 9.014 78.506 26.792 114.139 1.312 2.631 3.963 4.153 6.717 4.153 1.125 0 2.268-.254 3.342-.791 3.707-1.849 5.212-6.353 3.363-10.059-5.453-10.93-10.014-22.142-13.706-33.593h76.08l-28.082 49.46c-1.318 2.322-1.303 5.169.041 7.477s3.812 3.727 6.481 3.727h68.157l-21.247 43.345c-1.14 2.325-1 5.073.37 7.27s3.775 3.532 6.364 3.532h66.385l39.431 51.836c-73.247-4.723-140.759-42.699-182.873-103.619-2.356-3.407-7.027-4.259-10.435-1.904-3.407 2.355-4.26 7.027-1.904 10.435 47.874 69.249 126.649 110.592 210.724 110.592 68.38 0 132.667-26.628 181.02-74.981 48.352-48.352 74.98-112.639 74.98-181.019 0-64.461-24.04-126.051-67.691-173.425zm52.691 173.425c0 16.88-1.753 33.358-5.071 49.268l-37.477-49.268 37.481-49.273c3.343 16.072 5.067 32.569 5.067 49.273zm-51.971-12.388-35.343-46.462h70.686zm-215.405 131.902-25.927-45.664h104.606l-25.927 45.664zm44.236 15-17.86 31.456-17.86-31.456zm8.516-254.028 25.927 45.664h-104.606l25.927-45.664zm-44.236-15 17.86-31.456 17.86 31.456zm17.86 183.825-24.172-49.311 24.172-49.311 24.172 49.311zm32.524-32.271 20.495 41.811h-40.99zm-44.553 41.81h-40.99l20.495-41.811zm-20.495-75.89-20.496-41.81h40.99zm44.553-41.81h40.99l-20.495 41.811zm31.596-60.664h39.131l-18.131 36.987zm-108.251 36.987-18.131-36.987h39.131zm-12.452 8.677h-46.351l28.187-37.055zm-.99 15-24.789 43.66-24.789-43.66zm12.469 8.417 24.722 50.433-24.722 50.433-28.634-50.433zm-12.469 109.283h-49.578l24.789-43.66zm34.443 60.664h-39.131l18.131-36.987zm108.251-36.987 18.131 36.987h-39.131zm12.452-8.677h46.351l-28.187 37.055zm.99-15 24.789-43.66 24.789 43.66zm-12.469-8.417-24.722-50.433 24.722-50.433 28.634 50.433zm12.469-109.283h49.578l-24.789 43.66zm-.99-15 18.164-37.055 28.187 37.055zm-41.969-60.664-22.226-39.146h34.623l29.778 39.146zm-70.218 0h-42.175l29.778-39.146h34.623zm-57.36-4.813-16.83-34.333h42.946zm-46.306 60.875-23.314-41.062h54.549zm-1.822 27.171 29.115 51.281-29.116 51.281-39.007-51.281zm-48.432 38.893-35.343-46.462h70.686zm111.951 86.238-18.164 37.055-28.187-37.055zm41.969 60.664 22.226 39.146h-34.623l-29.778-39.146zm70.218 0h42.175l-29.778 39.146h-34.623zm57.36 4.813 16.83 34.333h-42.946zm46.306-60.875 23.314 41.062h-54.549zm-27.293-78.452 29.116-51.281 39.007 51.281-39.008 51.281zm27.293-78.452-31.235-41.062h54.549zm-29.477-95.208-16.83 34.333-26.115-34.333zm-145.394-15 36.096-47.452 36.096 47.452zm20.577-51.826-39.423 51.826h-66.385c-2.589 0-4.995 1.335-6.364 3.532s-1.51 4.945-.37 7.27l21.247 43.345h-68.158c-2.67 0-5.138 1.419-6.481 3.727s-1.359 5.155-.041 7.477l28.082 49.46h-75.999c29.737-92.158 113.56-160.228 213.892-166.637zm-225.481 240.486c0-16.88 1.753-33.358 5.071-49.268l37.477 49.268-37.525 49.331c-3.335-16.067-5.023-32.539-5.023-49.331zm51.971 12.388 35.343 46.462h-70.686zm50.254 66.064 31.235 41.062h-54.549zm29.477 95.208 16.83-34.333 26.116 34.333zm145.394 15-36.096 47.452-36.096-47.452zm-20.577 51.826 39.424-51.827h66.385c2.589 0 4.995-1.335 6.364-3.532s1.51-4.945.37-7.27l-21.247-43.345h68.157c2.67 0 5.138-1.419 6.481-3.727s1.359-5.155.041-7.477l-28.082-49.46h20.354c4.142 0 7.5-3.358 7.5-7.5s-3.358-7.5-7.5-7.5h-20.08l35.343-46.462 35.343 46.462h-15.202c-4.142 0-7.5 3.358-7.5 7.5s3.358 7.5 7.5 7.5h20.24c-29.736 92.159-113.559 160.229-213.891 166.638z"></path></g></svg>