<!-- icon666.com - MILLIONS OF FREE VECTOR ICONS --><svg id="Capa_1" enable-background="new 0 0 512 512" viewBox="0 0 512 512" xmlns="http://www.w3.org/2000/svg"><g><path d="m512 256c0 71.777-29.546 136.658-77.131 183.146-46.157 45.079-109.266 72.854-178.869 72.854-141.38 0-256-114.62-256-256 0-91.671 48.197-172.096 120.627-217.32 39.269-24.513 85.664-38.68 135.373-38.68 141.38 0 256 114.62 256 256z" fill="#c7aef5"></path><path d="m451.758 256 21.884-58.505-72.11-10.207 8.074-47.689-55.446-15.134 7.927-48.902-53.039-7.172-53.048-47.215-53.048 47.215-49.492 13.312 4.38 42.762-57.013 8.994 9.641 53.829-76.309 4.375 26.083 64.337-32.223 59.101 82.449 9.611-17.536 52.611 64.908 10.212-7.927 52.07 53.039 4.004 53.048 53.892 53.048-53.892 53.039-11.021-7.927-45.053 64.218-10.212-16.846-52.611 68.601-9.611z" fill="#a587e8"></path><g fill="#937ae2"><path d="m112.507 187.288-1.17 1.533-.87-1.533z"></path><path d="m188.634 324.712-.062.135-.083-.135z"></path><path d="m323.511 324.712-.083.135-.062-.135z"></path><path d="m401.533 187.288-.87 1.533-1.17-1.533z"></path><path d="m160.3 124.469-1.501 1.967-.963-1.967z"></path><path d="m110.467 187.288h2.04l-1.17 1.533z"></path><path d="m353.201 126.436-1.501-1.967h2.464z"></path><path d="m188.634 187.288h-.145l.083-.135z"></path><path d="m188.634 324.712-.062.135-.083-.135z"></path><path d="m323.511 324.712-.083.135-.062-.135z"></path><path d="m323.511 187.288h-.145l.062-.135z"></path><path d="m401.533 187.288-.87 1.533-1.17-1.533z"></path><path d="m157.836 124.469h2.464l-1.501 1.967z"></path><path d="m354.164 124.469-.963 1.967-1.501-1.967z"></path><path d="m224.166 124.469-35.594 62.684-29.773-60.717 1.501-1.967z"></path><path d="m188.489 187.288-39.011 68.712-38.141-67.179 1.17-1.533z"></path><path d="m111.337 323.179 1.17 1.533h-2.04z"></path><path d="m400.663 323.179.87 1.533h-2.04z"></path><path d="m400.663 188.821-38.141 67.179-39.011-68.712h75.982z"></path><path d="m353.201 126.436-29.773 60.717-35.594-62.684h63.866z"></path><path d="m188.634 187.288h-.145l.083-.135z"></path><path d="m323.511 187.288h-.145l.062-.135z"></path><path d="m287.834 124.469h-63.668l31.834-56.078z"></path><path d="m188.489 324.712h-75.982l-1.17-1.533 38.141-67.179z"></path><path d="m111.337 323.179 1.17 1.533h-2.04z"></path><path d="m158.799 385.564 1.501 1.967h-2.464z"></path><path d="m351.7 387.531 1.501-1.967.963 1.967z"></path><path d="m400.663 323.179-1.17 1.533h-75.982l39.011-68.712z"></path><path d="m256 187.288-33.678 68.702-33.688-68.702z"></path><path d="m188.634 187.288h-.145l.083-.135z"></path><path d="m323.366 187.288-33.688 68.702-33.678-68.702z"></path><path d="m188.634 324.712-.062.135-.083-.135z"></path><path d="m323.511 324.712-.083.135-.062-.135z"></path><path d="m323.511 187.288h-.145l.062-.135z"></path><path d="m401.533 324.712h-2.04l1.17-1.533z"></path></g><g fill="#b295f3"><path d="m502.686 189.05-50.927 66.95-51.096-67.179.87-1.533h100.28c.907 0 1.422 1.039.873 1.762z"></path><path d="m309.043 443.609-51.395 67.57c-.829 1.09-2.468 1.09-3.297 0l-51.395-67.57z"></path><path d="m111.337 188.821-51.096 67.179-50.927-66.95c-.55-.722-.034-1.762.873-1.762h100.28z"></path><path d="m435.442 127.562-33.909 59.726h-2.04l-46.291-60.852.963-1.968h79.477c1.587.001 2.584 1.714 1.8 3.094z"></path><path d="m158.799 126.436-46.291 60.852h-2.04l-33.909-59.726c-.784-1.381.213-3.094 1.801-3.094h79.477z"></path><path d="m380.187 71.374-26.023 53.095h-2.464l-42.656-56.078h69.284c1.532 0 2.534 1.607 1.859 2.983z"></path><path d="m202.957 68.391-42.657 56.078h-2.465l-26.023-53.095c-.674-1.376.327-2.983 1.86-2.983z"></path><path d="m501.813 324.712h-100.28l-.87-1.533 51.096-67.179 50.927 66.95c.549.723.034 1.762-.873 1.762z"></path><path d="m111.337 323.179-.87 1.533h-100.28c-.908 0-1.423-1.039-.873-1.762l50.927-66.95z"></path><path d="m309.043 68.391h-106.086l51.395-67.57c.829-1.09 2.468-1.09 3.297 0z"></path><path d="m433.641 387.531h-79.477l-.963-1.968 46.291-60.852h2.04l33.909 59.726c.785 1.381-.212 3.094-1.8 3.094z"></path><path d="m158.799 385.564-.963 1.968h-79.477c-1.588 0-2.585-1.713-1.801-3.094l33.909-59.726h2.04z"></path><path d="m378.327 443.609h-69.284l42.656-56.078h2.465l26.023 53.095c.675 1.376-.327 2.983-1.86 2.983z"></path><path d="m202.957 443.609h-69.284c-1.533 0-2.534-1.607-1.86-2.983l26.023-53.095h2.465z"></path></g><path d="m224.166 387.531h-63.866l-1.501-1.967 29.773-60.717z" fill="#937ae2"></path><path d="m158.799 385.564 1.501 1.967h-2.464z" fill="#937ae2"></path><path d="m287.834 387.531-31.834 56.078-31.834-56.078z" fill="#937ae2"></path><path d="m353.201 385.564-1.501 1.967h-63.866l35.594-62.684z" fill="#937ae2"></path><path d="m323.366 324.712h-67.366l33.678-68.712z" fill="#937ae2"></path><path d="m256 324.712h-67.366l33.688-68.712z" fill="#937ae2"></path><path d="m354.164 387.531h-2.464l1.501-1.967z" fill="#937ae2"></path></g></svg>