<!-- icon666.com - MILLIONS OF FREE VECTOR ICONS --><svg xmlns="http://www.w3.org/2000/svg" id="Line_Expand" data-name="Line Expand" viewBox="0 0 64 64"><path d="M32,1.5A30.5,30.5,0,1,0,62.5,32,30.534,30.534,0,0,0,32,1.5Zm28.246,22H49.591l3.491-6.256a.5.5,0,0,0-.437-.744H44.219l3.115-6.278a.5.5,0,0,0-.447-.722H38.335L33.029,2.526A29.549,29.549,0,0,1,60.246,23.5Zm-45.994,16H4.1l5.078-6.674ZM4.1,24.5H14.252L9.174,31.174ZM9.8,32,15.2,24.911,19.152,32,15.2,39.089Zm38.873-8.911L44.422,17.5h7.371ZM28.388,46.5l-3.348-6H38.96l-3.348,6Zm6.666,1L32,52.974,28.946,47.5Zm.558-30,3.348,6H25.04l3.348-6Zm-6.666-1L32,11.026,35.054,16.5ZM32,38.875,28.588,32,32,25.125,35.412,32Zm3.97-5.75L39.133,39.5H32.806ZM31.194,39.5H24.867l3.163-6.375ZM28.03,30.875,24.867,24.5h6.327ZM32.806,24.5h6.327L35.97,30.875Zm7.048-1.451-3.1-5.549h5.849ZM43.5,17.944,47.73,23.5H40.746ZM24.146,23.049,21.393,17.5h5.849Zm-.892.451H16.27L20.5,17.944Zm.083,1-3.612,6.474L16.112,24.5Zm.758.694L27.472,32,24.1,38.806,20.3,32ZM23.337,39.5H16.112l3.613-6.474Zm-.083,1L20.5,46.056,16.27,40.5Zm.892.451,3.1,5.549h-5.85Zm15.708,0L42.607,46.5h-5.85Zm.892-.451H47.73L43.5,46.056Zm-.083-1,3.612-6.474L47.888,39.5Zm-.758-.694L36.528,32l3.377-6.806L43.7,32ZM40.663,24.5h7.225l-3.613,6.474Zm1.741-8H36.2l-3.348-6h4.987Zm-3.308-6h6.985l-2.758,5.556Zm-11.3,6H21.6l4.565-6h4.987Zm-7.123-.444L17.919,10.5H24.9Zm-5.352,7.033L12.207,17.5h7.371Zm0,17.822L19.578,46.5H12.207ZM21.6,47.5h6.2l3.348,6H26.161Zm3.308,6H17.919l2.758-5.556Zm11.3-6h6.2l-4.565,6H32.852Zm7.123.444L46.081,53.5H39.1Zm5.352-7.033L51.793,46.5H44.422ZM44.848,32,48.8,24.911,54.2,32,48.8,39.089Zm9.978.826L59.9,39.5H49.748ZM49.748,24.5H59.9l-5.078,6.674Zm-12.67-15H26.922L32,2.826ZM30.971,2.526,25.665,9.5H17.113a.5.5,0,0,0-.447.722L19.781,16.5H11.355a.5.5,0,0,0-.437.744L14.409,23.5H3.754A29.549,29.549,0,0,1,30.971,2.526ZM2.5,32a29.434,29.434,0,0,1,.817-6.872L8.546,32,3.317,38.872A29.434,29.434,0,0,1,2.5,32Zm1.254,8.5H14.409l-3.491,6.256a.5.5,0,0,0,.437.744h8.426l-3.115,6.278a.5.5,0,0,0,.447.722h8.552l5.306,6.974A29.549,29.549,0,0,1,3.754,40.5Zm23.168,14H37.078L32,61.174Zm6.107,6.974L38.335,54.5h8.552a.5.5,0,0,0,.447-.722L44.219,47.5h8.426a.5.5,0,0,0,.437-.744L49.591,40.5H60.246A29.549,29.549,0,0,1,33.029,61.474ZM55.454,32l5.229-6.872a29.31,29.31,0,0,1,0,13.744Z"></path></svg>