<!-- icon666.com - MILLIONS vector ICONS FREE --><svg id="Layer_35" enable-background="new 0 0 64 64" viewBox="0 0 64 64" xmlns="http://www.w3.org/2000/svg" xmlns:xlink="http://www.w3.org/1999/xlink"><linearGradient id="SVGID_1_" gradientUnits="userSpaceOnUse" x1="32" x2="32" y1="63" y2="1"><stop offset="0" stop-color="#9f2fff"></stop><stop offset="1" stop-color="#0bb1d3"></stop></linearGradient><path d="m6 45h9.753c-.488 1.582-.753 3.26-.753 5v1c0 .719.156 1.418.444 2.056-2.493.281-4.444 2.377-4.444 4.944 0 2.757 2.243 5 5 5h20 1.338 10.662c2.757 0 5-2.243 5-5 0-2.567-1.951-4.663-4.444-4.944.288-.638.444-1.337.444-2.056v-1c0-1.74-.265-3.418-.753-5h9.753c2.757 0 5-2.243 5-5 0-2.567-1.951-4.663-4.444-4.944.288-.638.444-1.337.444-2.056v-1c0-7.82-5.314-14.405-12.515-16.38 2.12-1.44 3.515-3.87 3.515-6.62 0-4.411-3.589-8-8-8s-8 3.589-8 8c0 2.747 1.393 5.174 3.508 6.615-1.976.542-3.844 1.443-5.508 2.655-1.664-1.212-3.532-2.113-5.508-2.655 2.115-1.441 3.508-3.868 3.508-6.615 0-4.411-3.589-8-8-8s-8 3.589-8 8c0 2.75 1.395 5.18 3.515 6.62-7.201 1.975-12.515 8.56-12.515 16.38v1c0 .719.156 1.418.444 2.056-2.493.281-4.444 2.377-4.444 4.944 0 2.757 2.243 5 5 5zm20-18c0-3.309 2.691-6 6-6s6 2.691 6 6-2.691 6-6 6-6-2.691-6-6zm9.056 27.549c.581-.694.944-1.576.944-2.549 0-.732-.212-1.409-.556-2h5.556c1.654 0 3-1.346 3-3v-3h-2v3c0 .551-.449 1-1 1h-3v-7c0-1.469.468-2.89 1.325-4.077 4.574 2.572 7.675 7.466 7.675 13.077v1c0 .799-.33 1.546-.889 2.107zm12.412-11.562c-.589-1.293-1.328-2.501-2.207-3.596l2.291.299c.826.107 1.448.815 1.448 1.647 0 .873-.677 1.582-1.532 1.65zm-11.468-1.987v7h-4-4v-7c0-1.768-.53-3.479-1.498-4.942 1.705-.675 3.556-1.058 5.498-1.058s3.793.383 5.498 1.058c-.968 1.463-1.498 3.174-1.498 4.942zm-11.325-4.077c.857 1.187 1.325 2.608 1.325 4.077v7h-3c-.551 0-1-.449-1-1v-3h-2v3c0 1.654 1.346 3 3 3h9c1.103 0 2 .897 2 2s-.897 2-2 2h-7.268l-6.843-.893c-.559-.561-.889-1.308-.889-2.107v-1c0-5.611 3.101-10.505 7.675-13.077zm11.325 24.077h-20c-1.654 0-3-1.346-3-3s1.346-3 3-3h.74c.129 0 .259.008.388.025l20.424 2.664c.826.108 1.448.816 1.448 1.648 0 .917-.746 1.663-1.662 1.663zm15-3c0 1.654-1.346 3-3 3h-7.418c.258-.501.418-1.061.418-1.663 0-1.424-.833-2.676-2.055-3.278l7.926-1.034c.129-.017.259-.025.389-.025h.74c1.654 0 3 1.346 3 3zm10-18c0 1.654-1.346 3-3 3h-7.418c.258-.501.418-1.061.418-1.663 0-1.424-.833-2.676-2.055-3.278l7.927-1.034c.129-.017.258-.025.388-.025h.74c1.654 0 3 1.346 3 3zm-25-31c0-3.309 2.691-6 6-6s6 2.691 6 6-2.691 6-6 6-6-2.691-6-6zm21 23v1c0 .799-.33 1.547-.889 2.107l-6.843.893h-6.268c-1.103 0-2-.897-2-2s.897-2 2-2h8c1.654 0 3-1.346 3-3v-3h-2v3c0 .551-.449 1-1 1h-8c-2.206 0-4 1.794-4 4 0 .189.03.37.056.553-.824-.378-1.682-.689-2.57-.933 2.119-1.44 3.514-3.87 3.514-6.62 0-3.696-2.523-6.806-5.934-7.72 2.372-1.489 5.08-2.28 7.934-2.28 8.271 0 15 6.729 15 15zm-41-23c0-3.309 2.691-6 6-6s6 2.691 6 6-2.691 6-6 6-6-2.691-6-6zm-9 23c0-8.271 6.729-15 15-15 2.854 0 5.562.791 7.934 2.28-3.411.914-5.934 4.024-5.934 7.72 0 2.75 1.395 5.18 3.515 6.62-.888.244-1.746.555-2.57.933.025-.183.055-.364.055-.553 0-2.206-1.794-4-4-4h-8c-.551 0-1-.449-1-1v-3h-2v3c0 1.654 1.346 3 3 3h8c1.103 0 2 .897 2 2s-.897 2-2 2h-6.268l-6.844-.893c-.558-.561-.888-1.308-.888-2.107zm-1 5h.74c.13 0 .26.008.388.025l12.273 1.601c-1.17 1.295-2.145 2.765-2.876 4.374h-10.525c-1.654 0-3-1.346-3-3s1.346-3 3-3z" fill="url(#SVGID_1_)"></path></svg>