<?xml version="1.0" standalone="no"?>
<!DOCTYPE svg PUBLIC "-//W3C//DTD SVG 20010904//EN"
 "http://www.w3.org/TR/2001/REC-SVG-20010904/DTD/svg10.dtd">
<svg version="1.0" xmlns="http://www.w3.org/2000/svg"
 width="1280.000000pt" height="946.000000pt" viewBox="0 0 1280.000000 946.000000"
 preserveAspectRatio="xMidYMid meet">
<metadata>
Created by potrace 1.15, written by Peter Selinger 2001-2017
</metadata>
<g transform="translate(0.000000,946.000000) scale(0.100000,-0.100000)"
fill="#6366f1" stroke="none">
<path d="M7690 8834 c-360 -38 -670 -158 -878 -342 -72 -64 -188 -218 -210
-277 -6 -16 -40 -107 -75 -201 -87 -228 -132 -372 -167 -523 -40 -176 -99
-339 -181 -504 -100 -199 -135 -256 -288 -474 -179 -253 -295 -434 -292 -454
1 -9 -68 -135 -154 -280 -250 -422 -337 -616 -394 -883 -41 -190 -99 -315
-246 -532 -57 -83 -116 -176 -130 -205 -26 -50 -59 -88 -79 -89 -18 0 -143
-90 -191 -137 -171 -167 -244 -281 -271 -423 -8 -47 -21 -88 -26 -91 -7 -4
-10 -39 -10 -85 1 -53 -2 -80 -11 -86 -9 -6 -9 -8 1 -8 6 0 12 -4 12 -9 0 -4
-12 -6 -27 -3 -25 5 -27 4 -14 -11 12 -15 11 -17 -5 -17 -17 0 -17 -1 1 -13
19 -15 12 -42 -8 -31 -7 4 -9 4 -5 0 17 -20 -26 -76 -165 -213 -106 -104 -187
-174 -267 -229 -203 -139 -254 -186 -564 -513 -121 -129 -282 -289 -357 -356
l-137 -121 -85 -17 c-47 -9 -117 -17 -155 -17 -60 0 -150 -17 -257 -49 -16 -5
-42 -12 -57 -15 -16 -4 -28 -13 -28 -21 0 -8 -4 -15 -10 -15 -20 0 -9 -39 16
-59 18 -14 42 -21 73 -21 28 0 55 -7 68 -18 22 -16 20 -17 -67 -15 -50 1 -90
-3 -90 -8 0 -5 -9 -9 -20 -9 -25 0 -26 -25 -2 -35 33 -15 48 -17 120 -19 70
-1 72 -2 42 -14 -39 -16 -261 -51 -395 -62 -55 -4 -128 -17 -162 -29 -34 -11
-106 -28 -160 -36 -84 -14 -209 -53 -490 -152 -70 -24 -47 -83 33 -83 21 0 57
-5 78 -11 36 -10 122 -1 171 17 7 3 15 -4 18 -15 3 -13 1 -18 -9 -14 -16 6
-222 -15 -261 -27 l-28 -8 26 -1 c14 -1 34 -9 45 -20 18 -16 38 -19 139 -20
66 -1 125 -7 131 -12 8 -6 105 -8 264 -5 475 10 802 40 824 75 8 12 -60 23
-97 16 -25 -5 -21 -1 19 18 29 14 110 66 180 117 71 51 172 120 224 155 l95
62 115 6 c109 6 198 22 187 34 -12 11 -75 19 -95 12 -43 -16 -12 8 44 35 30
15 104 68 162 119 163 141 184 157 367 267 328 198 393 244 505 359 58 58 143
136 190 171 115 87 154 124 207 193 42 54 46 57 60 40 8 -10 12 -12 8 -5 -13
26 6 10 25 -20 13 -22 20 -27 20 -15 0 9 5 17 10 17 6 0 10 -12 10 -26 0 -14
4 -23 8 -20 5 3 16 -4 25 -15 9 -10 24 -19 33 -19 10 0 14 -5 10 -15 -3 -9 1
-18 9 -21 8 -4 15 -12 15 -20 0 -7 13 -21 29 -30 17 -10 28 -21 25 -26 -3 -5
8 -11 24 -14 19 -4 29 -12 28 -22 0 -9 10 -22 24 -29 14 -7 19 -13 13 -13 -7
0 -13 -5 -13 -11 0 -7 10 -9 26 -5 17 5 23 3 19 -4 -3 -5 0 -13 8 -16 9 -3 13
-13 10 -25 -5 -17 -1 -18 28 -13 26 4 30 3 19 -5 -13 -10 -13 -11 0 -12 10 0
8 -3 -5 -9 -29 -13 243 -1 285 12 69 22 177 108 164 130 -3 5 0 7 7 6 6 -2 14
3 17 11 3 8 0 11 -6 7 -7 -4 -10 5 -8 29 4 48 16 57 17 14 1 -19 3 -26 6 -15
11 41 -8 126 -33 151 l-24 24 28 15 c45 23 204 149 240 190 18 20 45 66 61
100 36 80 78 107 223 142 56 14 111 33 121 41 26 24 22 81 -9 126 -30 45 -27
60 22 89 33 19 35 24 32 60 -2 25 1 38 9 38 25 0 42 42 36 86 -5 39 -2 47 31
85 39 46 52 90 42 143 -7 35 -14 43 -180 197 -97 91 -100 99 -93 244 l6 120
58 55 c139 131 293 229 588 374 105 52 237 121 295 155 58 33 109 61 113 61
12 0 441 283 483 318 33 28 84 136 115 246 45 153 40 283 -16 488 l-19 66 37
119 c59 192 77 279 87 437 5 81 11 150 13 152 2 2 11 -22 21 -54 32 -103 117
-305 187 -442 128 -254 290 -499 493 -745 273 -331 579 -721 602 -767 60 -119
116 -190 266 -336 84 -83 190 -180 235 -217 107 -87 169 -165 377 -480 168
-252 280 -407 535 -739 323 -420 646 -959 646 -1076 0 -45 -4 -53 -45 -95 -48
-50 -174 -137 -255 -178 -27 -13 -104 -44 -170 -67 -66 -23 -136 -51 -156 -61
-20 -10 -77 -28 -125 -40 -49 -12 -109 -33 -134 -47 -28 -16 -68 -28 -105 -31
-52 -5 -61 -10 -75 -34 -14 -25 -13 -30 7 -70 l23 -42 -25 28 c-14 16 -25 40
-25 56 0 29 -25 50 -34 28 -2 -7 -5 -3 -5 8 -1 16 -3 17 -11 5 -7 -12 -12 -12
-22 -2 -6 6 -16 12 -22 12 -5 0 1 -9 14 -20 17 -15 19 -20 7 -20 -8 0 -18 6
-20 13 -4 9 -8 9 -15 -1 -12 -17 -22 -17 -33 0 -5 7 -9 8 -9 2 0 -7 -11 -9
-25 -6 -14 2 -25 0 -25 -7 0 -5 6 -9 13 -7 6 1 9 1 4 -1 -4 -3 -4 -9 -1 -14 3
-6 12 -5 22 3 15 12 16 11 3 -5 -10 -12 -17 -15 -24 -8 -7 7 -17 5 -31 -7 -11
-9 -16 -11 -12 -4 4 6 2 12 -3 12 -14 0 -14 -17 -1 -25 24 -15 6 -24 -52 -27
l-63 -3 75 -19 c41 -10 89 -20 105 -23 30 -4 68 -40 59 -55 -3 -4 -1 -8 5 -8
5 0 8 -8 6 -17 -1 -10 -8 -17 -14 -15 -6 1 -14 -5 -17 -13 -3 -8 -10 -12 -15
-9 -5 3 -9 1 -9 -4 0 -14 28 -23 32 -11 2 5 12 3 23 -6 20 -15 20 -15 0 -10
-11 3 -6 -1 10 -9 36 -17 273 -59 487 -86 184 -24 370 -25 703 -5 132 8 296
17 365 20 205 10 385 24 403 31 9 3 17 10 17 14 0 11 -89 30 -148 31 -33 1
-16 5 56 14 258 34 351 114 322 277 -17 89 -54 163 -173 341 -189 283 -330
587 -452 976 -136 433 -341 989 -430 1168 -76 152 -176 307 -267 411 -34 41
-135 135 -223 210 -332 283 -456 420 -666 740 -121 183 -157 270 -248 595 -87
313 -169 520 -389 983 -117 245 -188 411 -271 633 -55 148 -83 237 -191 626
-101 362 -177 500 -372 674 -113 101 -177 132 -328 159 -150 28 -201 30 -340
16z m-3060 -6319 c0 -8 -4 -15 -10 -15 -5 0 -7 7 -4 15 4 8 8 15 10 15 2 0 4
-7 4 -15z m703 -140 c-3 -9 -8 -14 -10 -11 -3 3 -2 9 2 15 9 16 15 13 8 -4z
m-18 -56 c-9 -17 -19 -28 -22 -25 -6 6 23 56 32 56 3 0 -2 -14 -10 -31z m4775
-1276 c0 -7 -39 17 -46 28 -3 6 5 3 20 -6 14 -10 26 -19 26 -22z"/>
<path d="M9677 1284 c10 -7 25 -13 33 -13 10 0 11 2 2 6 -6 2 -10 8 -7 13 2 4
-7 8 -20 8 -23 0 -24 -2 -8 -14z"/>
</g>
</svg>
