<?xml version="1.0" standalone="no"?>
<!DOCTYPE svg PUBLIC "-//W3C//DTD SVG 20010904//EN"
 "http://www.w3.org/TR/2001/REC-SVG-20010904/DTD/svg10.dtd">
<svg version="1.0" xmlns="http://www.w3.org/2000/svg"
 width="1040.000000pt" height="1280.000000pt" viewBox="0 0 1040.000000 1280.000000"
 preserveAspectRatio="xMidYMid meet">
<metadata>
Created by potrace 1.15, written by Peter Selinger 2001-2017
</metadata>
<g transform="translate(0.000000,1280.000000) scale(0.100000,-0.100000)"
fill="#6366f1" stroke="none">
<path d="M6123 12450 c-4 -5 -20 -10 -34 -12 -15 -2 -35 -10 -45 -18 -15 -12
-16 -13 -9 -1 6 11 4 13 -11 6 -10 -4 -31 -10 -46 -13 -15 -2 -33 -10 -39 -18
-6 -8 -22 -14 -35 -14 -13 0 -32 -7 -43 -16 -10 -9 -33 -18 -50 -19 -19 -2
-43 -15 -63 -33 -17 -17 -35 -29 -40 -26 -5 3 -18 -6 -29 -20 -11 -14 -27 -26
-35 -26 -13 0 -15 -10 -18 -67 -1 -10 -4 -20 -8 -23 -4 -3 -8 -21 -9 -40 -2
-19 -7 -44 -13 -55 -6 -11 -11 -33 -12 -50 -1 -16 -4 -52 -8 -80 -17 -141 -18
-198 -6 -252 13 -54 13 -57 -8 -71 -20 -13 -22 -23 -22 -101 0 -101 16 -162
63 -241 25 -42 40 -56 60 -58 20 -2 29 -10 33 -30 19 -89 39 -144 72 -197 l37
-60 0 -120 c0 -104 -3 -127 -23 -169 -33 -72 -84 -130 -164 -186 -105 -74
-158 -90 -323 -100 -83 -5 -158 -15 -184 -24 -143 -52 -246 -205 -342 -510
-62 -194 -109 -288 -235 -466 -123 -175 -169 -267 -195 -395 -31 -148 -30
-227 4 -292 33 -63 62 -85 125 -91 62 -6 238 23 330 54 80 27 240 105 376 183
49 29 90 50 91 49 1 -2 8 -52 14 -113 7 -60 31 -200 53 -310 65 -317 60 -367
-57 -626 -82 -181 -186 -530 -169 -572 3 -8 -2 -52 -10 -98 -9 -46 -30 -190
-46 -319 -17 -129 -36 -271 -42 -315 -16 -111 -15 -537 1 -655 30 -218 128
-636 251 -1065 115 -405 152 -601 153 -820 0 -117 -3 -146 -37 -285 -93 -385
-74 -600 119 -1382 24 -98 58 -260 76 -360 29 -169 32 -202 34 -433 2 -275 -1
-294 -65 -413 -30 -56 -31 -57 -78 -60 -26 -1 -48 -7 -50 -12 -2 -6 -12 -10
-22 -10 -10 0 -50 -31 -89 -70 -57 -56 -71 -76 -71 -100 0 -16 -4 -30 -9 -30
-10 0 -8 -86 3 -135 16 -72 262 -161 459 -167 85 -2 85 -2 131 36 25 20 46 45
46 54 0 9 7 31 16 47 47 86 48 90 50 192 l1 102 36 40 c45 50 54 96 36 181 -8
40 -13 112 -11 190 2 79 -4 164 -14 230 -33 207 -2 889 50 1137 49 229 56 413
26 663 -25 208 -25 305 0 449 25 144 24 342 -4 657 -3 39 -1 42 28 51 18 5 32
17 35 28 2 11 16 38 32 60 15 22 42 79 58 126 59 168 282 546 362 613 50 42
97 49 323 47 245 -2 453 -25 911 -101 165 -27 372 -59 460 -70 195 -26 497
-82 625 -116 118 -32 176 -29 285 17 94 39 139 77 202 172 97 146 114 239 68
362 -38 101 -108 197 -245 335 -196 198 -357 326 -705 562 -354 240 -613 389
-947 545 -302 140 -382 205 -413 334 -33 136 -75 263 -115 349 -56 121 -90
247 -90 335 0 40 13 143 30 227 33 173 46 275 56 426 4 56 11 105 16 108 4 3
74 -34 154 -81 272 -162 385 -207 591 -236 87 -12 96 -11 140 7 35 14 54 30
70 59 42 73 47 109 28 214 -33 183 -80 280 -220 456 -167 210 -222 304 -290
495 -79 222 -151 348 -249 437 -77 70 -141 90 -324 102 -137 8 -146 10 -220
46 -57 28 -97 58 -153 114 -96 97 -113 143 -107 295 3 100 5 105 40 157 37 54
69 132 82 199 4 23 14 39 29 45 24 11 70 93 92 169 22 73 22 197 0 230 -17 25
-17 34 -6 92 8 37 11 87 7 117 -4 28 -9 124 -12 212 -2 88 -7 169 -11 180 -7
25 -48 79 -91 123 -27 28 -38 32 -62 27 -21 -5 -41 0 -72 18 -24 13 -49 22
-55 20 -7 -3 -13 1 -13 7 0 6 -6 10 -12 8 -7 -3 -19 2 -27 9 -7 8 -23 13 -35
11 -11 -1 -27 1 -33 5 -7 5 -13 5 -13 1 0 -3 -8 4 -19 17 -16 20 -21 21 -34
10 -9 -7 -22 -9 -29 -5 -19 12 -35 13 -45 4z m1034 -3089 c18 -35 32 -65 30
-67 -1 -1 -23 2 -48 7 l-46 10 -13 59 c-8 36 -10 77 -5 107 l8 48 20 -50 c12
-27 36 -79 54 -114z m-1966 19 l16 -79 -26 -5 c-14 -3 -43 -8 -63 -12 l-38 -6
43 91 c23 50 45 91 48 91 3 0 12 -36 20 -80z m1404 -3200 c77 -23 181 -55 230
-71 109 -37 467 -178 478 -188 19 -18 -239 -45 -418 -44 -191 1 -266 8 -490
50 -102 18 -158 24 -207 20 l-68 -6 0 82 c0 45 -9 123 -19 172 -10 50 -18 91
-17 92 1 2 20 -6 41 -17 50 -26 71 -25 125 3 l45 22 80 -37 c44 -20 143 -55
220 -78z"/>
</g>
</svg>
