<?xml version="1.0" standalone="no"?>
<!DOCTYPE svg PUBLIC "-//W3C//DTD SVG 20010904//EN"
 "http://www.w3.org/TR/2001/REC-SVG-20010904/DTD/svg10.dtd">
<svg version="1.0" xmlns="http://www.w3.org/2000/svg"
 width="1262.000000pt" height="1280.000000pt" viewBox="0 0 1262.000000 1280.000000"
 preserveAspectRatio="xMidYMid meet">
<metadata>
Created by potrace 1.15, written by Peter Selinger 2001-2017
</metadata>
<g transform="translate(0.000000,1280.000000) scale(0.100000,-0.100000)"
fill="#6366f1" stroke="none">
<path d="M570 12783 c0 -27 46 -89 103 -139 27 -24 124 -80 239 -137 212 -105
370 -206 553 -353 66 -53 149 -110 184 -126 59 -29 68 -30 148 -25 71 5 93 3
140 -15 67 -25 228 -132 343 -228 225 -189 715 -677 913 -910 70 -82 122 -125
246 -204 54 -34 117 -77 139 -95 54 -42 126 -151 197 -297 100 -206 136 -255
426 -566 104 -112 171 -192 189 -228 48 -96 203 -508 197 -524 -10 -25 -48
-19 -117 17 -62 31 -67 32 -174 30 l-110 -3 -53 51 c-51 48 -57 51 -97 47 -52
-6 -123 -50 -234 -146 -109 -94 -113 -95 -252 -57 l-66 18 -94 -42 c-52 -23
-140 -64 -196 -92 -89 -44 -105 -48 -145 -43 l-45 6 -113 -112 -114 -112 -32
-97 c-36 -108 -54 -146 -96 -204 -23 -32 -29 -50 -29 -93 0 -29 -7 -86 -16
-126 -9 -42 -15 -120 -15 -183 0 -182 52 -326 235 -655 162 -291 201 -318 464
-323 117 -1 165 -6 187 -17 32 -17 31 -14 19 -112 -9 -66 22 -127 92 -178 96
-72 123 -124 144 -283 19 -138 51 -179 154 -192 68 -10 100 -27 126 -71 24
-38 24 -31 4 -215 -6 -51 -4 -58 21 -85 27 -29 27 -29 22 -144 -9 -187 -43
-279 -196 -529 -43 -70 -119 -208 -169 -306 -53 -105 -112 -205 -141 -241 -30
-37 -105 -103 -188 -166 -174 -133 -275 -237 -593 -618 -298 -357 -363 -427
-525 -565 -144 -123 -254 -236 -331 -342 -142 -195 -166 -222 -265 -299 -113
-87 -135 -119 -174 -244 -32 -101 -68 -169 -179 -338 -45 -70 -104 -162 -130
-205 -135 -220 -262 -355 -458 -483 -99 -65 -166 -119 -263 -214 -72 -69 -148
-137 -170 -150 -22 -13 -59 -40 -82 -61 -22 -21 -59 -42 -80 -48 -99 -27 -146
-152 -85 -223 16 -18 41 -59 56 -91 34 -71 50 -82 271 -186 281 -132 407 -166
675 -182 96 -5 203 -15 237 -20 111 -19 136 27 64 117 -21 27 -57 84 -80 126
-43 78 -87 124 -158 167 -142 84 -81 287 146 486 196 172 411 293 831 470 258
108 453 222 715 419 117 87 270 176 304 176 7 0 104 36 215 79 232 91 303 113
441 136 55 9 127 21 160 26 33 6 132 37 220 69 88 31 225 72 304 89 326 73
549 176 1092 502 399 239 480 279 739 359 145 45 273 102 500 222 80 42 172
88 204 102 32 15 79 45 104 68 l45 41 126 -6 c129 -6 302 -34 560 -89 129 -27
175 -32 396 -40 138 -5 421 -7 630 -5 494 6 611 22 874 119 271 99 487 140
751 142 198 1 190 10 136 -152 -110 -333 -126 -669 -46 -962 58 -212 71 -270
80 -349 5 -47 10 -113 10 -147 0 -33 10 -100 21 -150 20 -81 22 -123 26 -486
5 -443 -3 -536 -67 -758 -58 -200 -50 -269 35 -310 44 -21 46 -21 837 -17
1029 6 1166 17 1129 86 -8 13 -22 21 -39 21 -33 0 -94 29 -148 71 -35 26 -55
32 -125 40 -105 12 -215 49 -404 137 -82 38 -186 84 -230 103 -217 89 -315
294 -346 721 -20 266 3 563 91 1193 19 139 34 300 40 435 13 280 26 422 56
599 29 176 29 176 4 381 -33 269 -37 288 -65 335 -59 102 -341 206 -642 239
-76 8 -205 22 -288 31 -82 9 -213 27 -290 40 -283 49 -400 57 -955 65 -540 7
-572 9 -621 49 -22 18 -24 30 -36 211 -14 219 -40 387 -88 575 -156 607 -542
1296 -1051 1877 -443 505 -429 493 -690 611 -180 81 -274 138 -438 261 -336
254 -602 511 -808 781 -25 33 -105 146 -178 250 -218 313 -328 438 -555 635
-408 352 -711 636 -891 831 -207 226 -264 269 -1284 981 -107 75 -235 167
-283 206 -115 90 -175 120 -283 138 -125 22 -230 59 -474 167 -188 83 -224 96
-290 102 -113 10 -237 39 -451 106 -107 33 -213 63 -236 66 -38 5 -43 3 -43
-14z m4311 -4236 c33 -45 105 -259 94 -278 -7 -11 -118 -5 -153 8 -16 7 -82
138 -82 163 0 18 39 170 46 182 8 13 63 -30 95 -75z m-346 -1174 c38 -42 94
-156 101 -207 8 -56 -8 -99 -42 -115 -60 -27 -84 -5 -84 79 0 52 -16 96 -44
119 -20 17 -21 73 -1 111 12 24 20 31 42 39 1 1 14 -11 28 -26z m1191 -1649
c74 -14 103 -15 146 -6 49 10 57 9 103 -15 78 -40 99 -43 161 -27 70 18 88 18
105 -2 10 -12 10 -22 0 -50 -10 -27 -10 -38 -1 -49 13 -16 9 -64 -12 -137 -11
-37 -23 -53 -56 -76 -53 -35 -188 -189 -208 -237 -7 -19 -14 -45 -14 -59 0
-13 -15 -42 -33 -64 -18 -22 -42 -61 -52 -88 -10 -27 -29 -65 -41 -84 -21 -31
-22 -40 -13 -74 17 -60 -9 -117 -69 -152 -26 -15 -157 -136 -292 -268 -408
-403 -747 -691 -1268 -1080 -163 -121 -312 -199 -457 -240 -49 -13 -220 -52
-380 -85 -253 -53 -549 -126 -710 -176 l-50 -15 50 51 c74 75 218 181 415 303
308 192 432 287 625 481 208 207 386 439 591 770 157 253 213 335 305 450 79
99 90 119 259 465 106 219 198 393 211 401 15 9 64 14 297 29 106 7 183 18
220 30 71 23 59 23 168 4z"/>
</g>
</svg>
