<?xml version="1.0" standalone="no"?>
<!DOCTYPE svg PUBLIC "-//W3C//DTD SVG 20010904//EN"
 "http://www.w3.org/TR/2001/REC-SVG-20010904/DTD/svg10.dtd">
<svg version="1.0" xmlns="http://www.w3.org/2000/svg"
 width="1207.000000pt" height="1280.000000pt" viewBox="0 0 1207.000000 1280.000000"
 preserveAspectRatio="xMidYMid meet">
<metadata>
Created by potrace 1.15, written by Peter Selinger 2001-2017
</metadata>
<g transform="translate(0.000000,1280.000000) scale(0.100000,-0.100000)"
fill="#6366f1" stroke="none">
<path d="M11660 12618 l-192 -181 6 49 c16 140 -57 172 -272 118 -98 -25 -110
-26 -174 -14 -107 19 -154 8 -208 -49 -72 -73 -108 -204 -148 -535 l-17 -139
-440 -214 c-242 -118 -496 -237 -565 -264 -305 -122 -518 -245 -727 -418
l-102 -84 -328 -138 c-180 -76 -333 -139 -339 -139 -8 0 -7 17 2 58 8 31 13
97 12 148 l-2 90 42 55 c22 30 53 81 68 113 23 52 26 67 22 137 -4 69 -11 91
-47 162 -50 101 -143 226 -303 410 -65 75 -124 150 -129 166 -14 39 4 78 71
161 59 73 89 131 90 174 1 106 -199 213 -414 224 -117 5 -154 -8 -182 -66 -22
-47 -14 -148 21 -260 15 -46 25 -86 23 -87 -2 -2 -53 -17 -113 -34 -542 -147
-667 -320 -682 -946 l-5 -220 -62 -120 c-74 -146 -133 -211 -221 -246 -52 -20
-77 -23 -180 -23 -129 0 -188 12 -406 78 -377 114 -658 110 -1594 -23 l-340
-48 -365 14 c-517 19 -1180 18 -1330 -3 -63 -9 -171 -17 -240 -17 -148 -1
-176 9 -301 102 -46 35 -94 63 -115 67 -36 7 -166 0 -215 -12 -25 -6 -26 -4
-38 66 -15 92 -47 154 -109 212 -82 77 -172 112 -221 86 -43 -23 -59 -65 -71
-188 -16 -179 -28 -232 -90 -420 -33 -96 -125 -380 -205 -630 -81 -250 -153
-468 -160 -485 -8 -16 -32 -154 -55 -305 -23 -151 -66 -410 -96 -575 -104
-574 -167 -1036 -204 -1509 -26 -335 0 -554 87 -733 29 -60 57 -97 123 -163
126 -126 253 -183 516 -232 108 -20 152 -22 484 -22 216 -1 431 4 525 12 314
26 605 53 966 92 201 22 375 40 385 40 18 0 19 -12 19 -243 1 -291 13 -391 95
-812 104 -529 115 -600 130 -801 12 -177 0 -353 -45 -619 -55 -329 -69 -464
-69 -660 0 -215 13 -282 99 -515 32 -85 72 -195 90 -245 62 -168 107 -416 139
-763 9 -90 18 -167 21 -172 11 -18 5 -339 -10 -480 -39 -378 1 -531 148 -571
59 -16 239 -5 372 22 86 18 142 23 255 23 135 0 154 -2 270 -34 l125 -35 270
1 c274 2 447 14 494 37 39 19 39 52 -1 77 -50 30 -164 76 -349 141 -182 63
-389 169 -598 306 -178 116 -261 205 -304 321 -18 50 -21 89 -26 322 -3 146
-5 583 -3 971 2 432 -1 788 -8 917 l-11 210 75 298 c213 852 280 1241 433
2519 l18 150 360 288 c958 768 1190 967 1390 1197 17 19 73 64 125 100 115 78
272 233 319 313 45 76 93 222 126 377 35 167 105 445 153 606 22 73 48 176 57
230 10 55 21 102 25 107 3 4 73 25 156 47 447 121 698 235 1309 595 231 136
286 164 395 200 141 46 234 98 490 275 80 55 263 177 408 270 576 371 765 516
1103 847 108 105 221 207 252 227 45 29 89 44 221 76 181 43 229 60 263 92 24
23 30 54 12 60 -6 2 -50 0 -97 -5 -136 -13 -138 -9 -27 57 205 121 305 202
305 245 0 10 -9 29 -19 42 l-19 24 -168 -68 c-92 -36 -169 -65 -171 -63 -2 1
21 34 51 72 115 148 156 215 156 255 0 28 -5 41 -19 49 -11 5 -22 10 -24 10
-3 0 -92 -82 -197 -182z m-401 -172 c22 -26 -10 -80 -60 -104 -85 -39 -97 -38
-163 23 l-59 55 49 1 c27 0 85 9 129 19 44 10 83 18 86 19 4 0 12 -5 18 -13z
m-9594 -2391 c624 -46 1072 -56 1389 -31 l168 14 72 -33 c130 -60 178 -68 434
-72 217 -5 318 0 767 36 100 8 321 -5 438 -24 102 -18 152 -40 194 -88 27 -31
32 -47 43 -138 19 -154 9 -327 -28 -471 -54 -210 -183 -498 -340 -758 -180
-299 -324 -450 -521 -544 l-70 -33 -233 -7 c-128 -4 -280 -12 -338 -17 -194
-20 -406 -86 -547 -171 -30 -18 -115 -90 -188 -160 -177 -167 -186 -171 -552
-253 -660 -147 -917 -220 -1205 -345 -98 -43 -102 -44 -94 -32 2 4 18 76 35
159 60 292 59 471 -4 826 -82 466 -80 440 -79 892 1 226 5 427 10 448 9 37 12
40 96 72 309 120 343 253 162 634 -30 62 -54 116 -54 119 0 6 165 -3 445 -23z"/>
</g>
</svg>
